<?xml version="1.0" standalone="no"?>
<!DOCTYPE svg PUBLIC "-//W3C//DTD SVG 1.1//EN" "http://www.w3.org/Graphics/SVG/1.1/DTD/svg11.dtd" >
<svg xmlns="http://www.w3.org/2000/svg" xmlns:xlink="http://www.w3.org/1999/xlink" version="1.1">
<metadata>
Created by FontForge 20150102 at Tue Feb 17 20:49:27 2015
 By uniteet7
Copyright (c) 2014 by Jenna Sue Design Co. All rights reserved.
</metadata>
<defs>
<font id="NellaSue" horiz-adv-x="833" >
  <font-face
    font-family="Nella Sue"
    font-weight="400"
    font-stretch="normal"
    units-per-em="1000"
    panose-1="0 0 0 0 0 0 0 0 0 0"
    ascent="800"
    descent="-200"
    x-height="307"
    cap-height="853"
    bbox="-225 -468 1297 1037"
    underline-thickness="50"
    underline-position="-50"
    unicode-range="U+000A-FB02"
  />
<missing-glyph horiz-adv-x="500"
 />
    <glyph glyph-name="ff" unicode="ff" horiz-adv-x="667"
d="M657 776q21 27 47.5 40.5t52.5 13.5q36 0 62.5 -26t26.5 -79q0 -11 -4 -18.5t-19 -7.5q-8 0 -14.5 4t-6.5 12v11q0 35 -15 55t-38 20q-26 0 -48 -22t-40 -52.5t-31 -64t-21 -57.5q-11 -32 -23.5 -77t-26 -94.5t-26.5 -99t-24 -91.5q53 7 97.5 11t82.5 4q11 0 25.5 -5
t14.5 -10t-7.5 -7t-12.5 -2q-6 0 -12 1t-12 1q-46 -1 -91.5 -6.5t-91.5 -14.5l-8 -30l-12 -43q-6 -20 -14.5 -59t-20 -86.5t-26 -99.5t-32.5 -99t-39.5 -84.5t-46.5 -55.5q-16 -11 -34 -17.5t-35 -6.5q-23 0 -39 8t-26.5 22t-15.5 32t-5 38q0 32 9 65t21 56q28 54 53.5 99
t55.5 86.5t68 80.5t90 81q-45 -11 -96.5 -26.5t-98 -32t-82 -32.5t-50.5 -27q-4 -18 -9 -38.5t-10.5 -42t-11 -42.5t-9.5 -38q-12 -45 -31.5 -97.5t-47.5 -97t-65 -74t-83 -29.5q-32 0 -54 20t-22 63q0 34 11 66.5t27.5 63t37.5 58.5t42 53q21 24 39.5 43.5t39.5 37.5t47 37
t61 42q9 50 21 96t24 95q14 56 28.5 113.5t33.5 113t45 107.5t62 99q18 23 43.5 35.5t54.5 12.5q15 0 33 -5t34 -14.5t26.5 -23t10.5 -31.5q0 -10 -7 -20.5t-17 -10.5q-15 0 -19.5 13t-10 28t-17 28t-39.5 13t-51 -23t-41 -56.5t-32 -71.5t-23 -68q-17 -53 -31 -103
t-27 -99.5t-26 -100t-28 -103.5q94 39 178.5 63.5t158.5 38.5q16 62 33.5 135.5t40 147t51.5 141t68 117.5zM291 -281q15 16 31.5 50.5t32 77.5t29.5 90.5t26 90.5t21 76.5t14 49.5q-1 -1 -10 -7.5t-23 -18t-31 -28t-33 -36.5q-23 -27 -50.5 -65t-52.5 -81.5t-41.5 -89
t-16.5 -88.5q0 -23 7.5 -40.5t30.5 -17.5q14 0 30.5 8.5t35.5 28.5zM7 -146q17 50 30.5 100t27.5 101q-15 -10 -36 -25t-46 -36.5t-52 -50t-53 -64.5q-8 -10 -19 -27t-21.5 -37.5t-18 -43t-7.5 -42.5q0 -21 11 -39t30 -18q16 0 36 13t41 37t40.5 57.5t36.5 74.5z" />
    <glyph glyph-name="ft" unicode="ft" horiz-adv-x="664"
d="M-211 -280q0 5 0.5 10t1.5 11zM675 134q6 4 9 2t2 -7t-5.5 -12t-13.5 -13q-10 -7 -28.5 -20t-42.5 -26.5t-51 -26t-53 -18t-50.5 -2.5t-42.5 20q-14 13 -16 46.5t2.5 71t12 72t10.5 49.5q-38 -10 -70.5 -21.5t-65.5 -26.5t-68.5 -34t-79.5 -44q-6 -20 -14.5 -59
t-20 -86.5t-26 -99.5t-32 -99t-39.5 -84.5t-47 -55.5q-26 -19 -56 -23t-56 10q-25 13 -34.5 39t-8.5 56.5t9.5 61.5t20.5 53q29 56 57.5 99.5t59.5 79t67 66.5t81 61q2 5 2 7t2 6q11 41 23.5 92t27 106.5t31 112.5t35.5 110t42 99.5t50 81.5q27 33 61 46t63.5 5t49 -36.5
t16.5 -76.5q0 -7 -7.5 -10.5t-15.5 -3.5t-14.5 3.5t-6.5 12.5q2 33 -8 54t-28 28t-40 -1.5t-44 -36.5q-12 -16 -23.5 -37t-21 -43t-17 -42t-11.5 -33q-13 -38 -28.5 -94t-31.5 -115.5t-30.5 -115.5t-24.5 -95q27 17 62 34.5t72.5 32.5t74.5 27t69 20l2 9q7 32 15 63.5
t17 63.5q1 5 6.5 9t11 6t9.5 1t3 -6q-2 -11 -6 -32t-8 -42.5t-7.5 -40t-4.5 -24.5h2q29 4 55 6.5t46.5 3.5t33.5 1t16 -1q6 -2 4.5 -9t-10.5 -9q-13 -2 -25.5 -3t-28.5 -3t-36.5 -5t-50.5 -7q-8 -2 -10 -2q-10 -46 -17 -92t-6 -91q1 -33 16.5 -45.5t39 -11t52 13.5t56 27
t50.5 30t36 23zM-67 -279q15 16 30.5 47.5t29 69.5t26 80t22.5 80t17.5 68.5t12.5 46.5q-2 -2 -18 -13t-39 -32q-18 -17 -40.5 -42t-44.5 -54.5t-42 -62.5t-34 -66.5t-20.5 -66.5t-1.5 -62q3 -13 12 -21t22.5 -8.5t31 8t36.5 28.5z" />
    <glyph glyph-name="ex" unicode="ex" horiz-adv-x="628"
d="M745 -203q5 5 17 8t20 3q7 0 7 -3t-6 -7q-29 -24 -55.5 -35t-50.5 -11q-46 0 -83 34t-66 87t-51.5 117t-38.5 123l-8 -6q0 -1 -1 -2q-92 -66 -156.5 -91.5t-113.5 -25.5t-79 14t-47 33.5t-23.5 40t-7.5 32.5q-1 5 -1 16q0 39 13 72.5t32.5 59t42.5 40t43 14.5t31 -11
t11 -28q0 -21 -18 -51q-7 -11 -24 -28.5t-34.5 -34t-31 -29.5t-13.5 -14q0 -15 7.5 -30.5t22.5 -28.5t37.5 -21.5t53.5 -8.5q21 0 45.5 5t55.5 18.5t68.5 37t84.5 59.5q-5 18 -11 41t-12 45.5t-11 42t-8 29.5v2q0 7 13 12.5t25 5.5q8 0 10 -6l34 -140q21 16 38 30t31.5 25.5
t28 20.5t29.5 17q1 0 2.5 0.5t3.5 0.5q9 0 21.5 -4t12.5 -10q0 -3 -5 -6q-25 -18 -42.5 -30t-33.5 -23t-33 -23.5t-41 -31.5q11 -54 30 -117.5t46 -118.5t61.5 -92t77.5 -38q26 0 50 20zM141 274q-5 5 -14 5q-14 0 -25 -10t-19.5 -23.5t-14.5 -28t-9 -22.5q-5 -11 -6.5 -26
t-2.5 -29q15 13 31 30.5t30 32.5q4 4 9.5 11.5t10.5 16.5t9 18t4 16q0 6 -3 9z" />
    <glyph glyph-name="et" unicode="et" horiz-adv-x="678"
d="M700 122q4 3 7 3q4 0 4 -5t-4.5 -13t-14.5 -15q-12 -8 -35 -24t-52 -32t-61 -27.5t-61 -11.5q-15 0 -28.5 3.5t-24 13t-17 26.5t-6.5 45q0 16 1.5 34t3.5 35q-25 -29 -59 -56.5t-72.5 -49t-79 -35t-78.5 -13.5q-36 0 -58 13t-34 31t-16 36t-5 28q-1 5 -1 16q0 39 13 72.5
t32.5 59t42.5 40t43 14.5t31 -11t11 -28q0 -21 -18 -51q-7 -11 -24 -28.5t-34.5 -34.5t-31 -29.5t-13.5 -14.5q0 -9 4 -22.5t13 -26t23 -21.5t33 -9q34 0 75 14t81 37t75 53.5t56 62.5q5 24 8.5 41t5.5 23q-38 -3 -71.5 -5t-62.5 -3q-5 0 -12 6.5t-7 13.5q0 6 14 9t36.5 5
t51 3.5t57.5 3.5q3 17 8 41.5t11.5 47t15.5 38.5t21 16q6 0 6 -5q0 -11 -4 -31t-8.5 -41.5t-8.5 -39t-5 -23.5q28 2 51.5 4t46 4t44 4.5t44.5 6.5q5 0 12.5 -4.5t7.5 -10.5t-25 -12t-59 -10.5t-69.5 -8t-56.5 -5.5q-10 -45 -16.5 -89.5t-6.5 -87.5q0 -35 13 -49.5t36 -14.5
t52.5 11.5t58 27.5t52.5 31.5t38 23.5zM149 274q-5 5 -14 5q-14 0 -25 -10t-19.5 -23.5t-14.5 -28t-9 -22.5q-5 -11 -6.5 -26t-2.5 -29q15 13 31 30.5t30 32.5q4 4 9.5 11.5t10.5 16.5t9 18t4 16q0 6 -3 9z" />
    <glyph glyph-name="ss" unicode="ss" horiz-adv-x="607"
d="M524 346q0 -1 0.5 -1.5t0.5 -1.5q0 -8 -7.5 -10t-10.5 -2q-2 0 -10 3.5t-31 3.5q-14 0 -31.5 -4t-33 -12.5t-26 -21t-10.5 -30.5q0 -9 3 -16q6 -23 17 -45.5t23.5 -45.5l25 -46t20.5 -48q25 10 50 17.5t47 13.5t40.5 10.5t30.5 7.5q9 3 19 3q13 0 13 -5q0 -6 -15 -11
q-9 -4 -27.5 -9.5t-43 -12.5t-52.5 -16t-56 -20q2 -10 3.5 -19.5t1.5 -20.5q0 -20 -7 -43t-20.5 -43.5t-32.5 -34t-44 -13.5q-35 0 -49.5 16t-14.5 33q0 43 32.5 73.5t78.5 53.5q-6 20 -15 38.5t-18 36.5l-8 -5q-48 -30 -100.5 -50t-102.5 -46q2 -11 3.5 -21t1.5 -21
q0 -20 -7 -43t-20.5 -43.5t-32.5 -34t-44 -13.5q-35 0 -49.5 16t-14.5 33q0 35 31.5 67.5t79.5 60.5q-10 28 -24 55.5t-27 54t-22.5 52t-9.5 49.5q0 15 7.5 32t22.5 32t38.5 24.5t55.5 9.5q21 0 42 -7.5t39 -25.5q2 -2 5.5 -10t3.5 -13q0 -1 -1 -2q-3 0 -11 5t-20 11t-27 11
t-33 5q-31 0 -56.5 -17.5t-25.5 -45.5q0 -9 3 -16q6 -23 16.5 -44.5t23 -43.5t24.5 -44.5t20 -46.5q31 16 63 30t60.5 25.5t51.5 20t37 13.5q-17 32 -30 63t-13 60q0 17 8.5 35t26 32.5t43.5 23.5t62 9q18 0 33.5 -3.5t25.5 -11.5zM420 -14q0 11 -1.5 20.5t-3.5 19.5
q-38 -19 -64 -43t-26 -53q0 -14 9 -21t23 -7t25.5 8t20 20t13 27t4.5 29zM124 -40q0 10 -1 19t-3 18l-17 -12q-11 -7 -23.5 -17t-23 -21.5t-17.5 -23.5t-7 -23q0 -12 8.5 -18.5t19.5 -6.5q14 0 25.5 8t20 20.5t13.5 27.5t5 29z" />
    <glyph glyph-name="nx" unicode="nx" horiz-adv-x="827"
d="M931 -200q5 5 16.5 8t19.5 3q7 0 7 -3t-6 -7q-29 -24 -55.5 -35t-50.5 -11q-45 0 -82 34t-66 87t-51.5 117t-38.5 123q-33 -24 -52.5 -39t-33.5 -24q-27 -18 -57.5 -31t-60.5 -13q-20 0 -39 7.5t-36 27.5q-8 9 -14.5 29t-12.5 44.5t-12 50t-12 47t-13 35t-16 13.5
q-12 0 -30 -14t-38.5 -36.5t-43 -51.5t-44 -59.5t-41 -60.5t-33.5 -53q-3 -5 -15.5 -9.5t-23.5 -4.5q-12 0 -12 7q0 1 0.5 1.5t0.5 1.5q10 33 21.5 78.5t22 92t18 88.5t9.5 67q7 8 13 15q5 6 11 11t9 5q2 0 2 -3q0 -62 -10 -122t-23 -120q26 37 55 73.5t58 64.5t56.5 45.5
t51.5 17.5q25 0 39.5 -16.5t23.5 -41t15 -54t15 -54.5q6 -17 11 -32.5t12.5 -27.5t17.5 -19.5t26 -7.5q9 1 20 3.5t25 8.5l8 3q26 14 61 38t62 50q-5 18 -11 41l-12 46t-11.5 42.5t-8.5 29.5v2q0 8 13 13t24 5q12 0 15 -6l37 -136q21 16 36.5 29.5t29 24t26 19t28.5 16.5
q1 0 2.5 0.5t3.5 0.5q9 0 21 -4t12 -10q0 -3 -5 -6q-25 -18 -42 -29t-32 -21t-31 -21.5t-40 -30.5q16 -57 37.5 -122t48.5 -120.5t58.5 -92.5t66.5 -37q26 0 50 20z" />
    <glyph glyph-name="ix" unicode="ix" horiz-adv-x="569"
d="M672 -200q5 5 16.5 8t19.5 3q7 0 7 -3t-6 -7q-29 -24 -55.5 -35t-50.5 -11q-45 0 -82 34t-66 87t-51.5 117t-38.5 123l-19 -14q-66 -53 -131.5 -81.5t-121.5 -28.5q-53 0 -72 25.5t-19 70.5q0 27 5.5 56.5t12.5 56.5t14.5 48.5t10.5 33.5q2 8 12 14.5t18 6.5q7 0 7 -6
q0 -1 -0.5 -1.5t-0.5 -2.5q-3 -12 -9 -33.5t-12.5 -47t-11 -53.5t-4.5 -53q0 -34 11.5 -57t43.5 -23q22 0 42.5 2.5t46 11.5t58 27.5t77.5 51.5q1 0 1.5 0.5t1.5 0.5q8 6 14.5 12t15.5 14q-5 18 -11 41l-12 46t-11.5 42.5t-8.5 29.5v2q0 8 13 13t24 5q12 0 15 -6l37 -136
q21 16 36.5 29.5t29 24t26 19t28.5 16.5q1 0 2.5 0.5t3.5 0.5q9 0 21 -4t12 -10q0 -3 -5 -6q-25 -18 -42 -29t-32 -21t-31 -21.5t-40 -30.5q16 -57 37.5 -122t48.5 -120.5t58.5 -92.5t66.5 -37q26 0 50 20zM70 383q-10 2 -10 13q0 17 13.5 33t33.5 16q6 -1 10.5 -4.5
t4.5 -11.5q0 -20 -15 -33.5t-31 -13.5q-4 0 -6 1z" />
    <glyph glyph-name="Ut" unicode="Ut" horiz-adv-x="1260"
d="M1271 101q4 3 7 3q4 0 4 -6q0 -5 -4.5 -12.5t-14.5 -14.5q-12 -8 -35 -24t-52 -32t-61 -27.5t-61 -11.5q-15 0 -28.5 3.5t-24 13t-17 26.5t-6.5 45q0 22 2.5 46t6.5 47q-11 -12 -22.5 -23.5l-22.5 -22.5t-40.5 -34t-67.5 -46.5t-78.5 -41.5t-72.5 -18q-42 0 -57 35
t-15 108q0 53 6.5 113.5t15.5 114.5q-2 -2 -2.5 -5t-2.5 -6q-35 -64 -77 -123t-85.5 -104.5t-85.5 -73t-76 -27.5q-21 0 -34.5 10.5t-21.5 26.5t-11 35.5t-3 37.5q0 63 16 147.5t37 176.5t41.5 184t29.5 170q1 5 1 10.5v10.5q0 22 -6 36t-16 22t-22 11t-25 3
q-18 0 -33.5 -3.5t-22.5 -5.5q-43 -12 -90 -32.5t-110 -48.5q-10 -4 -15 -4q-8 0 -13 2.5t-5 6.5q0 6 14 13q107 49 181.5 78.5t128.5 29.5q48 0 66.5 -24.5t18.5 -69.5q0 -27 -5.5 -59.5t-13 -68.5t-16 -73.5t-15.5 -74.5q-12 -69 -28 -135.5t-28 -134.5q-2 -14 -6 -32.5
t-8 -39.5t-7 -43.5t-3 -43.5q0 -15 2.5 -30.5t7.5 -28t14 -21t21 -8.5q18 0 41 17.5t47.5 44.5t49.5 59.5t45.5 63t35.5 54.5t21 35q37 66 68 134t55 140q3 9 5.5 20.5t7.5 21.5t13 16.5t23 6.5q12 0 12 -6v-3q-14 -47 -29 -108t-27.5 -128t-21 -136.5t-8.5 -133.5
q0 -18 -0.5 -39.5t3.5 -39.5t14 -30t31 -12q35 0 94 30t140 100q10 8 22.5 21.5t25.5 25.5q4 21 7.5 36.5t5.5 20.5q-38 -3 -71.5 -5t-62.5 -3q-5 0 -12 6.5t-7 13.5q0 6 14 9t36.5 5t51 3.5t57.5 3.5q3 17 8 41.5t11.5 47t15.5 38.5t21 16q6 0 6 -5q0 -11 -4 -31.5
t-8.5 -41.5t-8.5 -38.5t-5 -23.5q28 2 52 4t46 4t43.5 4.5t44.5 6.5q5 0 12.5 -4.5t7.5 -10.5t-25 -12t-59 -10.5t-69.5 -8t-56.5 -5.5q-10 -45 -16.5 -89.5t-6.5 -87.5q0 -35 13.5 -49.5t36.5 -14.5t52 11.5t57.5 27.5t52.5 31.5t38 23.5z" />
    <glyph glyph-name="ax" unicode="ax" horiz-adv-x="830"
d="M886 -200q5 5 16.5 8t19.5 3q7 0 7 -3t-6 -7q-29 -24 -55.5 -35t-50.5 -11q-45 0 -82 34t-66 87t-51.5 117t-38.5 123q-13 -10 -24.5 -19t-23.5 -17q-23 -18 -50 -36t-54 -32t-53.5 -23t-48.5 -9q-27 0 -43 11.5t-25 30.5t-12 43t-3 48q-8 -6 -29.5 -24t-50 -37t-59 -34
t-54.5 -15q-20 0 -34 14t-14 41q0 35 24.5 77t61 79t78 61.5t76.5 24.5q33 0 51 -24q3 8 11.5 21t25.5 13q12 0 17 -6q-2 -10 -11 -32t-19 -50t-18 -58t-8 -55q0 -54 17.5 -75.5t44.5 -21.5q23 0 49 11.5t52 28.5q28 20 45.5 34t31.5 25l9 8l13 12l3 3l3 2l12 11
q-5 18 -11 41l-12 46t-11.5 42.5t-8.5 29.5q0 8 11.5 14t25.5 6q12 0 15 -6l37 -136q21 16 36.5 29.5t29 24t26 19t28.5 16.5q1 0 2.5 0.5t3.5 0.5q9 0 21 -4t12 -10q0 -3 -5 -6q-25 -18 -42 -29t-32 -21t-31 -21.5t-40 -30.5q16 -57 37.5 -122t48.5 -120.5t58.5 -92.5
t66.5 -37q26 0 50 20zM151 85q12 9 30.5 25t35.5 37t31 44.5t17 47.5q-13 32 -41 32q-26 0 -55.5 -23.5t-54 -56t-41 -67t-16.5 -55.5t18 -21q11 0 29.5 8.5t46.5 28.5z" />
    <glyph glyph-name="tt" unicode="tt" horiz-adv-x="684"
d="M708 127q6 4 9 1.5t2 -7.5t-6 -12t-13 -13q-10 -7 -29 -20t-42.5 -26.5t-50.5 -25.5t-53.5 -17.5t-50.5 -2.5t-42 20q-8 7 -11.5 21t-4 32t0.5 39t4 42q-69 -61 -128 -101t-106.5 -59t-81 -16t-51.5 29q-12 18 -10.5 57.5t8 81.5t14.5 76.5t10 41.5q-23 -2 -45 -3.5
t-44 0.5q-16 1 -32.5 3t-30.5 11q-2 2 -1.5 7.5t2.5 7.5q2 4 6 6l8 4q16 6 34 1q7 -2 19.5 -3t27.5 -1.5t31.5 -0.5h32.5l13.5 45l15 50t14 46t10.5 34q1 5 6.5 9t11 6t9.5 1t3 -6l-7 -31.5t-12 -49.5t-14.5 -55t-12.5 -48q13 1 25 2t25 3q30 4 61 8.5t61 9.5q16 3 31 6
t31 7h3l7 2l45 9l26 6t26 7q5 23 10 44.5t10 36.5q1 4 6.5 8t11 6t9.5 1t3 -5l-14 -82l23 6q12 3 23.5 6t23.5 7q5 2 10.5 3.5t10.5 3.5q2 0 3 1h1l8 3q5 2 10.5 3t11.5 1q3 0 7 -0.5t7 -2.5q6 -6 -2.5 -12t-12.5 -7q-38 -14 -75 -24l-54 -14q-4 -25 -7.5 -44.5t-4.5 -26.5
q-7 -36 -12 -69q-5 -29 -8.5 -60.5t-2.5 -53.5q1 -33 16 -45.5t38.5 -11t52 13.5t56 27t51 30t36.5 23zM87 79q1 -30 14.5 -44t37 -14.5t55.5 11.5t69.5 34t78.5 52.5t84 67.5q2 17 5.5 32.5t5.5 26.5l5 25q3 12 6.5 29t7.5 36q-36 -9 -72 -16.5t-72 -14.5
q-49 -10 -98 -18.5t-100 -13.5q-1 -5 -5.5 -28t-9.5 -52.5t-9 -60.5t-3 -52z" />
    <glyph glyph-name="ett" unicode="ett" horiz-adv-x="1033"
d="M1053 127q6 4 9 1.5t2 -7.5t-6 -12t-13 -13q-10 -7 -29 -20t-42.5 -26.5t-50.5 -25.5t-53.5 -17.5t-50.5 -2.5t-42 20q-8 7 -11.5 21t-4 32t0.5 39t4 42q-69 -61 -128 -101t-106.5 -59t-81 -16t-51.5 29q-11 16 -10.5 50t5.5 72q-28 -23 -68 -49.5t-83.5 -47t-88 -30.5
t-81.5 -1q-22 5 -35.5 20t-21 31.5t-10.5 31t-4 20.5q-4 50 13.5 93t44.5 70q22 22 44 32.5t43 4.5q23 -7 27 -30t-18 -58q-8 -12 -22.5 -27.5t-30.5 -31t-30 -28t-20 -17.5q-1 -5 2 -17.5t10.5 -26t18.5 -24.5t27 -13q33 -4 73.5 8t80.5 31.5t74.5 42.5t57.5 41
q7 40 14.5 71.5t9.5 38.5q-23 -2 -45 -3.5t-44 0.5q-16 1 -32.5 3t-30.5 11q-2 2 -1.5 7.5t2.5 7.5q2 4 6 6l8 4q16 6 34 1q7 -2 19.5 -3t27.5 -1.5t31.5 -0.5h32.5l13.5 45l15 50t14 46t10.5 34q1 5 6.5 9t11 6t9.5 1t3 -6l-7 -31.5t-12 -49.5t-14.5 -55t-12.5 -48
q13 1 25 2t25 3q30 4 61 8.5t61 9.5q16 3 31 6t31 7h3l7 2l45 9l26 6t26 7q5 23 10 44.5t10 36.5q1 4 6.5 8t11 6t9.5 1t3 -5l-14 -82l23 6q12 3 23.5 6t23.5 7q5 2 10.5 3.5t10.5 3.5q2 0 3 1h1l8 3q5 2 10.5 3t11.5 1q3 0 7 -0.5t7 -2.5q6 -6 -2.5 -12t-12.5 -7
q-38 -14 -75 -24l-54 -14q-4 -25 -7.5 -44.5t-4.5 -26.5q-7 -36 -12 -69q-5 -29 -8.5 -60.5t-2.5 -53.5q1 -33 16 -45.5t38.5 -11t52 13.5t56 27t51 30t36.5 23zM432 79q1 -45 30.5 -54.5t76.5 7.5t107 57.5t124 96.5q3 17 6 32.5t5 26.5q3 13 6 25t6.5 29t7.5 36
q-36 -9 -72 -16.5t-72 -14.5q-49 -10 -98 -18.5t-100 -13.5q-1 -5 -5.5 -28t-9.5 -52.5t-9 -60.5t-3 -52zM141 274q-8 7 -17 5.5t-17 -6.5q-9 -6 -17 -16.5t-14 -22t-10.5 -22.5t-6.5 -17q-5 -11 -6.5 -26t-2.5 -29q15 13 31.5 30.5t29.5 32.5q4 5 11.5 15t13.5 21t8 20.5
t-3 14.5z" />
    <glyph glyph-name="rt" unicode="rt" horiz-adv-x="663"
d="M680 130q6 4 9 2t2 -7t-5.5 -12t-13.5 -13q-10 -7 -28.5 -20t-42.5 -26.5t-50.5 -26t-53 -18t-50.5 -2.5t-42 20q-10 9 -13 30.5t-1.5 49.5t6.5 59t10.5 58.5t10.5 49.5t7 32l-42 -6q-17 -3 -39.5 -7.5t-49 -12.5t-55.5 -20.5t-57 -30.5l-24 -17q-21 -21 -37.5 -41
t-28.5 -43t-20.5 -50t-13.5 -60q-1 -5 -9 -9t-18 -6t-17.5 -1t-7.5 6q1 4 1.5 7t0.5 7q0 2 0.5 4t0.5 4q14 54 30.5 127.5t26.5 151.5q1 7 7.5 13.5t14 10.5t13.5 4.5t6 -2.5q0 -11 -1.5 -27.5t-4 -34.5t-5.5 -36.5t-6 -32.5q17 17 41 36t45 30q30 16 67.5 27.5t73.5 19
t65.5 11t44.5 4.5q6 26 12 51t14 50q1 5 6.5 9t11 6t9.5 1t3 -6q-2 -8 -4 -21t-5 -28t-6 -30.5t-6 -27.5q34 4 67.5 5.5t67.5 2.5q9 0 9.5 -4t-3.5 -9t-9 -9.5t-6 -4.5q-30 0 -64 -2t-66 -5q-5 -23 -10 -51.5t-9 -58t-6.5 -57.5t-1.5 -50q1 -33 16 -45.5t38.5 -11t52 13.5
t56 27t50.5 30t36 23z" />
    <glyph glyph-name="ct" unicode="ct" horiz-adv-x="799"
d="M810 117q6 4 9 1.5t2 -7.5t-5.5 -12t-13.5 -13q-10 -7 -28.5 -20t-42.5 -26.5t-51 -26t-53 -18t-50.5 -2.5t-42.5 20q-9 9 -13 26t-4 38.5t2.5 45.5t6.5 47q-31 -24 -72.5 -50t-86.5 -49t-91 -40.5t-87.5 -25t-75.5 -2.5t-55 28q-22 24 -25 54.5t6 62t26.5 61t35.5 51.5
q35 42 66.5 50.5t57.5 -0.5q20 -7 33.5 -16t8.5 -20q-2 -5 -5 -9q-6 -8 -13 -3q-6 5 -17 10t-24.5 6.5t-28 -2t-29.5 -16.5q-5 -5 -14 -12.5t-18.5 -21t-18.5 -34t-14 -49.5q-8 -41 6.5 -71t60.5 -32q33 -1 82 11.5t102 34t104.5 49.5t89.5 58q5 24 9 42t6 24
q-38 -3 -71.5 -5t-62.5 -3q-3 0 -8.5 4.5t-8.5 9.5t-1 10t13 6q23 2 61 4.5t84 6.5q7 32 15 63.5t17 63.5q1 5 6.5 9t11 6t9.5 1t3 -6q-2 -12 -6 -32t-8.5 -40.5t-7.5 -38t-4 -23.5q28 2 52 4t46 4t43.5 4.5t44.5 6.5q3 0 9 -2.5t9 -6.5t1.5 -8t-11.5 -7q-26 -5 -49.5 -9
t-46.5 -7t-48 -5.5t-54 -5.5q-10 -46 -17 -92.5t-6 -91.5q1 -33 16.5 -45.5t39 -11t52 13.5t56 27.5t50.5 30.5t36 23z" />
    <glyph glyph-name="th" unicode="th" horiz-adv-x="880"
d="M893 102q15 9 20 6t-14 -18q-38 -32 -72.5 -51t-67 -20.5t-62 18.5t-57.5 67q-11 20 -18 42t-15 44q-3 10 -6.5 25.5t-9.5 26.5t-14 13t-20 -14q-38 -52 -73.5 -110t-59.5 -118q-2 -6 -10.5 -9.5t-17 -4.5t-15 2t-4.5 11q5 23 10 47t11 47q-27 -19 -68 -44t-84 -42.5
t-83 -21t-65 20.5q-10 10 -13.5 30.5t-3 45.5t4.5 53t8.5 52t9 41.5t5.5 23.5q-38 -3 -71.5 -5t-62.5 -3q-3 0 -8.5 4.5t-8.5 9.5t-1 10t13 6q23 2 61 4.5t84 6.5q7 32 15 63.5t17 63.5q1 5 6.5 9t11 6t9.5 1t3 -6q-2 -12 -6 -32t-8.5 -40.5t-7.5 -38t-4 -23.5q28 2 51.5 4
t46 4t44 4.5t44.5 6.5q3 0 9 -2.5t9 -6.5t1.5 -8t-11.5 -7q-26 -5 -49.5 -9t-46.5 -7t-48 -5.5t-54 -5.5q-10 -46 -17 -92.5t-6 -91.5q1 -32 17.5 -44t42.5 -10t57.5 14.5t62.5 28.5t57.5 32.5t43.5 27.5q18 70 40 150t50 188q25 99 50 185.5t41 139.5q2 6 10 15.5t16 16.5
t14.5 9t5.5 -5q-6 -44 -32 -135t-68 -245q-11 -39 -20.5 -80.5t-18 -79t-15.5 -68.5t-12 -50l10.5 17.5t9 14.5l9 14t11.5 16q21 28 45.5 45t61.5 9q12 -3 20 -17t14 -33t10.5 -39.5t10.5 -36.5q9 -25 21.5 -50.5t32.5 -44.5t43 -19.5t46.5 8t44.5 22t37 21.5z" />
    <glyph glyph-name="ux" unicode="ux" horiz-adv-x="796"
d="M894 -200q4 4 13.5 7t17.5 4t11 -1t-5 -9q-47 -39 -86.5 -44.5t-73 13t-61.5 56t-50.5 85.5t-40.5 101.5t-32 103.5q-1 -1 -2 -1q-27 -22 -46 -36.5t-34.5 -24t-29.5 -17t-31 -16.5q-15 -8 -40 -16.5t-50 -12.5q-15 -2 -34 0q-25 2 -38 18.5t-18 41t-4.5 53.5t3.5 57
q-21 -32 -46 -63t-53 -54.5t-58.5 -36t-61.5 -6.5q-23 4 -32.5 24.5t-10 49.5t6.5 63.5t15.5 67t17 59.5t11.5 41q1 5 10 9t18 5.5t16 0.5t6 -7q-7 -29 -18 -63t-19.5 -69t-12 -69t5.5 -64q4 -16 15.5 -17.5t26 6t31 21.5t31.5 29.5t27 29t17 20.5q20 26 35 54t32 57
q1 3 9.5 7t17.5 7t16 3t6 -6v-3q-2 -20 -7 -48.5t-7.5 -59t-0.5 -60t13 -51.5q9 -16 26 -19.5t38 2t44.5 16.5t45.5 24q23 14 47.5 35t56.5 50q-5 18 -11 41l-12 46t-11.5 42.5t-8.5 29.5q-2 6 5 11t17 7.5t19 2t11 -6.5l37 -136q21 16 36.5 29.5t29 24t26 19t28.5 16.5
q3 1 11.5 0.5t16 -3.5t10.5 -7t-4 -9q-25 -18 -42 -29t-32 -21t-31 -21.5t-40 -30.5q12 -44 28 -94t35 -97t41.5 -87.5t47.5 -64.5t52 -28.5t57 19.5z" />
    <glyph glyph-name="lf" unicode="lf" horiz-adv-x="740"
d="M796 845q37 0 63.5 -26t26.5 -80q0 -11 -4 -19t-19 -8q-8 0 -14.5 4t-6.5 13v11q0 35 -15.5 55.5t-38.5 20.5q-26 0 -48.5 -22t-40.5 -53.5t-31 -65.5t-22 -58q-13 -38 -29 -94.5t-31.5 -117t-30.5 -117.5t-25 -96q66 27 114.5 42.5t81 23t49 9.5t19.5 2q8 0 8 -9
q0 -10 -18.5 -14t-54.5 -12t-89 -27t-122 -59q-6 -21 -15 -60t-20.5 -87t-26 -101t-32.5 -100.5t-40 -85.5t-48 -56q-16 -11 -34 -17.5t-36 -6.5q-23 0 -39.5 8t-27 22t-15.5 32.5t-5 39.5q0 32 9.5 65t21.5 56q30 59 59.5 103.5t62.5 81.5q-37 -17 -78 -30.5t-79.5 -20
t-72.5 -4t-57 18.5q-13 8 -22 22.5t-14 32t-7 37t0 38.5q3 29 8.5 67.5t13.5 67.5t17.5 62.5t18.5 65t17 57.5t13 40q24 63 51 131t64 125q18 28 38.5 53.5t53.5 34.5q30 8 44.5 -3t18 -34.5t-1.5 -55.5t-14.5 -65.5t-21.5 -65.5t-22 -54q-21 -47 -47.5 -97.5t-58 -99.5
t-67 -95t-73.5 -84q-2 -18 -2 -42.5t3 -40.5q10 -50 48.5 -65.5t90 -8.5t107.5 30.5t101 51.5q17 14 36 28t40 28l4 14q12 42 24.5 93.5t27 107.5t31 114t36.5 111.5t43 100.5t50 82q22 28 49 41.5t53 13.5zM324 -280q16 17 31 48.5t29 70t26.5 81t23 81t18 69.5t12.5 47
q-2 -2 -18.5 -13t-39.5 -33q-26 -25 -58.5 -63.5t-61 -83.5t-48 -93.5t-19.5 -91.5q0 -23 7.5 -40t30.5 -17q14 0 31 9t36 29zM114 452q-6 -19 -13 -45.5t-13.5 -55.5l-13 -58t-11.5 -52q29 34 55.5 74.5t50.5 83.5t45.5 85.5t39.5 80.5q18 39 37.5 89.5t30.5 98.5
q4 18 2.5 32.5t-8.5 22t-17 6.5t-22 -14q-11 -11 -20.5 -24.5t-17.5 -26.5q-39 -71 -69.5 -145.5t-55.5 -151.5z" />
    <glyph glyph-name="heart" unicode="&#x3c;&#x33;" horiz-adv-x="607"
d="M555 445q2 -28 -5 -56t-19.5 -54.5t-28.5 -51.5t-32 -46q-25 -32 -52 -62.5t-56 -59.5q-7 -8 -19 -19t-24.5 -21.5t-24 -17t-17.5 -5.5q-8 1 -9 3t8 11.5t29 30t55 58.5q14 15 37.5 43.5t47 63.5t43.5 73t27 74t-3.5 65.5t-46.5 46.5q-23 11 -46 -1t-43 -34.5
t-35.5 -49.5t-24.5 -46q-23 -49 -29 -72t-13 -26q-15 -7 -22.5 -8.5t-10 2.5t-1.5 14t1 25q1 29 1 63.5t-4 68.5t-12.5 63.5t-25.5 49.5q-11 13 -28 11t-28 -16q-16 -21 -24 -49t-10 -58t-0.5 -60t3.5 -54q7 -68 32.5 -150.5t82.5 -179.5q14 -24 26 -39t19 -23.5t7.5 -11
t-8.5 -0.5q-23 4 -47 34t-45.5 68.5t-38 76.5t-23.5 58q-25 69 -39 141t-9 145q1 23 6.5 49.5t17.5 48t31.5 35t49.5 10.5q32 -4 51 -27t30 -54t15.5 -64.5t7.5 -57.5q10 22 23.5 46t30.5 44.5t39 34.5t49 17q23 3 46 -3.5t42 -19.5t31.5 -33t14.5 -44zM172 588
q-2 1 -1.5 0.5t1.5 -0.5zM464 522v0v0z" />
    <glyph glyph-name="ef" unicode="ef" horiz-adv-x="730"
d="M750 819q36 0 62.5 -26t26.5 -79q0 -11 -4 -18.5t-19 -7.5q-8 0 -14.5 4t-6.5 12v11q0 35 -15 55t-38 20q-26 0 -48 -22t-39.5 -52.5t-31 -64t-21.5 -57.5q-13 -38 -28.5 -94t-31.5 -115.5t-30.5 -115.5t-24.5 -95q66 27 113.5 42t79.5 22.5t48.5 9.5t19.5 2q8 0 8 -9
q0 -10 -18 -13.5t-53.5 -12t-88 -27t-121.5 -57.5q-6 -20 -14.5 -59t-20 -86.5t-26 -99.5t-32 -99t-39.5 -84.5t-47 -55.5q-16 -11 -34 -17.5t-35 -6.5q-23 0 -39.5 8t-27 22t-15 32.5t-4.5 38.5q0 32 9 64.5t21 55.5q30 57 59.5 101.5t61.5 80.5q-27 -12 -57 -20t-58.5 -11
t-55.5 -1t-48 11q-21 8 -34.5 23t-21.5 31t-11 29.5t-4 19.5q-4 50 13.5 93t44.5 70q22 22 44 32.5t43 4.5q23 -7 27 -30t-18 -58q-8 -12 -22.5 -27.5t-30.5 -31t-30 -28t-20 -17.5q-1 -5 2.5 -16.5t11 -24.5t18.5 -24t26 -16q51 -17 112.5 -4.5t117.5 44.5q21 20 44.5 38
t50.5 37l4 13q11 41 23.5 92t27 106.5t31 112.5t35.5 110t42 99.5t50 81.5q22 27 48.5 40.5t52.5 13.5zM59 195q-5 -11 -6.5 -26t-2.5 -29q15 13 31.5 30.5t29.5 32.5q4 5 11.5 15t13.5 21t8 20.5t-3 14.5q-8 7 -17 5.5t-17 -6.5q-9 -6 -17 -16.5t-14 -22t-10.5 -22.5
t-6.5 -17zM284 -292q15 17 30.5 48t29 69t26 80t22.5 80t17.5 68.5t12.5 46.5q-2 -2 -18 -13t-39 -32q-26 -24 -58 -62.5t-60.5 -83t-47.5 -92t-19 -90.5q0 -23 7.5 -39.5t30.5 -16.5q14 0 30.5 8.5t35.5 28.5z" />
    <glyph glyph-name="eft" unicode="eft" horiz-adv-x="1013"
d="M1032 122q7 4 9.5 2t2 -7t-5.5 -12t-13 -13q-10 -7 -29 -20t-42.5 -26.5t-50.5 -26t-53.5 -18t-50.5 -2.5t-42 20q-14 13 -16 46.5t2.5 71t11.5 72t11 49.5q-38 -10 -71 -21.5t-66 -26.5t-68.5 -34t-79.5 -44q-6 -20 -14 -59t-19.5 -86.5t-26 -99.5t-32.5 -99
t-39.5 -84.5t-47.5 -55.5q-26 -19 -56 -23t-55 10q-25 13 -34.5 39t-8.5 56.5t9.5 61.5t20.5 53q31 59 60.5 103.5t62.5 81.5q-28 -13 -59 -22t-61 -12.5t-58 -1.5t-50 11q-21 8 -34.5 23t-21.5 31t-11 29.5t-4 19.5q-4 50 13.5 93t44.5 70q22 22 44 32.5t43 4.5
q23 -7 27 -30t-18 -58q-8 -12 -22.5 -27.5t-30.5 -31t-30 -28t-20 -17.5q-1 -5 2.5 -16.5t11 -24.5t18.5 -24t26 -16q55 -18 121 -2.5t125 53.5q19 17 40.5 32.5t44.5 32.5q2 5 2.5 7t2.5 6q11 41 23.5 92t27 106.5t30.5 112.5t35.5 110t42.5 99.5t50 81.5q26 33 60 46t64 5
t49 -36.5t16 -76.5q0 -7 -7 -10.5t-15.5 -3.5t-15 3.5t-5.5 12.5q2 33 -8.5 54t-28 28t-39.5 -1.5t-44 -36.5q-12 -16 -23.5 -37t-21.5 -43t-17.5 -42t-11.5 -33q-13 -38 -28.5 -94t-31 -115.5t-30 -115.5t-25.5 -95q27 17 62 34.5t73 32.5t75 27t69 20l2 9q7 32 14.5 63.5
t16.5 63.5q1 5 6.5 9t11 6t10 1t3.5 -6q-2 -11 -6 -32t-8.5 -42.5t-8 -40t-4.5 -24.5h2q29 4 55.5 6.5t46.5 3.5t33 1t16 -1q7 -2 5 -9t-10 -9q-13 -2 -26 -3t-28.5 -3t-36.5 -5t-51 -7q-6 -2 -10 -2q-9 -46 -16.5 -92t-5.5 -91q1 -33 16 -45.5t38.5 -11t52 13.5t56 27
t50.5 30t36 23zM59 195q-5 -11 -6.5 -26t-2.5 -29q15 13 31.5 30.5t29.5 32.5q4 5 11.5 15t13.5 21t8 20.5t-3 14.5q-8 7 -17 5.5t-17 -6.5q-9 -6 -17 -16.5t-14 -22t-10.5 -22.5t-6.5 -17zM290 -291q16 16 31 47.5t29 69.5t26 80t22.5 80t18 68.5t12.5 46.5
q-2 -2 -18.5 -13t-39.5 -32q-28 -26 -62.5 -68t-63.5 -91t-46.5 -100t-9.5 -95q2 -13 11 -21t23 -8.5t31 8t36 28.5z" />
    <glyph glyph-name=".notdef" horiz-adv-x="500"
 />
    <glyph glyph-name="NULL" horiz-adv-x="0"
 />
    <glyph glyph-name="NULL" horiz-adv-x="0"
 />
    <glyph glyph-name="nonmarkingreturn" unicode="&#xd;" horiz-adv-x="500"
 />
    <glyph glyph-name="space" unicode=" " horiz-adv-x="314"
 />
    <glyph glyph-name="E" unicode="E" horiz-adv-x="605"
d="M476 846q26 -5 41 -15t15 -17q0 -4 -8 -4q-17 0 -35.5 5t-37.5 5q-43 0 -88.5 -15t-83 -37.5t-61.5 -50t-24 -52.5q0 -14 9.5 -23.5t25.5 -15.5t35.5 -8.5t39.5 -2.5q21 0 42.5 2t40.5 5.5t34 7.5t23 8v-1l7 3q2 1 5 1q8 0 13 -7t5 -15q0 -13 -14 -13
q-69 -24 -140.5 -64.5t-129 -94t-94 -118t-36.5 -136.5q0 -40 14 -68.5t38 -47t56.5 -27.5t69.5 -9q57 0 111 16.5t105 44t98 62t88 70.5q6 6 14.5 9t14.5 3q10 0 10 -6q0 -4 -10 -13q-45 -39 -96 -79.5t-107 -73t-116 -53t-123 -20.5q-41 0 -80.5 8.5t-70.5 29t-49.5 55
t-18.5 86.5q0 64 27 123t70.5 110t99.5 93.5t115 74.5q-26 -3 -51 -3q-24 0 -46 3.5t-38.5 11.5t-26.5 21.5t-10 34.5q-1 8 1.5 17.5t7.5 20.5q16 36 47.5 66t70 51.5t81 33t81.5 11.5q19 0 39 -3z" />
    <glyph glyph-name="F" unicode="F" horiz-adv-x="488"
d="M245 708q-7 -4 -14 -4q-9 0 -15 4.5t-6 11.5q0 11 13 18q40 22 89.5 41.5t101 36t101.5 29t91 21.5t69 14t35 5q8 0 8 -4q0 -10 -31 -18q-89 -23 -168.5 -45t-158.5 -54l2 -2q-1 -88 -4 -178.5t-11 -181.5q40 18 82 34t79 28.5t64 20.5t36 10q5 1 14 1q19 0 19 -8
q0 -5 -25 -13.5t-66.5 -23t-95 -35t-111.5 -50.5q-10 -83 -25.5 -163t-40.5 -157q-10 -30 -24 -65.5t-35 -67t-49.5 -52.5t-67.5 -21q-26 0 -45 10.5t-31 28.5t-18 42.5t-6 53.5q0 41 9 81t22 66q16 33 41.5 67.5t59 67.5t74 63.5t85.5 54.5q11 92 15 184t5 183
q-17 -8 -33.5 -16.5t-33.5 -17.5zM261 173q8 40 14.5 80t11.5 82q-44 -26 -88.5 -63.5t-81 -83t-59.5 -96.5t-23 -103q0 -50 18 -80.5t44 -30.5q34 0 60.5 28.5t47 72t34 95.5t22.5 99z" />
    <glyph glyph-name="G" unicode="G" horiz-adv-x="614"
d="M548 850q17 -1 17 -10q0 -7 -10 -13.5t-23 -6.5h-11q-37 0 -74 -17t-71.5 -42.5t-65 -55.5t-53.5 -55q-28 -30 -52 -59t-46 -61t-43 -70t-42 -86q-8 -19 -13.5 -44.5t-5.5 -52.5q0 -21 4 -41t13 -35.5t23.5 -24.5t35.5 -9q22 0 49 10q55 21 102 57t86.5 81t73 95.5
t62.5 101.5q4 7 14 11.5t20 4.5q7 0 12 -3.5t5 -11.5v-2q-8 -73 -21 -151.5t-31 -156.5q39 20 80.5 37.5t86.5 30.5q22 6 32 6q5 0 5 -2l-25.5 -13t-60.5 -30t-71 -35.5t-56 -30.5q-20 -81 -42.5 -155.5t-46.5 -136.5q-13 -34 -34.5 -65.5t-48.5 -56t-59.5 -39.5t-68.5 -15
q-53 0 -78.5 23t-25.5 54q0 23 10 49t25 51t31.5 45.5t28.5 33.5q51 53 118 111t149 109q13 58 22 115.5t17 116.5q-32 -47 -71 -93t-83 -84.5t-93.5 -66.5t-102.5 -40q-15 -4 -32 -4q-27 0 -47.5 11.5t-33.5 30.5t-19.5 43.5t-6.5 50.5q0 12 1 24t4 23q12 55 35.5 107.5
t54.5 101.5t68 93.5t77 83.5q29 28 62 57.5t70 52.5t77.5 38t83.5 15h13zM414 26q8 26 15.5 53t13.5 55q-63 -45 -117.5 -94.5t-94.5 -98t-63 -91.5t-23 -74q0 -44 52 -44q50 0 85.5 31t60.5 76.5t42 96.5t29 90z" />
    <glyph glyph-name="H" unicode="H" horiz-adv-x="813"
d="M901 526q9 5 22 5q17 0 17 -9q0 -6 -12.5 -14t-32.5 -17.5t-45 -19t-49 -18t-46 -15.5t-35 -11q-12 -81 -24 -159t-12 -160q0 -29 0.5 -64.5t5 -72t14 -70.5t27.5 -59q3 -5 3 -9q0 -8 -7.5 -12t-16.5 -4q-6 0 -11.5 2t-8.5 7q-18 26 -28.5 57.5t-16.5 65t-7.5 67
t-1.5 63.5q0 85 8.5 167.5t22.5 163.5q-75 -23 -149 -45.5t-146 -54.5q-3 -1 -5.5 -2t-4.5 -2q-5 -23 -13 -61t-21 -81.5t-32.5 -88.5t-47.5 -81t-65 -59t-85 -23t-72.5 27t-24.5 60q0 36 22 76t53 76.5t64 66t55 43.5q31 20 63 37t64 31q16 75 26 143.5t17.5 135t14.5 133
t19 137.5q7 6 15 11q6 4 13 7.5t12 3.5q6 0 6 -7v-3q-21 -133 -35.5 -269.5t-38.5 -271.5q73 28 149 48.5t152 43.5q14 79 32 157.5t38 159.5q10 7 19 13q8 5 16 9t13 4q4 0 4 -5v-3q-20 -79 -37.5 -158.5t-31.5 -160.5q45 14 89.5 31t86.5 38zM263 107q15 39 27.5 84
t22.5 92q-46 -23 -87.5 -51.5t-76.5 -68.5q-14 -15 -29.5 -34t-29.5 -39.5t-23 -42.5t-9 -44q0 -29 15 -41.5t35 -12.5q33 0 59 18t45.5 43.5t32 52.5t18.5 44z" />
    <glyph glyph-name="I" unicode="I" horiz-adv-x="199"
d="M0 -3q18 69 34.5 149.5t30.5 163t25.5 164t21 153t16 130t10.5 95.5q1 1 5 1q8 0 20 -9t12 -18v-2q-2 -25 -8 -71t-14.5 -104.5t-18 -126.5t-20 -136t-20 -132.5t-18 -117.5t-14.5 -90t-8 -50q-8 -4 -16.5 -8.5t-16.5 -4.5q-13 0 -21 14z" />
    <glyph glyph-name="J" unicode="J" horiz-adv-x="687"
d="M485 858q9 3 18 7q8 3 16 5.5t15 2.5q12 0 12 -10q-20 -165 -46 -330.5t-73 -326.5q87 29 175.5 47t166.5 20q15 0 15 -4q0 -6 -29.5 -11t-80 -14t-117 -25t-139.5 -45q-9 -29 -18.5 -57t-19.5 -56q-10 -26 -24 -59.5t-33 -67.5t-43 -66.5t-52.5 -57.5t-61.5 -40.5
t-71 -15.5q-51 0 -72.5 25.5t-21.5 63.5q0 63 35 115.5t89 95t119.5 75.5t127.5 57l23 91q37 144 54.5 288t35.5 293zM160 -200q37 21 68 58.5t55.5 85t44 101t34.5 106.5q-83 -37 -149.5 -81t-98.5 -82q-22 -26 -41 -59t-19 -71q0 -34 22.5 -50t48.5 -16q19 0 35 8z" />
    <glyph glyph-name="K" unicode="K" horiz-adv-x="733"
d="M871 -160q16 -4 26 -12.5t10 -14.5q0 -5 -7 -5q-1 0 -2 0.5t-2 0.5q-74 12 -152.5 48t-150.5 96.5t-131 146.5t-92 197l-2 -8q-14 -48 -33.5 -101t-48.5 -99.5t-69 -81.5t-95 -48q-14 -3 -26 -3q-18 0 -35 5t-30.5 15.5t-21.5 26.5t-8 37q0 31 18.5 63t48 63t66.5 60.5
t75 55.5t73 48t60 38l8 35q22 105 35.5 209.5t24.5 210.5q1 8 11.5 12.5t20.5 4.5q6 0 10.5 -2t4.5 -7v-2q-11 -106 -24 -212t-36 -212q38 26 90.5 65t110.5 90.5t117.5 117t111.5 144.5q2 4 9 8t15.5 7t17.5 5t15 2q9 0 9 -5q0 -2 -1 -4q-44 -66 -94 -123.5t-106 -109.5
t-116 -100t-123 -94l-49 -36q28 -126 79 -218.5t114 -157t134 -102.5t140 -54zM156 0q38 24 66.5 60.5t49.5 79.5t35 90.5t25 92.5q-55 -36 -105.5 -70.5t-89.5 -68t-62 -66t-23 -65.5q0 -35 18.5 -51t40.5 -16t45 14z" />
    <glyph glyph-name="L" unicode="L" horiz-adv-x="708"
d="M820 833q1 0 -2 -2t-8 -4t-11 -3.5t-11 -1.5q-8 0 -11 3q-20 18 -39 18q-23 0 -44 -20.5t-40.5 -53t-36 -72t-30 -77t-23.5 -68.5t-15 -46q-30 -87 -54 -156.5t-47 -124t-47.5 -96t-55.5 -71.5q24 -17 51 -36.5t56 -37.5t58.5 -33t57.5 -22q45 -11 87.5 -15.5t77.5 -4.5
q39 0 65 3.5t38 3.5q13 0 13 -3q0 -5 -15.5 -9.5t-37.5 -8.5t-46.5 -6t-41.5 -2q-49 0 -97 7.5t-90 19.5q-55 16 -104 48.5t-104 68.5q-31 -23 -73 -40t-93 -17q-23 0 -49 5.5t-47.5 18t-35.5 33t-14 49.5q0 19 9 35t23 27.5t32.5 18t37.5 6.5q21 0 46.5 -7t53 -19t55.5 -28
t55 -33q38 45 71 121t63.5 163.5t61.5 177t65.5 162t75 118t90.5 45.5q40 0 80 -34zM79 16q14 -9 31 -13t35 -4q33 0 69 13t68 39q-18 12 -39.5 25.5t-44.5 25t-47.5 19t-48.5 7.5q-23 0 -39 -12t-16 -44q0 -21 9 -34.5t23 -21.5z" />
    <glyph glyph-name="M" unicode="M" horiz-adv-x="1172"
d="M1157 47q4 5 16 7.5t22 2.5q12 0 12 -4q0 -2 -2 -4q-13 -15 -32.5 -29.5t-40 -26.5t-39 -21t-29.5 -13l-16.5 -5.5t-23 -6.5t-26.5 -5.5t-26 -2.5q-21 0 -31 9.5t-13.5 23t-3.5 29v27.5v38t-0.5 75.5t-3 93t-7.5 91t-14 69t-23 27.5q-15 0 -35.5 -23.5t-43 -60t-45.5 -82
t-43 -90t-35.5 -83t-23.5 -61.5q-2 -6 -15.5 -11.5t-24.5 -5.5q-12 0 -12 7v2q10 69 18 138t14 139q2 23 5 54.5t5.5 67t4.5 72.5t2 72q0 29 -1.5 54.5t-6 44t-11.5 29.5t-18 11q-14 0 -32.5 -25.5t-40.5 -67.5t-46 -97.5t-48 -114.5t-46 -119t-40.5 -111t-32 -90t-19.5 -57
q-2 -6 -15.5 -11.5t-24.5 -5.5q-12 0 -12 8q0 14 4.5 32t9.5 33q9 29 26 89.5t34.5 142.5t31.5 179.5t16 200.5q0 15 -2 43.5t-10 57t-23 50t-41 21.5q-15 0 -30 -7q-36 -17 -69 -45.5t-62 -64t-54 -73.5t-46 -74q-2 -3 -7.5 -5.5t-12.5 -4.5t-13.5 -3t-10.5 -1h-2
q-1 0 -1 1v1q23 40 50.5 82t59.5 80t69 70.5t80 53.5q39 18 67 18q29 0 49 -16.5t32 -45t17.5 -67t5.5 -81.5q0 -52 -3.5 -95.5t-10 -83t-14.5 -78t-17 -80.5q4 13 10.5 30.5t15 37.5t17.5 41t17 41q4 10 14.5 33t24.5 50.5t31.5 57t36.5 53.5t38.5 39.5t38.5 15.5
q21 0 35 -14t22 -35.5t11.5 -47.5t4.5 -51t0.5 -46t-0.5 -31q0 -84 -6.5 -166t-16.5 -165q27 49 55 100.5t56.5 93.5t56.5 69t54 27q22 0 43 -25q11 -14 18 -49t11.5 -80t7 -95.5t4 -95t2 -78t2.5 -44.5q2 -20 12 -27.5t24 -7.5q17 0 38 9t41 21.5t36.5 26.5t25.5 24z" />
    <glyph glyph-name="N" unicode="N" horiz-adv-x="1004"
d="M1058 16q10 5 24 5q11 0 11 -4q0 1 -12 -7.5t-32.5 -22t-46.5 -29t-54.5 -29.5t-57 -23t-53.5 -9q-38 0 -57 27.5t-26.5 67t-7.5 83.5v77q-1 26 -0.5 75.5t-0.5 108.5t-4.5 120t-11 111.5t-19.5 82.5t-31 32q-13 0 -28 -12.5t-30 -30t-28.5 -37t-22.5 -33.5
q-84 -137 -147.5 -273.5t-120.5 -277.5q-3 -7 -15.5 -12t-23.5 -5q-13 0 -13 8v2q21 80 42.5 162.5t39.5 165.5t29 166.5t11 166.5q0 29 -4 62.5t-14 62.5t-26 48.5t-41 19.5q-26 0 -56.5 -12t-62.5 -30.5t-63 -40.5t-57 -42q-5 -3 -14 -5t-17 -2q-16 0 -16 6q0 2 6 7
q30 23 66 48t75.5 46t80.5 34.5t82 13.5q30 0 50 -14.5t32 -37.5t18 -50.5t8 -54.5t2 -49.5v-34.5q0 -90 -14 -178.5t-35 -177.5q35 72 73 140.5t83 133.5q8 12 26.5 36.5t42.5 49.5t50.5 43.5t50.5 18.5q27 0 43.5 -23.5t26 -58t13.5 -72.5t6 -67q5 -68 6 -135t3 -135
q1 -38 0 -87.5t4.5 -94.5t22 -76t51.5 -31q22 0 47 9.5t50 22.5t47.5 27.5t39.5 23.5z" />
    <glyph glyph-name="O" unicode="O" horiz-adv-x="498"
d="M212 742q4 5 14.5 8.5t20.5 3.5q14 0 14 -6q0 -1 -2 -5q-38 -56 -75.5 -119.5t-67 -130.5t-48 -136t-18.5 -136q0 -45 11 -81t30.5 -60.5t46 -37.5t57.5 -13q38 0 70.5 18t58.5 48.5t45.5 70.5t33 82.5t20 85.5t6.5 80q0 73 -14.5 132.5t-42.5 108.5t-69 89t-94 74
q-2 2 -2 3q0 5 14 11.5t25 6.5q4 0 10 -2q109 -69 167 -169.5t58 -231.5q0 -42 -7.5 -90.5t-23 -97t-40 -93t-58.5 -78.5t-78 -54.5t-99 -20.5q-42 0 -74.5 16.5t-54 46.5t-33 71t-11.5 90q0 67 19.5 136t49.5 135.5t67.5 128.5t73.5 116z" />
    <glyph glyph-name="P" unicode="P" horiz-adv-x="492"
d="M143 823q-11 4 -11 11q0 8 10.5 16t21.5 8q5 0 8 -1q38 -13 83.5 -33.5t92 -46.5t89.5 -57t76.5 -66.5t54 -74t20.5 -79.5q0 -34 -17.5 -61t-45.5 -49t-63.5 -40t-70.5 -32.5t-66.5 -26.5t-52.5 -23q-11 -64 -30 -125q-9 -29 -24 -65.5t-36.5 -68.5t-50.5 -54t-67 -22
q-32 0 -47.5 24.5t-15.5 55.5q0 24 10 49q32 77 89.5 129t131.5 89q7 46 12 105.5t8 121.5t4.5 119.5t1.5 99.5q0 14 -0.5 26t-0.5 21q-35 17 -64.5 29.5t-49.5 20.5zM527 447q12 25 12 51q0 35 -20 69.5t-52.5 66t-74 60t-83.5 52.5q0 -111 -8.5 -224.5t-23.5 -220.5
q32 13 70 27t73.5 31.5t64.5 39t42 48.5zM101 -29q31 16 52.5 51.5t35.5 77t22.5 81t13.5 63.5q-51 -29 -92.5 -68.5t-67.5 -94.5q-8 -17 -14.5 -33.5t-6.5 -34.5q0 -20 9 -34t26 -14q10 0 22 6z" />
    <glyph glyph-name="Q" unicode="Q" horiz-adv-x="550"
d="M514 -89q10 -1 10 -5q0 -7 -13.5 -14t-22.5 -7q-57 9 -113.5 45.5t-103.5 84.5l-8 -3q-42 -13 -80 -13q-44 0 -77.5 16.5t-56.5 46.5t-35 71t-12 90q0 68 20 137t52 135.5t71.5 129t77.5 117.5q4 5 15 8.5t21 3.5q14 0 14 -6q0 -1 -2 -5q-39 -57 -78 -120.5t-70 -131
t-50.5 -136t-19.5 -135.5q0 -45 11.5 -81t31.5 -61t47.5 -38.5t60.5 -13.5q23 0 49 8q-20 23 -37 45.5t-29 45.5q-1 1 -1 3q0 7 11 12t22 5q7 0 16 -10t19 -24t20 -29.5t19 -27.5q42 28 71.5 69.5t48.5 89.5t28 99.5t9 99.5q0 74 -15 134t-44.5 109t-72.5 89t-98 74
q-2 2 -2 3q0 5 14 11.5t27 6.5q4 0 10 -2q114 -69 175 -169.5t61 -231.5q0 -51 -11 -109.5t-34 -114.5t-60 -103.5t-88 -75.5q42 -48 93.5 -82.5t108.5 -39.5z" />
    <glyph glyph-name="R" unicode="R" horiz-adv-x="673"
d="M823 -172q15 -4 24 -12.5t9 -13.5q0 -4 -6 -4h-3q-70 11 -144.5 45.5t-142.5 92t-123.5 138t-86.5 185.5q-2 -4 -2 -7q-14 -46 -32.5 -96t-45.5 -94t-65 -76.5t-90 -44.5q-12 -3 -25 -3q-17 0 -33 5t-28.5 14.5t-20 24.5t-7.5 35q0 29 17.5 59t45.5 59.5t63 57.5t71 52.5
t69 45.5t57 36q10 57 18.5 104t15 92t12.5 91.5t12 100.5q1 7 11 12t20 5q14 0 14 -11q-5 -51 -10 -98t-11 -92t-14 -89.5t-18 -90.5l1 -1q32 15 70 30t76 30.5t73.5 33t63 38.5t44 46.5t16.5 56.5q0 40 -43 76q-44 35 -93.5 58t-102 41t-106 34t-103.5 37q-9 4 -9 10
q0 7 8 12.5t17 5.5q5 0 7 -1q62 -26 125.5 -44t126.5 -43q32 -13 69.5 -29.5t70 -39.5t54.5 -53t22 -69q0 -33 -19.5 -61.5t-51 -53t-71.5 -45t-82 -38.5t-82 -33.5t-71 -28.5q28 -116 75.5 -202t107 -145.5t125.5 -94.5t131 -50zM148 -21q36 23 62.5 57.5t46 75.5
t33.5 85.5t24 87.5q-51 -35 -99 -67t-85 -63.5t-59 -62.5t-22 -62q0 -33 17.5 -49t38.5 -16t43 14z" />
    <glyph glyph-name="S" unicode="S" horiz-adv-x="475"
d="M555 702q0 -5 -5.5 -7.5t-12.5 -2.5q-8 0 -15.5 3t-9.5 9q-11 30 -38 56.5t-63 46t-77 31t-79 11.5q-32 0 -62.5 -7t-54.5 -24t-39 -45.5t-15 -71.5q0 -35 10 -73t25 -76.5t32.5 -75.5t32.5 -70q18 -41 38.5 -84t39 -87t32.5 -89t20 -90q52 25 105 52.5t111 65.5
q7 4 18 4q9 0 9 -4q0 -3 -9 -9q-71 -45 -125.5 -75t-106.5 -56q0 -5 0.5 -9.5t0.5 -9.5q0 -44 -19 -89.5t-51.5 -82.5t-75.5 -60t-90 -23q-15 0 -29 4t-25.5 12.5t-18.5 22.5t-7 35q0 26 15 47t37 38.5t47 31t44 23.5q32 17 62.5 32t61.5 29q-7 61 -30 125.5t-52.5 130
t-61 131.5t-55.5 130q-12 32 -22 68t-10 72q0 49 21 83t54 55.5t73 31t78 9.5q44 0 89.5 -10t85.5 -30t71 -52t46 -75v-2zM202 -160q36 38 51.5 78.5t15.5 83.5v9q-23 -11 -47 -24t-50 -27q-17 -9 -38.5 -20t-41 -25t-32.5 -32t-13 -40q0 -25 16.5 -40.5t38.5 -15.5
q13 0 27.5 5t28 13t25 17t19.5 18z" />
    <glyph glyph-name="T" unicode="T" horiz-adv-x="464"
d="M725 872q13 0 13 -6q0 -4 -4.5 -9t-10.5 -9.5t-13 -8t-13 -3.5q-89 -5 -164.5 -19.5t-146.5 -31.5q-8 -112 -19 -223t-32 -222q-11 -54 -26 -116.5t-34.5 -115.5t-42.5 -88.5t-48 -35.5q-8 0 -13 2.5t-5 7.5q0 6 4 11q24 32 44 76.5t36.5 97.5t29.5 111.5t23 118.5
q8 50 15.5 95t13.5 89t11 88.5t9 94.5q-80 -20 -157 -38t-165 -26l-12 -2q-17 1 -17 10q0 6 5 12.5t12 12t14.5 9.5t13.5 4q86 5 170 21.5t167.5 35.5t167.5 35.5t170 21.5h4z" />
    <glyph glyph-name="U" unicode="U" horiz-adv-x="886"
d="M34 794q-10 -4 -15 -4q-8 0 -13 2.5t-5 6.5q0 6 14 13q107 49 181.5 78.5t128.5 29.5q48 0 66.5 -24.5t18.5 -69.5q0 -27 -5.5 -59.5t-13 -68.5t-16 -73.5t-15.5 -74.5q-12 -69 -28 -135.5t-28 -134.5q-2 -14 -6 -32.5t-8 -39.5t-7 -43.5t-3 -43.5q0 -15 2.5 -30.5
t7.5 -28t14 -21t21 -8.5q18 0 41 17.5t47.5 44.5t49 59.5t45.5 63t36 54.5t21 35q72 130 122 271q3 11 6 25t11 25l1 4h1q5 6 12.5 10t18.5 4q12 0 12 -6q0 -1 -0.5 -1.5t-0.5 -1.5h1l-1 -1q-1 -5 -3.5 -11.5t-2.5 -10.5q-14 -47 -28.5 -106t-25.5 -123t-18 -129.5
t-7 -124.5q0 -18 -0.5 -39.5t3.5 -39.5t14 -30t31 -12q32 0 85 25.5t125 83.5q4 4 11 6t12 2q8 0 8 -5l-12.5 -11.5t-33 -28t-47.5 -36t-57 -36.5t-61 -28t-58 -11q-42 0 -57 34t-15 107q0 53 6.5 113.5t15.5 114.5q-4 -6 -5 -9q-35 -64 -77 -123t-85.5 -104.5t-85.5 -73
t-76 -27.5q-21 0 -34.5 10.5t-21.5 26.5t-11 35.5t-3 37.5q0 63 16 147.5t37 176.5t41.5 184t29.5 170q1 5 1 10.5v10.5q0 22 -6 36t-16 22t-22 11t-25 3q-18 0 -33.5 -3.5t-22.5 -5.5q-43 -12 -90 -32.5t-110 -48.5z" />
    <glyph glyph-name="V" unicode="V" horiz-adv-x="450"
d="M1 744q-1 5 10 9t22 4q16 0 16 -9v-46q0 -41 0.5 -87t1.5 -94t3 -96.5t4 -93.5q1 -32 2.5 -70.5t6.5 -77.5t16.5 -75t33.5 -63q21 10 41.5 29t38.5 41t33.5 44t26.5 39q35 53 67.5 110t60.5 114q60 121 108.5 236.5t93.5 242.5q8 3 15 6q6 2 12.5 4t11.5 2q7 0 7 -4
q0 -1 -0.5 -1.5t-0.5 -1.5q-56 -146 -117 -293.5t-137 -283.5q-35 -62 -73 -120.5t-84 -112.5q-11 -12 -24 -27.5t-28.5 -29t-32 -23t-33.5 -9.5q-11 0 -18 6q-26 27 -40.5 63.5t-21 76.5t-8.5 81t-4 76q-5 109 -7.5 217t-2.5 217z" />
    <glyph glyph-name="W" unicode="W" horiz-adv-x="1086"
d="M51 644q-6 -6 -20.5 -8.5t-23.5 -2.5q-6 0 -6 1q28 33 64 61t75.5 48t80.5 31.5t79 11.5q42 0 69 -20.5t27 -75.5q0 -22 -2.5 -43.5t-4.5 -36.5q-7 -64 -19 -128t-23 -128t-19.5 -128.5t-8.5 -129.5q0 -26 7 -48.5t16 -22.5q12 0 28 12.5t33 31.5t33 41t29 41
q54 80 103.5 164.5t99.5 167.5q3 4 18.5 9t25.5 5q6 0 6 -3q-4 -37 -6 -73.5t-2 -73.5q0 -43 3 -85q1 -23 4.5 -61t14.5 -74.5t34.5 -63t65.5 -26.5q11 0 22.5 2.5t22.5 9.5q39 23 68 66.5t49.5 96t34 108.5t21.5 106q6 35 10.5 73t7.5 76t5 75t2 69q0 47 -4.5 80.5
t-14.5 44.5q-1 1 -1 3q0 7 11 14t19 9q14 0 21.5 -44.5t7.5 -120.5q0 -41 -2.5 -87.5t-8.5 -96t-15 -99t-21 -96.5t-32 -102.5t-51.5 -104.5t-75.5 -81.5t-105 -32.5q-45 0 -73 27.5t-44 71t-22 98t-6 107.5q0 48 3 90q-38 -63 -77 -124t-81 -121q-17 -24 -36 -50.5
t-41 -49.5t-47 -38t-53 -15q-32 0 -45 24.5t-13 82.5q0 54 7.5 108.5t17.5 108.5t21 108t18 107q4 29 8.5 61t4.5 64q0 51 -16 76t-51 25q-29 0 -63 -13.5t-66.5 -33t-59 -40t-38.5 -35.5z" />
    <glyph glyph-name="X" unicode="X" horiz-adv-x="509"
d="M464 674q4 5 13.5 8.5t18.5 3.5q6 0 10.5 -1.5t4.5 -5.5q0 -2 -2 -6q-63 -94 -126 -185t-127 -183q14 -42 30.5 -82t33.5 -79q16 -36 35.5 -77.5t43 -83t51 -80.5t60.5 -70.5t71.5 -53.5t83.5 -29q3 0 3 -2q0 -5 -13 -10.5t-21 -5.5q-62 10 -113.5 48.5t-93 91t-74 111.5
t-56.5 110q-20 42 -37.5 84t-33.5 86q-45 -63 -89 -126t-89 -126q-4 -5 -14 -8t-18 -3q-6 0 -10.5 1.5t-4.5 4.5t3 6q52 74 104 147t103 147q-48 140 -79.5 283t-48.5 291q0 7 13 12t25 5q10 0 10 -4q17 -137 43 -273.5t68 -269.5q56 81 111 162t111 162z" />
    <glyph glyph-name="Y" unicode="Y" horiz-adv-x="890"
d="M45 768q-4 -3 -13 -5t-17 -2q-14 0 -14 5q0 2 5 7q62 52 136 86t155 34q36 0 59 -7t36.5 -21t19 -36t5.5 -53q0 -41 -7 -81t-11 -64q-11 -71 -24 -141t-13 -141q0 -48 20 -69.5t49 -21.5q29 1 60.5 15.5t52.5 29.5q46 34 85 75t72.5 87t61 96t51.5 101q2 6 14.5 10.5
t22.5 4.5q11 0 11 -5v-2q-22 -66 -37.5 -132.5t-29.5 -134t-28 -134t-33 -132.5q49 20 97 39.5t93 43.5q4 2 10 3t12 1q7 0 12 -1.5t5 -3.5q0 -5 -10 -9q-54 -29 -111.5 -52t-114.5 -46q-14 -47 -32.5 -92t-42.5 -90q-21 -39 -49 -83t-62.5 -81t-75.5 -61t-89 -24
q-35 0 -61.5 20.5t-26.5 68.5q0 25 9.5 49.5t23.5 47.5t31.5 43t34.5 36q63 60 139.5 99.5t157.5 72.5l4 11q28 91 44.5 183t36.5 185q-27 -43 -59 -81.5t-69 -70.5q-17 -15 -44 -35.5t-58 -39t-64.5 -31.5t-64.5 -13q-29 0 -48.5 11.5t-31.5 31t-17 44.5t-5 53q0 33 5 67.5
t11.5 67.5t13.5 62t10 50q5 35 12 71.5t7 73.5q0 65 -24 91t-64 26q-30 0 -64 -11.5t-66.5 -28.5t-60 -35.5t-43.5 -31.5zM433 -281q48 27 85.5 69.5t66.5 92.5t51.5 105t39.5 106q-46 -19 -89.5 -40t-84.5 -47q-23 -15 -52 -38.5t-54.5 -53t-42.5 -62t-17 -64.5t17 -55
t45 -23q18 0 35 10z" />
    <glyph glyph-name="Z" unicode="Z" horiz-adv-x="569"
d="M51 684q-2 -2 -8 -2q-8 0 -17.5 3.5t-9.5 8.5q0 8 13 15q68 37 142 63.5t149 43.5q33 8 69.5 15.5t72.5 7.5q8 0 19 -0.5t21.5 -2.5t18 -5.5t7.5 -9.5v-2q-11 -37 -31 -72t-40 -67q-46 -77 -95 -152.5t-98.5 -151.5t-96.5 -153t-88 -158q64 38 136 70t144 57.5t140.5 44
t125.5 30.5q18 3 27 3q13 0 13 -5t-11 -12t-24 -10q-153 -36 -304.5 -92.5t-281.5 -147.5q-9 -7 -26 -7q-7 0 -12 2.5t-5 7.5q0 1 2 7q49 105 109.5 203t123 195t124 194t112.5 200q-4 0 -7.5 0.5t-7.5 0.5q-48 0 -101 -10t-106 -27t-104 -39t-95 -46z" />
    <glyph glyph-name="a" unicode="a" horiz-adv-x="509"
d="M555 134q5 5 12.5 7t14.5 2q11 0 11 -6q0 -4 -6 -10q-20 -19 -52 -44.5t-68.5 -48t-73.5 -38.5t-68 -16q-27 0 -43 11.5t-25 30.5t-12 43t-3 48q-8 -6 -29.5 -24t-50 -37t-59 -34t-54.5 -15q-20 0 -34 14t-14 41q0 35 24.5 77t61 79t78 61.5t76.5 24.5q33 0 51 -24
q3 8 11.5 21t25.5 13q12 0 17 -6q-2 -10 -11 -32t-19 -50t-18 -58t-8 -55q0 -54 17.5 -75.5t44.5 -21.5q24 0 52.5 13.5t56.5 32.5t53 40t41 36zM151 85q12 9 30.5 25t35.5 37t31 44.5t17 47.5q-13 32 -41 32q-26 0 -55.5 -23.5t-54 -56t-41 -67t-16.5 -55.5t18 -21
q11 0 29.5 8.5t46.5 28.5z" />
    <glyph glyph-name="e" unicode="e" horiz-adv-x="338"
d="M371 150q2 2 5 2q4 0 8 -3.5t4 -6.5q0 -2 -1 -2q-21 -20 -52 -44t-67.5 -45.5t-76.5 -36t-79 -14.5q-35 0 -56.5 13.5t-33 31.5t-15.5 36t-5 27q-1 5 -1 16q0 39 13 72.5t32.5 59t42.5 40t43 14.5t31 -11t11 -28q0 -21 -18 -51q-7 -11 -24 -28.5t-34.5 -34.5t-31 -29.5
t-13.5 -14.5q0 -10 4.5 -23.5t13.5 -26t23 -21t34 -8.5q33 0 67.5 11.5t66.5 29t60.5 38t48.5 37.5zM141 274q-5 5 -14 5q-14 0 -25 -10t-19.5 -23.5t-14.5 -28t-9 -22.5q-5 -11 -6.5 -26t-2.5 -29q15 13 31 30.5t30 32.5q4 4 9.5 11.5t10.5 16.5t9 18t4 16q0 6 -3 9z" />
    <glyph glyph-name="b" unicode="b" horiz-adv-x="378"
d="M227 828l12 6q5 2 10.5 4.5t10.5 2.5q9 0 9 -8q0 -13 -13.5 -72t-35 -145.5t-48.5 -190.5t-55 -207l27 25q11 10 27 21.5t34.5 21t38.5 16t38 6.5q34 0 53.5 -21.5t19.5 -50.5q0 -18 -6.5 -38t-16.5 -38.5t-23.5 -34.5t-26.5 -27q-27 -22 -52 -38t-51.5 -27t-56 -19
t-64.5 -14q-7 -14 -13 -23.5t-29 -9.5q-6 0 -10.5 2t-4.5 7q0 2 1 4q7 26 23 81.5t36.5 129t44 159t46 171.5t42.5 165.5t33 141.5zM221 257q-91 -60 -131 -143q-6 -22 -12.5 -43.5t-11.5 -41.5q48 7 91.5 28t76.5 50.5t52.5 64.5t19.5 71q0 14 -8.5 26t-21.5 12
q-10 0 -23 -5.5t-32 -18.5z" />
    <glyph glyph-name="c" unicode="c" horiz-adv-x="359"
d="M266 268q-2 -4 -4 -7q-5 -7 -10 -7t-19.5 9.5t-34.5 9.5q-12 0 -24 -4t-25 -15q-4 -3 -15 -13t-23 -27.5t-21 -43t-9 -61.5q0 -32 16 -52.5t54 -22.5q36 0 72.5 9t72 25.5t68.5 38.5t61 48h1q3 0 6.5 -3t3.5 -6q0 -2 -1 -3q-17 -18 -50.5 -44t-75 -49.5t-86.5 -40
t-85 -16.5q-46 0 -76.5 28t-30.5 74q0 21 6 42.5t15.5 42.5t22 40t25.5 34q26 31 49.5 43t45.5 12q12 0 24.5 -3.5t23 -9t17.5 -11.5t7 -12q0 -4 -1 -5z" />
    <glyph glyph-name="d" unicode="d" horiz-adv-x="541"
d="M556 119q11 9 27 9q11 0 11 -6q0 -4 -6 -10q-20 -19 -47 -42.5t-58 -44.5t-64.5 -35t-65.5 -14q-28 0 -49 10.5t-34.5 28.5t-20.5 42.5t-7 52.5l-19 -15q-9 -7 -29.5 -22.5t-46 -31t-52.5 -27.5t-48 -12q-20 0 -33 14.5t-13 40.5q0 23 11 48.5t29.5 50t42.5 47t50 39.5
t51.5 27t47.5 10q25 0 41 -13q9 29 18 61.5t17 63.5t15.5 56.5t12.5 39.5q23 63 51 131.5t66 125.5l21 31.5t24.5 30t30.5 22.5t39 9q24 0 33.5 -17t9.5 -44q0 -24 -6 -54.5t-15.5 -61t-20.5 -58.5t-20 -48q-21 -48 -48 -98.5t-59 -100t-68 -95.5t-75 -85q-1 -9 -1 -20v-22
q0 -34 6.5 -57.5t17 -37.5t24.5 -20.5t28 -6.5q22 0 47.5 11t50 27.5t46 35.5t37.5 34zM361 443q-6 -20 -13 -46.5t-14 -55.5t-13 -57.5t-12 -52.5q29 34 56 74.5t52 84t47 86.5t40 81t37.5 89.5t31.5 99.5q3 12 3 23q0 17 -6 27.5t-17 10.5q-7 0 -16 -6t-18 -16t-17 -21.5
t-14 -21.5q-40 -71 -70.5 -146.5t-56.5 -152.5zM151 83q25 18 48.5 38t46.5 42q2 13 4 25t4 25q-7 18 -17 25.5t-23 7.5q-23 0 -50.5 -21.5t-51 -51.5t-39.5 -61t-16 -49q0 -19 16 -19q11 0 30 9t48 30z" />
    <glyph glyph-name="g" unicode="g" horiz-adv-x="409"
d="M6 40q-3 10 -3 23q0 25 12 52t31.5 52.5t45 49t52 41t52 27.5t46.5 10q12 0 24 -5q0 11 7 18.5t24 7.5q8 0 13.5 -3t5.5 -9v-3q-14 -56 -32 -109.5t-33 -108.5q45 34 91.5 63.5t96.5 57.5q6 4 14 6t14 2q8 0 8 -4q0 -3 -11 -9q-122 -69 -225 -162q-17 -69 -34 -137
t-34 -138q-7 -30 -19.5 -62t-29.5 -58t-38.5 -42.5t-45.5 -16.5q-39 0 -56.5 27t-17.5 62q0 55 21.5 107t55.5 98.5t74 87t78 72.5q5 20 11.5 40.5t12.5 40.5q-29 -37 -71 -67q-7 -5 -18.5 -12t-25 -13t-28 -10t-27.5 -4q-14 0 -25 6t-16 22zM178 -20q-27 -26 -58.5 -59.5
t-59 -72.5t-45.5 -81.5t-18 -87.5q0 -31 8 -44.5t20 -13.5t27 11t29.5 30.5t27 46t21.5 57.5q8 28 13 51t9 44.5t8.5 43.5t11.5 50zM254 246q4 11 5 19q-8 8 -18 8q-15 0 -35.5 -11.5t-41 -28t-38.5 -35t-28 -31.5q-6 -8 -14.5 -18.5t-16 -22.5t-13 -25t-5.5 -25
q0 -14 5 -19.5t13 -5.5q14 0 29 9.5t20 12.5q53 35 86.5 77t51.5 96z" />
    <glyph glyph-name="h" unicode="h" horiz-adv-x="498"
d="M518 102q12 7 17 7q3 0 3 -3q1 -4 -14 -16q-39 -32 -74.5 -52t-68.5 -20q-32 0 -61 20t-55 66q-9 15 -17 40.5t-15.5 50t-15 42.5t-16.5 18t-19 -14q-38 -52 -73.5 -110t-59.5 -118q-2 -6 -12 -10t-19 -4q-7 0 -12 2.5t-5 7.5q0 1 0.5 1.5t0.5 1.5q8 40 23 100t33 131.5
t39 149t41.5 151t39 139.5t33.5 114q1 5 6.5 12t12.5 13.5t13.5 11t10.5 4.5q3 0 3 -3v-2q-6 -44 -32 -135t-68 -245q-11 -39 -20.5 -80.5t-18 -79t-15.5 -68.5t-12 -50q12 19 25 39.5t28 38t32.5 29t40.5 11.5q21 0 32.5 -11.5t18.5 -30t12 -41.5t13 -45q7 -18 16 -38.5
t21.5 -37.5t28.5 -28t37 -11q16 0 33 6t33 14t30.5 17t25.5 15z" />
    <glyph glyph-name="i" unicode="i" horiz-adv-x="303"
d="M297 115q16 11 29 11q6 0 6 -4q0 -5 -9 -13q-27 -23 -56 -44t-59.5 -37t-61 -25.5t-58.5 -9.5q-50 0 -68 26.5t-18 68.5q0 27 5.5 56.5t12.5 56.5t14.5 48.5t10.5 33.5q2 8 12 14.5t18 6.5q7 0 7 -6q0 -1 -0.5 -1.5t-0.5 -2.5q-3 -12 -9 -33.5t-12.5 -47.5t-11 -54
t-4.5 -53q0 -34 11.5 -56.5t41.5 -22.5q23 0 48.5 8t52 20.5t52 28.5t47.5 31zM70 383q-10 2 -10 13q0 17 13.5 33t33.5 16q6 -1 10.5 -4.5t4.5 -11.5q0 -20 -15 -33.5t-31 -13.5q-4 0 -6 1z" />
    <glyph glyph-name="j" unicode="j" horiz-adv-x="370"
d="M394 155q13 0 13 -5q0 -6 -16.5 -11t-48 -16.5t-77 -33t-104.5 -60.5q-14 -69 -26 -130t-28 -129q-7 -30 -20 -60.5t-30.5 -55.5t-38 -41t-43.5 -16q-21 0 -34.5 10t-21.5 26.5t-11.5 37t-3.5 40.5q0 13 5.5 50.5t28 86.5t68 104t124.5 103q7 31 15 63t15.5 60.5t14 52
t9.5 39.5q8 17 18.5 24t17.5 7q8 0 8 -5l-59 -218q75 36 130 54t90 23h5zM68 -218q7 28 12 49.5t9.5 41.5t8.5 41t10 49q1 7 3 20t4 19q-14 -6 -44.5 -31.5t-61 -65t-54 -90t-23.5 -105.5q0 -38 9.5 -55.5t25.5 -17.5q12 0 26 10t28 28.5t26.5 45.5t20.5 61zM217 370
q-9 1 -9 12q0 17 12.5 32t32.5 15q6 0 10.5 -3.5t4.5 -10.5q0 -20 -14.5 -33t-30.5 -13q-4 0 -6 1z" />
    <glyph glyph-name="k" unicode="k" horiz-adv-x="408"
d="M452 25q22 -4 22 -13q0 -7 -17 -7h-4q-47 4 -96 18.5t-95.5 37t-87 52.5t-70.5 66q-12 -42 -24 -83t-21 -83q-2 -6 -12 -8.5t-20 -2.5q-17 0 -17 4q20 90 46 176t47 176q11 48 19.5 85.5t16 69.5t13 62.5t11 64t10.5 74t11 93.5q2 8 17 16t23 8q3 0 3 -2
q-14 -118 -33.5 -232.5t-42.5 -230.5q-9 -50 -22 -96q47 25 92.5 54.5t78.5 67.5h3q2 0 3.5 0.5t3.5 0.5q5 0 10 -1.5t5 -5.5t-6 -11q-40 -45 -87 -83.5t-99 -67.5q25 -35 58 -66.5t73 -57.5t87.5 -45.5t100.5 -29.5z" />
    <glyph glyph-name="l" unicode="l" horiz-adv-x="304"
d="M2 136q4 43 14.5 94t23.5 101t26 93.5t24 71.5q23 63 50.5 131t64.5 125l21 31.5t24.5 29.5t30 21.5t37.5 8.5q24 0 33.5 -17t9.5 -43q0 -24 -6.5 -54t-15.5 -60.5t-19.5 -58.5t-19.5 -48q-21 -47 -47.5 -97.5t-58 -99.5t-67 -95t-73.5 -84q-1 -9 -1.5 -20.5t-0.5 -22.5
q0 -33 6.5 -56t17 -37.5t23.5 -20.5t27 -6q21 0 44 10t46 24.5t44.5 32t39.5 32t31.5 24.5t20.5 10q5 0 5 -4q0 -6 -12 -20.5t-31.5 -32.5t-45 -37.5t-53.5 -36t-56 -27t-52 -10.5q-52 0 -79 35t-27 94v9.5t1 9.5zM114 452q-6 -19 -13 -45.5t-13.5 -55.5l-13 -58t-11.5 -52
q29 34 55.5 74.5t50.5 83.5t45.5 85.5t39.5 80.5q18 39 37.5 89.5t30.5 98.5q3 12 3 23q0 17 -6 27.5t-17 10.5q-7 0 -15.5 -6.5t-17.5 -16t-16.5 -21t-13.5 -21.5q-40 -71 -70 -145.5t-55 -151.5z" />
    <glyph glyph-name="m" unicode="m" horiz-adv-x="793"
d="M797 102q6 3 15 5t16 2q8 0 8 -3q0 -2 -10 -8q-39 -22 -82 -41t-82 -19q-33 0 -60.5 18t-45.5 65q-10 25 -17.5 50t-16.5 51q-5 0 -12 -5t-14 -12t-13 -14.5t-9 -11.5q-17 -21 -30 -39t-26 -37t-27 -40t-33 -47q-5 -7 -15.5 -10.5t-19.5 -3.5q-13 0 -16 6
q-13 20 -18.5 46t-9 53.5t-5.5 53.5t-6.5 47t-13.5 33.5t-26 12.5q-10 0 -22.5 -7.5t-27.5 -24.5q-27 -30 -50 -64.5t-40 -67t-27 -59t-10 -41.5q0 -8 -12 -13t-23 -5q-14 0 -14 8v2q9 44 18.5 85.5t17.5 82.5t15 82.5t12 86.5q1 9 13.5 19.5t20.5 10.5q5 0 5 -6
q-9 -96 -24 -193q35 49 61 78t46 44t35 19.5t28 4.5q21 0 34 -12.5t21.5 -33.5t13.5 -47.5t8.5 -54t7 -53.5t9.5 -46q3 0 12 13t20.5 30t23.5 35t20 28q12 16 26 35t29.5 35.5t32.5 27.5t36 11q15 0 23.5 -15t14.5 -37t12.5 -48.5t17.5 -48.5t29 -37t48 -15q29 0 57 13
t51 26z" />
    <glyph glyph-name="n" unicode="n" horiz-adv-x="591"
d="M73 310q7 8 13 15q5 6 11 11t9 5q2 0 2 -3q0 -63 -10.5 -123t-23.5 -121q22 31 50 66.5t57.5 66t59 50.5t55.5 20q25 0 39.5 -16.5t23.5 -41t15 -54t15 -54.5q6 -17 11 -32.5t12.5 -27.5t17.5 -19.5t26 -7.5q9 1 20 3.5t25 8.5q47 21 71 36t28 17q7 2 14.5 4.5t10.5 2.5
q1 0 2 -1q0 -2 -5 -7q-14 -14 -34.5 -31t-45.5 -32t-52 -25.5t-53 -10.5q-20 0 -39 7.5t-36 27.5q-8 9 -14.5 29t-12.5 44.5t-12 50t-12 47t-13 35t-16 13.5q-12 0 -30 -14t-38.5 -36.5t-43 -51.5t-44 -59.5t-41 -60.5t-33.5 -53q-3 -5 -15.5 -9.5t-23.5 -4.5q-12 0 -12 7
q0 1 0.5 1.5t0.5 1.5q10 33 21.5 78.5t22 92t18 88.5t9.5 67z" />
    <glyph glyph-name="o" unicode="o" horiz-adv-x="307"
d="M2 75q0 27 9.5 58t22.5 59.5t26 51t19 32.5q-13 1 -13 10q0 8 7.5 14.5t10.5 6.5q27 -6 60.5 -10.5t63 -15.5t49 -32t19.5 -61q0 -35 -15.5 -68.5t-42 -59.5t-61 -42t-72.5 -16q-32 0 -56.5 14.5t-26.5 51.5v7zM226 201q-6 21 -17.5 34.5t-27 21.5t-33.5 11.5t-37 5.5
q-8 -23 -19 -46t-21 -46.5t-17 -47t-7 -47.5q0 -31 18 -44t36 -13q22 0 44.5 12.5t41.5 33t31 45.5t12 50q0 17 -4 30z" />
    <glyph glyph-name="p" unicode="p" horiz-adv-x="401"
d="M365 252q3 -11 3 -22q0 -20 -8.5 -41t-21.5 -40t-28.5 -34.5t-28.5 -25.5q-43 -32 -91.5 -51.5t-101.5 -19.5q-8 0 -14.5 0.5t-14.5 1.5q-15 -109 -36 -214.5t-49 -208.5q-2 -8 -12.5 -13t-21.5 -5q-16 0 -16 10q0 1 0.5 1.5t0.5 1.5q50 182 81 362.5t40 368.5q8 9 16 16
q7 6 13.5 11.5t10.5 5.5t4 -5q0 -56 -6 -112.5t-12 -112.5q21 28 51 58.5t63 55t65 40.5t58 16q20 0 34 -10.5t22 -33.5zM312 220q0 20 -7.5 28t-19.5 8q-14 0 -33 -9t-37 -21t-33 -24.5t-22 -19.5q-26 -26 -53.5 -58.5t-41.5 -65.5q0 -1 -1 -2v-1q-1 0 -1 -3q0 -2 4 -2.5
t9 -0.5q18 0 42 5.5t50 16t51 25t45 32.5t33 39t15 44v9z" />
    <glyph glyph-name="q" unicode="q" horiz-adv-x="303"
d="M146 -392q-2 -7 -6 -12q-3 -5 -6.5 -8.5t-8.5 -3.5q-17 0 -17 45q0 33 7 86t19 118t27.5 139t32.5 148q-52 -52 -93.5 -86t-73.5 -34q-28 0 -41 19t-13 39q0 15 5 31t11.5 30t13.5 25t11 16q19 24 42.5 49t49 44.5t51 32t49.5 12.5q17 0 26 -6l3 12q2 8 13 13t22 5
q12 0 12 -8v-3q-11 -45 -25.5 -104t-30 -123.5t-31 -130.5t-27.5 -125.5t-19.5 -108t-7.5 -78.5q0 -11 1 -19.5t4 -13.5zM98 76q57 38 85.5 81t38.5 91q-8 19 -30 19q-23 0 -52.5 -20.5t-55.5 -49.5t-44 -62.5t-18 -58.5q0 -24 20 -24q10 0 23.5 5.5t32.5 18.5z" />
    <glyph glyph-name="r" unicode="r" horiz-adv-x="338"
d="M350 279q0 -3 -4 -3q-5 0 -18.5 3.5t-27.5 3.5q-21 0 -42 -7t-40 -17.5t-35 -22.5t-26 -21q-23 -21 -40 -42t-29.5 -44t-21 -50t-13.5 -61q-1 -6 -15 -11t-25 -5q-12 0 -12 5q0 6 1.5 12t1.5 11q14 54 30 127.5t27 151.5q2 12 16 20.5t21 8.5q4 0 4 -3q0 -14 -3 -36
t-6 -44.5t-6.5 -43t-5.5 -31.5q42 61 100.5 91.5t114.5 30.5q20 0 34.5 -4.5t19.5 -15.5v-3z" />
    <glyph glyph-name="s" unicode="s" horiz-adv-x="332"
d="M234 300q2 -2 5.5 -10t3.5 -13q0 -1 -1 -2q-3 0 -11 5t-20 11t-27 11t-33 5q-31 0 -56.5 -17.5t-25.5 -45.5q0 -9 3 -16q6 -24 17 -46.5t23.5 -44.5t24.5 -44.5t20 -46.5q56 27 109 48t84 38q6 3 15 3q5 0 8.5 -1.5t3.5 -4.5q0 -4 -10 -10q-48 -30 -100.5 -50t-102.5 -46
q5 -23 5 -43t-7 -43t-20.5 -43t-33 -33.5t-43.5 -13.5q-35 0 -49.5 16t-14.5 33q0 20 10.5 39t27 36t36.5 30.5t38 22.5q-9 27 -23 54.5t-27.5 54.5t-23.5 52.5t-10 49.5q0 15 7.5 32t22.5 32t38.5 24.5t55.5 9.5q21 0 42 -7.5t39 -25.5zM101 -103q13 14 18 30.5t5 33.5
q0 9 -1 18.5t-3 18.5q-9 -6 -24 -17t-29.5 -24t-24.5 -28t-10 -29q0 -12 8.5 -18.5t19.5 -6.5t22 5.5t19 16.5z" />
    <glyph glyph-name="u" unicode="u" horiz-adv-x="513"
d="M441 22q-17 -9 -44.5 -20t-56.5 -11q-48 0 -63.5 30t-15.5 79q0 16 1 31.5t3 30.5q-20 -29 -43 -58t-48.5 -52t-53 -37.5t-55.5 -14.5q-35 0 -48.5 20t-13.5 57q0 29 6.5 63.5t15.5 67t17.5 59t11.5 40.5q2 7 14.5 11.5t23.5 4.5q12 0 12 -7v-1q-6 -24 -14.5 -51
t-16.5 -55.5t-13.5 -57t-5.5 -55.5q0 -10 1 -21.5t4 -21t8 -15.5t13 -6q14 0 33.5 13.5t38.5 31.5t34.5 36t21.5 26q12 16 23 38t23.5 42t27.5 34t35 14q7 0 7 -5v-4q-3 -26 -9.5 -65.5t-6.5 -78.5q0 -17 1.5 -33.5t7 -30.5t15 -22.5t24.5 -8.5q21 0 48 12.5t53 29t48.5 33
t34.5 24.5q5 2 14.5 5.5t14.5 3.5q4 0 4 -2q0 -3 -6 -7q-31 -25 -61.5 -52t-64.5 -44z" />
    <glyph glyph-name="v" unicode="v" horiz-adv-x="304"
d="M268 334q2 4 13.5 8t19.5 4t8 -4q0 -1 -0.5 -1.5t-0.5 -1.5q-22 -54 -55.5 -114t-69.5 -111t-70 -84t-58 -33q-15 0 -24 14t-13.5 37t-6.5 52.5t-3 60.5t-2 61.5t-5 54.5q0 6 9.5 12.5t18.5 6.5q6 0 9 -18t4.5 -45.5t2.5 -59t3.5 -59t7.5 -45.5t15 -18t27 16.5t37.5 42
t41.5 57.5t39.5 63.5t32.5 59t19 44.5z" />
    <glyph glyph-name="w" unicode="w" horiz-adv-x="506"
d="M471 347q2 8 13 14t19 6q7 0 7 -4v-2q-5 -15 -11.5 -47.5t-17 -71.5t-25.5 -80t-35 -75t-45.5 -55.5t-58.5 -21.5q-26 0 -45.5 19t-33.5 48t-24 63t-17 65q-13 -20 -30 -46t-37 -52.5t-42.5 -52.5t-46.5 -46q-9 -7 -21 -7q-8 0 -13.5 3.5t-5.5 11.5q0 10 2 19t5.5 31.5
t8.5 66t10 123.5q0 5 11.5 14t20.5 9q8 0 8 -9q0 -23 -0.5 -49.5t-2 -53.5t-3.5 -53.5t-4 -48.5q42 44 74 92.5t57 115.5q2 7 11.5 10.5t17.5 3.5q14 0 15 -9q1 -27 8.5 -64.5t20 -71.5t30.5 -58t42 -24q19 0 40 18t39 63q24 60 36 98.5t17 61.5t5 33t1 13z" />
    <glyph glyph-name="x" unicode="x" horiz-adv-x="356"
d="M457 -200q5 5 16.5 8t19.5 3q7 0 7 -3t-6 -7q-29 -24 -55.5 -35t-50.5 -11q-45 0 -82 34t-66 87t-51.5 117t-38.5 123q-35 -28 -73 -55.5t-80 -56.5q-4 -4 -13 -4q-7 0 -12.5 2.5t-5.5 6.5t7 8q41 27 67 46t43.5 33.5t30 26t27.5 24.5q-5 18 -11 41l-12 46t-11.5 42.5
t-8.5 29.5v2q0 8 13 13t24 5q10 0 13 -5l34 -142q21 16 37 30t30.5 26t28 21t29.5 17q1 0 2.5 0.5t3.5 0.5q9 0 21 -4t12 -10q0 -3 -5 -6q-25 -18 -42.5 -30t-33 -23t-32.5 -23.5t-41 -31.5q11 -38 23.5 -79.5t27.5 -82t32.5 -77.5t38 -65t43.5 -45t50 -17q26 0 50 20z" />
    <glyph glyph-name="y" unicode="y" horiz-adv-x="429"
d="M53 338q2 6 13.5 9.5t21.5 3.5q12 0 12 -5q-8 -34 -17 -70.5t-16.5 -71.5t-12 -66t-4.5 -53q0 -25 4 -36t15 -11q12 -1 27 9.5t26 18.5q52 40 78 76t41 63.5t26.5 43.5t36.5 16q9 0 9 -5q-9 -40 -20.5 -112.5t-27.5 -158.5q49 38 97.5 71t90.5 65q4 3 14 3q6 0 10.5 -1.5
t4.5 -4.5t-5 -7q-45 -35 -104.5 -75.5t-114.5 -84.5q-15 -74 -34 -147.5t-42 -132t-51 -94.5t-62 -36q-32 0 -48.5 22t-16.5 49q0 28 11.5 61t28.5 65.5t36 61.5t36 49q21 25 45 48.5t51 45.5q12 55 21.5 104t17.5 100q-22 -31 -47 -58t-50 -46.5t-49.5 -30.5t-46.5 -11
q-32 0 -44.5 20.5t-12.5 53.5q0 26 5.5 58t14 66t17.5 68.5t15 66.5zM203 -91q-14 -12 -25.5 -24.5t-21.5 -23.5q-11 -12 -30.5 -38.5t-39.5 -58.5t-34.5 -66.5t-14.5 -62.5q0 -19 8.5 -32.5t20.5 -13.5q18 0 37 28.5t36 72t32.5 95.5t26.5 99z" />
    <glyph glyph-name="z" unicode="z" horiz-adv-x="432"
d="M72 231q-7 -4 -20 -4q-8 0 -15.5 2t-7.5 7q0 4 11 10q4 2 24.5 13t47 23.5t54.5 22.5t48 10q28 0 28 -26q0 -14 -7 -29t-16.5 -29t-20 -27t-16.5 -22q-29 -43 -59 -85.5t-53 -88.5q89 42 179 76t189 48q2 0 4 0.5t4 0.5q12 0 12 -8q0 -6 -8 -13t-19 -9
q-105 -15 -201.5 -55t-190.5 -86q-2 -1 -9 -2t-14 -1q-6 0 -10.5 1t-4.5 5q0 3 1 4q26 58 61 109.5t70 104.5q6 9 15 20.5t17.5 23.5t15 24.5t8.5 24.5q0 2 -3 2q-7 0 -26 -7.5t-39 -16.5t-35 -16t-14 -7z" />
    <glyph glyph-name="zero" unicode="0" horiz-adv-x="586"
d="M495 540q2 -15 3.5 -30.5t1.5 -31.5q0 -43 -8 -88.5t-22 -90t-34 -86.5t-45 -78q-11 -15 -30.5 -39.5t-46 -48t-57 -40t-62.5 -16.5q-36 0 -60 25.5t-39 61.5t-21 76t-6 69q0 41 7 86t19.5 89.5t30 87.5t39.5 81q14 24 34 50.5t45 48t53.5 35.5t60.5 14q28 0 47 -12
t42 -35l1 -1q37 -55 47 -127zM445 448q0 8 0.5 14.5t0.5 14.5q0 98 -46 167q-2 0 -2 2q-29 33 -59 33q-9 0 -21.5 -4t-27 -15.5t-31.5 -31.5t-36 -51q-14 -23 -25 -45.5t-19 -42.5t-13.5 -36t-8.5 -26q-19 -66 -25 -109t-6 -71q0 -6 0.5 -10.5t0.5 -9.5q0 -18 2.5 -50.5
t11.5 -64t26 -55t47 -23.5q32 0 63 26t56.5 61t44 70t24.5 54q39 117 43 203z" />
    <glyph glyph-name="exclam" unicode="!" horiz-adv-x="324"
d="M232 827q2 3 13.5 7.5t20.5 4.5q8 0 8 -5v-2q-44 -170 -81 -339.5t-69 -341.5q-2 -7 -10 -11.5t-16 -4.5q-10 0 -10 7v2q33 172 66.5 342.5t77.5 340.5zM49 20q1 7 5.5 14.5t11 13.5t13 10t11.5 4q19 0 19 -20t-13.5 -31.5t-28.5 -11.5q-8 0 -13 4.5t-5 12.5v4z" />
    <glyph glyph-name="at" unicode="@" horiz-adv-x="824"
d="M188 309q4 31 25.5 66.5t54 64.5t71 48.5t75.5 19.5q22 0 40 -7q0 5 11.5 9.5t21.5 4.5q11 0 11 -7v-3l-2 -4h1l-1 -1q-8 -28 -16 -66.5t-8 -74.5q0 -32 10.5 -57t31.5 -25q15 0 32.5 11.5t32.5 26.5t26.5 30t14.5 21q12 21 22.5 46.5t10.5 51.5q0 45 -23 79.5t-59 58
t-79.5 35.5t-84.5 12q-60 0 -114 -27.5t-94.5 -72t-64 -99.5t-23.5 -110q0 -48 20.5 -93.5t68.5 -83.5q42 -34 85.5 -48.5t87.5 -14.5q51 0 100 17t94.5 45t86.5 65t74 77q3 4 10 6t14 2q6 0 11 -1.5t5 -6.5q0 -4 -4 -8q-35 -42 -82.5 -83t-102.5 -73.5t-115 -52t-118 -19.5
q-47 0 -96.5 19t-89.5 55t-65.5 87t-25.5 114q0 62 26 121.5t71 105.5t105.5 74t129.5 28q50 0 103 -13.5t96.5 -39.5t71.5 -63t28 -83q0 -25 -9 -52.5t-29 -56.5q-10 -14 -27 -35t-38 -40.5t-45 -33.5t-47 -14q-21 0 -36 10.5t-24 27t-13 36.5t-4 39t3 39
q-17 -23 -37.5 -48.5t-44.5 -46.5t-50 -34.5t-53 -13.5q-23 0 -41 12t-18 38q0 6 1 9zM380 385l28 42t28 43q-13 8 -33 8q-31 0 -61.5 -18t-54.5 -43.5t-39 -54t-15 -48.5q0 -16 5 -22t14 -6q13 0 33 12.5t39 29.5t34.5 33t21.5 24z" />
    <glyph glyph-name="numbersign" unicode="#" horiz-adv-x="718"
d="M26 398q-2 0 -3 -0.5t-3 -0.5q-6 0 -12 2t-6 8q0 11 12 16t20 6q107 10 218 27q10 54 19 108t17 109q2 7 13 10.5t19 3.5q11 0 11 -8q-15 -108 -36 -216l39 6l52 8t52 9q8 50 17 99.5t19 99.5q2 8 11 12t18 4q14 0 14 -9v-2q-10 -50 -19 -98.5t-17 -98.5l204 36h5
q6 0 12.5 -2t6.5 -8q0 -10 -26.5 -18t-63 -15t-76 -13t-66.5 -10q-4 -20 -7.5 -39.5t-6.5 -39.5l-6 -39q49 9 97 17t97 16h5q6 0 12.5 -2t6.5 -9q0 -10 -25 -17.5t-60.5 -14t-73.5 -12t-65 -10.5q-9 -56 -19 -111.5t-21 -111.5q-2 -7 -11 -11.5t-18 -4.5q-14 0 -14 9v2
q11 55 20.5 110t18.5 110l-148 -26q-11 -54 -21.5 -107t-20.5 -107q-2 -5 -11.5 -9.5t-20.5 -4.5q-4 0 -7.5 1.5t-3.5 4.5v2l43 213l-162 -26h-5q-7 0 -13.5 2t-6.5 8q0 10 21.5 17.5t52 13t63.5 9.5t56 7l24 122q-109 -16 -221 -27zM266 310l147 28q1 10 3 19.5t4 20.5
l12 77q-70 -13 -143 -24l-3 -17z" />
    <glyph glyph-name="percent" unicode="%" horiz-adv-x="515"
d="M487 770q0 -1 0.5 -1t0.5 -1t-0.5 -2t-0.5 -2q-52 -93 -106.5 -184t-108 -182.5t-104 -185t-95.5 -192.5q-3 -8 -15.5 -10.5t-20.5 -2.5q-10 0 -12 2q-2 1 -1 3q0 2 1 3q43 95 91.5 184.5t99.5 177t102.5 174t101.5 175.5q-21 -7 -47 -10t-53 -3h-22q-2 -24 -13 -51
t-29 -50t-42.5 -38t-54.5 -15q-32 0 -45 19.5t-13 42.5t13 46t34 42t47 32t52 16h6q8 0 8 -5q0 -3 -4 -6.5t-9.5 -6t-10.5 -4.5t-7 -2q-14 -2 -29.5 -12t-28.5 -26t-22 -35t-9 -37q0 -36 30 -36q15 0 30.5 12t28 29.5t20 37t7.5 35.5q0 9 -3 17l-5 1l4 1l-1 2q0 4 4.5 7
t10.5 5t12 2.5t8 0.5q3 0 4 -1h6q5 -1 15 -1q16 0 34 2.5t35.5 6t32.5 8.5t26 10h1q9 4 14.5 7.5t21.5 3.5q8 0 10 -3zM361 225q14 -15 20 -35t6 -41q0 -24 -8.5 -46t-25 -39t-40 -27t-53.5 -10q-33 0 -51.5 20.5t-18.5 46.5q0 27 12.5 51.5t34 43.5t50 30t59.5 11
q5 0 8.5 -2t5.5 -2zM345 122q6 18 6 36q0 35 -24 43q-23 -3 -40.5 -14t-29.5 -25.5t-18 -30.5t-6 -29q0 -17 10 -31t27 -14q21 0 43.5 19.5t31.5 45.5z" />
    <glyph glyph-name="asciicircum" unicode="^" horiz-adv-x="424"
d="M126 672q-11 -11 -28 -11q-3 0 -8 1.5t-5 6.5l2 4q35 42 72 82t79 76q8 6 19 8q4 0 8.5 -0.5t8.5 -3.5q38 -35 75.5 -70.5t75.5 -72.5q1 -1 1 -4q0 -8 -11 -12.5t-18 -4.5q-8 0 -11 4q-67 67 -136 130q-34 -31 -64 -64.5t-60 -68.5z" />
    <glyph glyph-name="ampersand" unicode="&#x26;" horiz-adv-x="688"
d="M670 -42q1 -1 1 -3q0 -6 -13 -15t-22 -9q-3 0 -4 1q-71 30 -128.5 74t-105.5 100l-8 -6q-23 -16 -48.5 -33.5t-53 -31.5t-56.5 -23.5t-58 -9.5q-30 0 -53.5 11.5t-40 31.5t-25.5 45.5t-9 54.5q0 46 18 89.5t45 82t59 72t59 60.5q-5 13 -9.5 33.5t-7.5 44.5t-5 49.5
t-2 49.5q0 39 7.5 77t25.5 68.5t48.5 49t76.5 18.5q20 0 39 -5.5t34 -17t24.5 -29t9.5 -42.5q0 -42 -14 -77t-36.5 -66.5t-50 -59.5t-55.5 -55l-44 -43q21 -81 57.5 -156t87.5 -139q40 30 77.5 62.5t73.5 67.5q3 3 11 3q10 0 10 -5q0 -3 -2 -5q-35 -37 -73 -73t-81 -70
q46 -52 101.5 -95t124.5 -70zM316 79q17 11 33 22.5t33 23.5q-51 63 -86.5 135.5t-58.5 151.5q-28 -29 -53.5 -59t-45 -62t-31 -67.5t-11.5 -74.5q0 -22 4.5 -42.5t15 -37t28.5 -26.5t45 -10q34 0 67.5 14.5t59.5 31.5zM250 532q2 -13 4.5 -26t4.5 -26q26 26 55 54.5t53 59
t39.5 64.5t15.5 70q0 17 -6 32.5t-16.5 27.5t-25 19.5t-30.5 7.5q-29 0 -48.5 -16t-32 -41.5t-18 -57t-5.5 -62.5q0 -29 3 -56t7 -50z" />
    <glyph glyph-name="asterisk" unicode="*" horiz-adv-x="279"
d="M48 770q-1 1 -1 3q0 4 7 7.5t14 3.5q4 0 11 -6.5t15.5 -15.5t16.5 -18t14 -14q2 17 4 34.5t2 35.5q0 5 6.5 8t13.5 3q10 0 10 -7q0 -19 -2 -38l-4 -38l40 50q2 3 6.5 4.5t9.5 1.5q11 0 11 -6q0 -3 -3 -6l-48 -60q14 2 29.5 4.5t29.5 2.5q4 0 8 -2t4 -7q0 -6 -8 -10
t-19.5 -6t-24.5 -2.5t-23 -1.5l64 -62q1 -1 1 -2q0 -4 -7.5 -7.5t-15.5 -3.5q-6 0 -7 2l-56 54q-3 -20 -5.5 -40.5t-4.5 -40.5q-1 -5 -7.5 -8t-13.5 -3q-10 0 -10 6q0 14 2.5 29t4.5 29q-11 -11 -23.5 -25t-24.5 -14q-5 0 -8.5 1.5t-3.5 5.5q0 3 8 12.5t19 21t21.5 22.5
t16.5 17q-17 -3 -37.5 -10t-31.5 -7q-4 0 -7.5 2t-3.5 7q0 6 8.5 10.5t20 8t24 5.5t20.5 4q-16 16 -31.5 32.5t-30.5 33.5z" />
    <glyph glyph-name="parenleft" unicode="(" horiz-adv-x="342"
d="M381 873q5 6 17.5 9t20.5 3q9 0 9 -3q0 -2 -2 -4l-15 -16q-63 -69 -114.5 -153t-87.5 -176t-55.5 -189.5t-19.5 -194.5q0 -50 6 -102.5t26 -99.5q0 -8 -14.5 -12.5t-27.5 -4.5q-2 0 -4.5 0.5t-3.5 2.5l-5 12q-15 43 -21 88.5t-6 90.5q0 101 20 203t58 199t93 185t126 162
z" />
    <glyph glyph-name="parenright" unicode=")" horiz-adv-x="227"
d="M139 834q0 6 5 9.5t11 5.5t11.5 2.5t7.5 0.5q3 0 8.5 -1t6.5 -5q17 -81 24 -162t7 -163q-1 -99 -12 -198.5t-42 -194.5q-8 -26 -23.5 -64t-36 -73.5t-43.5 -61t-46 -25.5q-5 1 -10.5 2t-5.5 7q0 4 7 13t16 20l18 22t13 17l21 38q0 1 1 2l1 1l2 6l14 30q44 106 60 222.5
t16 230.5q0 79 -7.5 159t-23.5 158v2z" />
    <glyph glyph-name="asciitilde" unicode="~" horiz-adv-x="492"
d="M117 310q-1 0 -2 -1l-3 -1q-2 0 -4 -2.5t-3 -2.5l-5 -6q-2 -2 -2 -3l-3 -5q-4 -8 -5 -12q-2 -8 -17 -13.5t-30 -5.5q-5 0 -9.5 1t-4.5 5q0 1 0.5 1.5t0.5 1.5q6 21 21 35t34.5 22.5t41 12t41.5 3.5q43 0 76 -12t65 -25q14 -6 26.5 -7.5t27.5 -6.5h5q1 1 4 1h2l1 1h2h1
q2 0 3 1h1q2 0 2 2h1q4 2 8 4.5t8 4.5l5 3q9 5 19 8.5t21 3.5q-1 0 1.5 0t5.5 -0.5t5.5 -2t2.5 -4.5t-2.5 -5t-4.5 -4q-28 -18 -58.5 -29t-63.5 -11q-22 0 -43 7t-41 16t-39 16t-36 7h-1l-2 1l-13 2q-4 0 -7.5 0.5t-7.5 0.5h-17q-1 0 -2 -1h-5l-2 -1h1zM125 312q-1 0 -1 -1
h2l1 1h-2zM169 309q2 -1 3 -1q-1 0 -1 0.5t-1 0.5h-1zM110 307l2 1q-1 -1 -2 -1t-1 -1zM117 310h-1q1 0 1.5 0.5t1.5 0.5q-1 -1 -2 -1zM121 311q-1 0 -1 -0.5t-1 -0.5l1 1h1zM376 291h1h-1z" />
    <glyph glyph-name="hyphen" unicode="-" horiz-adv-x="352"
d="M58 164q-26 0 -26 13q0 6 8.5 12t22.5 6h95.5t95.5 2q25 0 25 -12q0 -11 -25.5 -16t-60.5 -6t-73 0t-62 1z" />
    <glyph glyph-name="emdash" unicode="&#x2014;" horiz-adv-x="886"
d="M87 169q-11 0 -11 3t7.5 7.5t17.5 9t20.5 7.5t15.5 3q158 0 315 0.5t315 3.5q19 0 19 -6q0 -3 -6 -7.5t-14 -8t-17 -6t-15 -2.5q-162 -3 -323 -3.5t-324 -0.5z" />
    <glyph glyph-name="endash" unicode="&#x2013;" horiz-adv-x="464"
d="M91 164q-35 0 -35 13q0 6 11 12t31 6h131t131 2q35 0 35 -12q0 -8 -16.5 -12t-42.5 -6.5t-59 -3t-67 -0.5t-65.5 0.5t-53.5 0.5z" />
    <glyph glyph-name="equal" unicode="=" horiz-adv-x="527"
d="M403 293q8 0 16 -2.5t8 -7.5t-6 -9t-14.5 -6t-17.5 -3t-15 -1q-61 -2 -121 -2.5t-121 -0.5q-12 0 -16.5 1.5t-4.5 4.5q0 13 32.5 18t79 6.5t96 0.5t84.5 1zM397 209q19 0 19 -5q0 -10 -16 -16.5t-42 -10t-58.5 -4.5t-66 -1t-64.5 0.5t-54 0.5q-13 0 -13 7q0 6 7 10.5
t16.5 8t20 5t17.5 1.5q59 0 117 0.5t117 3.5z" />
    <glyph glyph-name="plus" unicode="+" horiz-adv-x="411"
d="M341 240q31 0 31 -12q0 -8 -12 -15.5t-29 -8.5l-107 -3v-60.5t2 -60.5q0 -5 -8.5 -8t-15.5 -3q-5 0 -7 17t-2.5 39t0 44t0.5 31q-29 0 -58.5 -0.5t-58.5 -0.5q-8 0 -16.5 3t-8.5 9q0 13 16.5 18.5t39 7t47 0.5t40.5 -1q0 29 0.5 58.5t0.5 58.5q0 5 8.5 7.5t15.5 2.5t7 -2
q0 -32 -0.5 -62.5t-1.5 -62.5q29 1 58.5 1.5t58.5 2.5z" />
    <glyph glyph-name="greater" unicode="&#x3e;" horiz-adv-x="372"
d="M103 52q-8 -6 -19 -6q-13 0 -13 7q0 4 13 14t31 22t36 23.5t28 18.5l24 17l61 48q-45 35 -89 71t-90 71q-2 2 -2 3q0 8 11.5 12t16.5 4q7 0 12 -4q47 -35 92.5 -71.5t90.5 -73.5q2 -2 2 -4t-1.5 -4t-2.5 -3q-47 -42 -98 -76.5t-103 -68.5z" />
    <glyph glyph-name="less" unicode="&#x3c;" horiz-adv-x="375"
d="M280 67q4 -3 4 -6q0 -6 -10.5 -10.5t-18.5 -4.5q-3 0 -7 2q-52 34 -102.5 68.5t-97.5 75.5q-2 2 -2 3q0 2 1.5 4t3.5 4q45 37 90.5 73.5t92.5 71.5q10 8 23 8t13 -7q0 -4 -4 -7q-45 -34 -88.5 -69t-87.5 -70q45 -38 93 -71t97 -65z" />
    <glyph glyph-name="question" unicode="?" horiz-adv-x="503"
d="M125 641q-5 -4 -16.5 -6.5t-20.5 -2.5q-10 0 -10 3q0 1 2 3q29 30 63 60.5t72 55t79.5 40t85.5 15.5q31 0 58 -8.5t47.5 -25t32 -40t11.5 -53.5q0 -29 -11.5 -60t-29.5 -61t-40 -58.5t-43 -53.5q-27 -31 -52 -63.5t-46 -67t-36 -72t-21 -79.5q-1 -6 -13.5 -10.5
t-23.5 -4.5q-12 0 -12 7q9 61 35.5 110t59.5 93t68.5 87t64.5 93q17 29 33.5 64.5t16.5 70.5q0 21 -10 39t-27 32t-38.5 22t-45.5 8q-33 0 -65.5 -13.5t-62.5 -33.5t-57 -44t-48 -46zM223 66q7 -2 10 -10.5t3 -15.5q0 -16 -14 -27t-28 -11q-9 0 -11 10t-2 18q0 13 10 25
t23 12q6 0 9 -1z" />
    <glyph glyph-name="period" unicode="." horiz-adv-x="209"
d="M64 79q7 -4 10 -14t3 -17q0 -17 -14 -29t-28 -12q-6 0 -9.5 5t-5 11t-2 12t-0.5 8q2 14 12 25.5t24 11.5q5 0 10 -1z" />
    <glyph glyph-name="comma" unicode="," horiz-adv-x="185"
d="M78 22q0 7 6.5 10.5t13.5 3.5q5 0 9.5 -3t4.5 -8q0 -48 -25.5 -86.5t-57.5 -71.5q-2 -2 -8.5 -4t-11.5 -2q-8 0 -8 4q0 2 4 6q30 31 50.5 68.5t22.5 82.5z" />
    <glyph glyph-name="colon" unicode=":" horiz-adv-x="211"
d="M130 242q-6 -6 -18 -6q-7 0 -10.5 5.5t-5 12.5t-1.5 14v11q2 14 12 24.5t24 10.5q11 0 17 -10.5t6 -24.5q0 -23 -24 -37zM127 145q5 -2 11 -11.5t7 -16.5q0 -18 -13.5 -30.5t-27.5 -12.5q-6 0 -9.5 4t-5 9.5t-2 11.5t-0.5 10q2 13 11 25t22 12q5 0 7 -1z" />
    <glyph glyph-name="semicolon" unicode=";" horiz-adv-x="213"
d="M84 110q0 7 6.5 11t14.5 4q6 0 10.5 -3t4.5 -9q0 -26 -7.5 -48.5t-20 -43.5t-28.5 -39.5t-33 -36.5q-2 -3 -9 -5t-13 -2q-8 0 -8 4q0 3 4 7q32 32 54.5 72.5t24.5 88.5zM135 274q0 -18 -12.5 -30t-27.5 -12q-11 0 -13 11t-2 21q0 12 9.5 23.5t22.5 11.5q11 0 16 -7t7 -18
z" />
    <glyph glyph-name="slash" unicode="/" horiz-adv-x="426"
d="M425 714q-47 -97 -97 -191.5t-98.5 -189.5t-94.5 -191.5t-85 -198.5q-2 -5 -7.5 -8t-12 -4.5t-12.5 -2t-8 -0.5q-9 0 -9 5q0 2 1 3q37 97 80.5 189.5t90 183.5t94.5 181t93 182l18 38l13 8q2 2 10.5 3.5t13.5 2.5q2 0 5 -0.5t5 -2.5v-7z" />
    <glyph glyph-name="backslash" unicode="\" horiz-adv-x="323"
d="M322 -8q0 -2 0.5 -2.5t0.5 -2.5q0 -8 -3 -15t-7 -12t-8 -8.5t-5 -3.5q-4 0 -5 3q-59 132 -105.5 269t-90.5 273l-83 250l-15 40l1 1q0 1 1 7.5t3 14t6.5 14t10.5 6.5q1 -1 2 -1q1 -1 1.5 -1t2.5 -2q37 -104 70.5 -208.5t68 -208.5t72 -207.5t82.5 -205.5z" />
    <glyph glyph-name="bar" unicode="|" horiz-adv-x="275"
d="M169 500q-3 -78 -5.5 -155.5t-2.5 -155.5q0 -126 9 -250q0 -8 -5 -14t-11.5 -10t-12 -6l-5.5 -2q-4 0 -4 4q-9 127 -9 256q0 144 6 282t8 282l1 42q1 2 4 7t7 10t9.5 9t11.5 4q1 0 3.5 -0.5t2.5 -5.5q-1 -75 -3 -149.5t-4 -147.5z" />
    <glyph glyph-name="braceleft" unicode="{" horiz-adv-x="422"
d="M301 791l-1 -1q-2 0 -3.5 -1t-4.5 -1l-1 -1q-1 -1 -2 -1l-7 -4q0 -1 -1 -1l-10 -9l-2 -2l1 1l-9 -11q-5 -5 -12 -15.5t-7 -16.5q-11 -22 -18 -45t-13 -46l-26 -100q-11 -45 -29 -86t-49 -71q35 -20 44.5 -51.5t9.5 -66.5q0 -40 -5 -80.5t-5 -78.5q0 -22 3 -44.5t12 -41.5
l8 -17q0 -6 6 -14t13.5 -15.5t15.5 -14.5t13 -10l6 -4l1 -1q2 0 8 -3.5t12.5 -7.5t11.5 -7.5l5 -3.5q0 -8 -10 -12.5t-18 -4.5q-3 0 -9 2q-35 15 -58 36t-37 46.5t-19.5 54t-5.5 57.5q0 38 5 76t5 75v20q0 11 -2 21l-4 20q-2 5 -5.5 11.5t-3.5 9.5l-8 11l-9 9t-8 6l-5 3
q-4 2 -9 4t-5 6q0 5 5 8l5 5l9 8q1 1 1.5 2t2.5 2l12 17l15 24q0 1 0.5 1t0.5 2l5 10q9 23 17 47t14 48l26 100q9 35 22 66t32 54t44.5 36.5t60.5 13.5h14t15 -2q7 -1 7 -7t-9 -11t-19 -5q-1 0 -2 0.5t-3 0.5l-12 2h-13q-2 0 -3.5 -0.5t-3.5 -0.5h-2zM302 791h1q0 -1 -1 -1
h-2zM109 436l1 1v-1h-1zM289 786l2 1q-1 0 -1 -0.5t-1 -0.5z" />
    <glyph glyph-name="braceright" unicode="}" horiz-adv-x="464"
d="M143 -77q2 0 3 0.5t3 0.5h2q0 2 1.5 1t3.5 1l2 1l6 2q2 2 6 4h1q0 1 1 1l11 10l9 11q5 5 12 15.5t7 16.5q11 22 18 45t13 46l26 100q11 42 28 84t49 73q-31 18 -42.5 48t-11.5 64q0 42 5.5 84t5.5 81q0 16 -1.5 32t-5.5 31l-8 23l-8 17q0 2 -1 2.5t-2 2.5l1 -1
q-11 18 -24.5 29.5t-28.5 25.5q-3 0 -9 3.5t-12 7.5t-11 7.5l-5 3.5q0 8 9.5 12.5t17.5 4.5q4 0 10 -2q34 -15 57.5 -36t37 -46.5t19.5 -54t6 -57.5q0 -32 -3.5 -64t-5.5 -63l-2 -34q0 -8 1 -18.5t3 -21t5 -19.5t7 -13l8 -11q2 -3 8.5 -9t8.5 -6l5 -3q5 -3 9 -5t4 -6
q0 -5 -7.5 -11t-11.5 -10l-15 -20l-15 -24v-1q-1 0 -1 -2l-5 -10q-10 -23 -17.5 -47t-13.5 -48l-26 -100q-11 -37 -24.5 -68.5t-32 -54t-43.5 -35.5t-59 -13q-14 0 -29 3q-8 0 -8 7q0 8 11 11.5t19 3.5q3 0 6.5 -1t7.5 -1h15zM344 279l-1 -1zM171 -66l-1 -1h-1q1 0 1 0.5
t1 0.5z" />
    <glyph glyph-name="bracketleft" unicode="[" horiz-adv-x="389"
d="M302 800q0 -8 -12.5 -13t-22.5 -5q-6 0 -13 1t-12 2l-26 3q-3 -40 -6.5 -75t-7.5 -70q-11 -108 -18.5 -202t-12.5 -176.5t-7.5 -155t-2.5 -137.5v-2q1 0 13.5 -0.5t26.5 -2.5t25.5 -5t11.5 -9q0 -11 -13 -16.5t-22 -5.5h-3q1 0 -11.5 0t-27.5 1.5t-28 4.5t-13 9l-1 1
q-2 2 -2 24t1.5 60.5t4.5 86t6.5 101t7 105t7.5 98t7 80.5l19 183q3 30 6.5 57.5t5.5 50.5l-6 1l6 2l-0.5 3.5t1 8t6.5 8.5t16 4q9 0 12 -1q7 -1 21 -2.5t27.5 -3.5t24.5 -4.5t12 -6.5v-2z" />
    <glyph glyph-name="bracketright" unicode="]" horiz-adv-x="414"
d="M274 802q3 -2 3 -6q-5 -59 -10 -111t-9 -112l-27 -327q-2 -28 -4.5 -65.5t-5 -77.5t-5 -78t-5.5 -68l5 -1l-5 -1q-1 -3 -1 -9l-1 -5q-1 -4 -5 -7.5t-16 -3.5q-4 0 -7 0.5t-5 0.5q-7 1 -21 2.5t-28.5 4t-25 5t-10.5 6.5q0 8 12.5 13.5t23.5 5.5h4l46 -6l17 258
q3 53 7.5 114.5t8.5 123t8 119t7.5 101.5t6 70.5t3.5 26.5q-2 0 -3 1q-4 1 -16.5 1t-25.5 1.5t-23.5 4.5t-10.5 9t4.5 10t11 7t13 4t10.5 1h14.5t24 -1t24 -3.5t15.5 -7.5h1v0z" />
    <glyph glyph-name="underscore" unicode="_" horiz-adv-x="595"
d="M-24 1q-10 0 -10 3t6.5 7.5t14.5 9t16.5 7.5t12.5 3q132 0 262 0.5t262 3.5q16 0 16 -6q0 -3 -5 -7.5t-11.5 -8t-14 -6t-12.5 -2.5q-135 -3 -268.5 -3.5t-268.5 -0.5z" />
    <glyph glyph-name="quotedblleft" unicode="&#x201c;" horiz-adv-x="352"
d="M246 803q2 -46 22.5 -84t51.5 -69q4 -4 4 -7q0 -4 -8 -4q-6 0 -12.5 2t-8.5 5q-16 16 -31 34t-27 38t-19 42t-7 46q0 5 4.5 8t9.5 3q8 0 14 -3.5t7 -10.5zM144 813q2 -46 22.5 -84t51.5 -69q4 -4 4 -7t-7 -3q-6 0 -12.5 2t-8.5 4q-32 35 -57.5 72.5t-27.5 86.5q0 6 4.5 9
t9.5 3q8 0 14 -3.5t7 -10.5z" />
    <glyph glyph-name="quotedblright" unicode="&#x201d;" horiz-adv-x="369"
d="M189 799q0 7 6.5 10.5t13.5 3.5q6 0 10.5 -2.5t4.5 -8.5q0 -24 -7 -46t-19 -41.5t-27 -37.5t-31 -35q-2 -2 -9 -4t-12 -2q-8 0 -8 4q0 2 4 6q31 31 51.5 69.5t22.5 83.5zM291 809q0 7 6.5 11t13.5 4q6 0 10.5 -3t4.5 -9q-2 -50 -27.5 -88t-57.5 -72q-2 -2 -8.5 -4
t-11.5 -2q-8 0 -8 4q0 2 4 6q31 32 51.5 70t22.5 83z" />
    <glyph glyph-name="quotesingle" unicode="'" horiz-adv-x="191"
d="M184 797q0 7 6.5 11t14.5 4q5 0 9.5 -3t4.5 -8q0 -24 -7 -46t-19 -42t-27 -38t-31 -35q-2 -2 -9 -4t-12 -2q-8 0 -8 4q0 2 4 6q31 32 51.5 70t22.5 83z" />
    <glyph glyph-name="quoteright" unicode="&#x2019;" horiz-adv-x="186"
d="M115 797q0 7 6.5 11t14.5 4q5 0 9.5 -3t4.5 -8q0 -24 -7 -46t-19 -42t-27 -38t-31 -35q-2 -2 -9 -4t-12 -2q-8 0 -8 4q0 2 4 6q31 32 51.5 70t22.5 83z" />
    <glyph glyph-name="quoteleft" unicode="&#x2018;" horiz-adv-x="263"
d="M233 657q4 -4 4 -9q0 -8 -5.5 -14.5t-12.5 -6.5q-5 0 -8 3q-35 34 -46.5 77.5t-15.5 91.5q0 5 5 14.5t10 9.5q4 0 4 -8q3 -44 17.5 -85t47.5 -73z" />
    <glyph glyph-name="quotedbl" unicode="&#x22;" horiz-adv-x="213"
d="M84 797q0 -57 3 -112t7 -112q0 -5 -4 -10t-9 -5q-6 0 -9 13t-5 20q-6 39 -9 62.5t-4.5 43t-2.5 41t-3 56.5q1 7 8 11.5t15 4.5q13 0 13 -13zM160 585q0 -26 -9 -27q-8 0 -13 19.5t-8.5 46.5t-5 55.5t-1.5 45.5q0 6 -1 14.5t0.5 16t6.5 13t16 5.5q4 0 8 -1.5t4 -6.5
q-1 -14 -1.5 -26t-0.5 -24q0 -32 1.5 -63.5t3.5 -67.5z" />
    <glyph glyph-name="fraction" unicode="&#x2044;" horiz-adv-x="499"
d="M509 701q0 -3 -1 -4q-52 -88 -107.5 -173t-110.5 -171t-108 -174t-99 -181q-3 -6 -13 -8.5t-18 -2.5t-11 0.5t-5 1.5t-1 3q0 2 1 3q44 89 94 173t102.5 166.5t105.5 164t104 164.5l21 34q10 3 15.5 6.5t20.5 3.5q7 0 10 -4v-2z" />
    <glyph glyph-name="bullet" unicode="&#x2022;" horiz-adv-x="98"
d="M64 341q11 -5 16.5 -21t5.5 -27q0 -13 -5.5 -24t-14 -19t-18.5 -12.5t-20 -4.5q-9 0 -14.5 7t-8 16.5t-3.5 18.5t-1 14q3 20 16 37t33 17h6.5t7.5 -2z" />
    <glyph glyph-name="Agrave" unicode="&#xc0;" horiz-adv-x="843"
d="M869 196q5 4 12.5 6t12.5 2q10 0 10 -5t-10 -12q-47 -38 -101 -63t-112 -39q-5 -42 -10 -86.5t-5 -89.5q0 -34 4 -67t15 -65q0 -2 0.5 -2.5t0.5 -1.5q0 -6 -7 -6q-17 0 -27 19t-15 46t-7 57t-2 52q0 31 2 64t5 71q-41 -7 -86 -7q-57 0 -111.5 11.5t-116.5 25.5
q0 -1 -1 -2q-16 -19 -44 -40t-62 -38t-70 -28.5t-67 -11.5q-30 0 -53 13.5t-23 42.5q0 28 16 49.5t41.5 36.5t56.5 23t62 8q30 0 61 -4.5t63 -10.5q63 85 110.5 179t93.5 190q17 36 34 74.5t37.5 76t44.5 71.5t56 60q34 28 55 28q25 0 34.5 -31t9.5 -75q0 -33 -3.5 -68.5
t-8 -67t-9.5 -55.5t-6 -33q-17 -96 -34 -190t-30 -190q50 10 96 30t88 53zM516 105q14 -2 28.5 -2h28.5q32 0 64 3q10 106 29.5 207.5t37.5 206.5q10 58 19 111.5t9 119.5q0 14 -2 24.5t-8 10.5q-7 0 -17.5 -10.5t-21.5 -25.5t-21.5 -31t-16.5 -27q-39 -67 -72.5 -139
t-68 -144t-73 -142t-86.5 -133q42 -9 84.5 -18t86.5 -11zM58 20q10 -5 26 -5q19 0 44.5 6.5t52.5 19.5t52.5 31t44.5 42q-29 5 -57 8t-56 3q-25 0 -48.5 -6t-41.5 -16t-28.5 -23.5t-10.5 -29.5q0 -18 22 -30zM671 929q-4 3 -4 8t6 9.5t14 4.5q4 0 9 -3q12 -11 32 -25.5
t39 -29t33 -27t14 -18.5q0 -3 -4.5 -5t-6.5 -2q-5 0 -9 4q-32 20 -63 40t-60 44z" />
    <glyph glyph-name="grave" unicode="`" horiz-adv-x="155"
d="M12 817q-4 3 -4 8t6 9.5t14 4.5q4 0 9 -3q12 -11 32 -25.5t39 -29t33 -27t14 -18.5q0 -3 -4.5 -5t-6.5 -2q-5 0 -9 4q-32 20 -63 40t-60 44z" />
    <glyph glyph-name="tilde" unicode="&#x2dc;" horiz-adv-x="304"
d="M221 389q8 0 15.5 5t14.5 11t14 11t14 5q5 0 9.5 -1t4.5 -5q0 -2 -3 -6q-27 -44 -75 -44q-15 0 -28 4t-25.5 10t-25.5 12t-26 10l-11 3q-2 0 -7 1.5t-9 1.5q-15 0 -25.5 -4.5t-18 -9.5t-11.5 -9.5t-6 -4.5q-5 0 -5 6q0 10 8.5 18.5t20 13.5t24 8t20.5 3q15 0 29.5 -4.5
t28.5 -10.5l28 -12t28 -9l7 -2q3 -1 10 -1z" />
    <glyph glyph-name="guilsinglright" unicode="&#x203a;" horiz-adv-x="248"
d="M73 1q-7 -7 -15 -7q-10 0 -10 8q0 5 10 16.5t23.5 25t28 27.5t23.5 23l8 9l29 31l28 35q-35 42 -69 83t-69 82q-2 2 -2 5q0 10 8.5 14t12.5 4q6 0 10 -4q36 -42 71.5 -84.5t70.5 -85.5q1 -1 1 -4q0 -2 -1 -4.5t-2 -4.5q-36 -48 -75.5 -89t-80.5 -80z" />
    <glyph glyph-name="guilsinglleft" unicode="&#x2039;" horiz-adv-x="296"
d="M217 1q-40 39 -80 80t-76 89q-3 3 -3 9q0 3 1 4q35 43 70.5 85.5t72.5 84.5q4 4 9 4q3 0 12.5 -4.5t9.5 -14.5q0 -2 -2 -4q-36 -41 -70.5 -82t-69.5 -83l48 -55l10 -11q9 -10 24.5 -25t30.5 -30t26.5 -27.5t11.5 -18.5q0 -8 -10 -8q-8 0 -15 7z" />
    <glyph glyph-name="guillemotright" unicode="&#xbb;" horiz-adv-x="335"
d="M30 55q-8 -6 -17 -6q-5 0 -8.5 2t-3.5 5q0 4 11.5 14t27 21.5t31.5 22.5t25 19l20 17l53 48q-78 72 -155 140q-2 2 -2 3q0 8 10.5 12t14.5 4q6 0 10 -4q41 -35 80 -71t78 -73q2 -2 2 -3q0 -2 -1.5 -4t-2.5 -4q-40 -41 -84 -75.5t-89 -67.5zM152 55q-6 -6 -16 -6
q-5 0 -8.5 2t-3.5 5q0 4 11.5 14t26.5 21.5t31 22.5t25 19l21 17l53 48q-78 72 -155 140q-2 2 -2 3q0 8 10 12t14 4q7 0 11 -4q40 -35 79.5 -71t78.5 -73q2 -2 2 -3q0 -2 -1.5 -4t-2.5 -4q-41 -41 -85 -75.5t-89 -67.5z" />
    <glyph glyph-name="guillemotleft" unicode="&#xab;" horiz-adv-x="335"
d="M301 351l8 4t9 2t8.5 -2t3.5 -5q0 -4 -11.5 -14t-27 -21.5t-31.5 -23.5t-25 -19l-9 -7l-32 -27l-32 -30q38 -36 76.5 -71t78.5 -69q1 -1 1 -4q0 -8 -10 -11.5t-14 -3.5q-6 0 -10 3q-40 35 -79.5 71.5t-78.5 73.5q-2 2 -2 3q0 3 4 7q40 41 84 76t89 68zM179 351q8 6 16 6
q5 0 8.5 -2t3.5 -5q0 -4 -11.5 -14t-26.5 -21.5t-31 -23.5t-25 -19l-10 -7l-32 -27l-32 -30q38 -36 76.5 -71t78.5 -69q1 -1 1 -4q0 -8 -9.5 -11.5t-14.5 -3.5q-6 0 -10 3q-40 35 -79.5 71.5t-78.5 73.5q-2 2 -2 3q0 3 4 7q41 41 85 76t89 68z" />
    <glyph glyph-name="fi" unicode="&#xfb01;" horiz-adv-x="907"
d="M905 115q16 11 29 11q7 0 7 -4t-10 -13q-26 -23 -55.5 -44t-59.5 -37t-60.5 -25.5t-58.5 -9.5q-50 0 -68.5 26.5t-18.5 68.5q0 26 5 54t12 54t14 47.5t11 34.5q-23 -8 -59.5 -21.5t-80 -31t-89.5 -38.5t-88 -45q-6 -20 -14.5 -59t-20 -86.5t-26 -99.5t-32 -99
t-39.5 -84.5t-47 -55.5q-16 -11 -34 -17.5t-35 -6.5q-23 0 -39.5 8t-27 22t-15 32.5t-4.5 38.5q0 32 9 64.5t21 55.5q29 56 57.5 99.5t59.5 79t67 66.5t81 61l4 13q14 49 30 117t35.5 141t43.5 144.5t54 127.5t66.5 91t80.5 35q36 0 62.5 -26t26.5 -79q0 -11 -4 -18.5
t-19 -7.5q-8 0 -14.5 4t-6.5 12v11q0 35 -15 55t-38 20q-26 0 -48 -22t-39.5 -52.5t-31 -64t-21.5 -57.5q-13 -38 -28.5 -94t-31.5 -115.5t-30.5 -115.5t-24.5 -95q50 26 106 47.5t104 37.5t82 25.5t40 11.5q4 0 7.5 -2.5t3.5 -7.5q0 -11 -6 -32.5t-12.5 -48t-12.5 -56
t-6 -55.5q0 -33 11.5 -55.5t41.5 -22.5q23 0 49 8t52 20.5t51.5 28.5t46.5 31zM144 -281q15 16 30.5 47.5t29 69.5t26 80t22.5 80t17.5 68.5t12.5 46.5q-2 -2 -18 -13t-39 -32q-26 -24 -58 -62.5t-60.5 -83t-47.5 -92t-19 -90.5q0 -23 7.5 -39.5t30.5 -16.5q14 0 30.5 8.5
t35.5 28.5zM678 383q-10 2 -10 12q0 15 13 32.5t34 17.5q6 -1 11 -4.5t5 -10.5q0 -21 -15.5 -34.5t-31.5 -13.5q-4 0 -6 1z" />
    <glyph glyph-name="fl" unicode="&#xfb02;" horiz-adv-x="980"
d="M653 136q2 26 7 58.5t12 60.5q-16 -3 -48.5 -8.5t-77 -18t-98.5 -33t-113 -53.5q-6 -20 -14.5 -59t-20 -86.5t-26 -99.5t-32 -99t-39.5 -84.5t-47 -55.5q-16 -11 -34 -17.5t-35 -6.5q-23 0 -39.5 8t-27 22t-15 32.5t-4.5 38.5q0 32 9 64.5t21 55.5q29 56 57.5 99.5
t59.5 79t67 66.5t81 61l4 13q14 49 30 117t35.5 141t43.5 144.5t54 127.5t66.5 91t80.5 35q36 0 62.5 -26t26.5 -79q0 -11 -4 -18.5t-19 -7.5q-8 0 -14.5 4t-6.5 12v11q0 35 -15 55t-38 20q-26 0 -48 -22t-39.5 -52.5t-31 -64t-21.5 -57.5q-13 -38 -28.5 -94t-31.5 -115.5
t-30.5 -115.5t-24.5 -95q71 33 127 51.5t97 27t67.5 10.5t38.5 3q7 28 16 61t18 63.5t17 55.5t13 39q24 63 51 131t64 125l21 31.5t24.5 29.5t30 21.5t37.5 8.5q24 0 33.5 -17t9.5 -43q0 -24 -6.5 -54t-15.5 -60.5t-19.5 -58.5t-19.5 -48q-21 -47 -47.5 -97.5t-58 -99.5
t-67 -95t-73.5 -84q-1 -9 -1 -20.5v-22.5q0 -33 6.5 -56t16.5 -37.5t23 -20.5t27 -6q21 0 44 10t46 24.5t44.5 32t39.5 32t31.5 24.5t20.5 10q5 0 5 -5q0 -9 -25.5 -35.5t-63.5 -55t-81.5 -50.5t-79.5 -22q-53 0 -79.5 35t-26.5 94v9.5t1 9.5zM144 -281q15 16 30.5 47.5
t29 69.5t26 80t22.5 80t17.5 68.5t12.5 46.5q-2 -2 -18 -13t-39 -32q-26 -24 -58 -62.5t-60.5 -83t-47.5 -92t-19 -90.5q0 -23 7.5 -39.5t30.5 -16.5q14 0 30.5 8.5t35.5 28.5zM765 452q-6 -19 -13 -45.5t-13.5 -55.5l-13 -58t-11.5 -52q29 34 55.5 74.5t50.5 83.5
t45.5 85.5t39.5 80.5q19 39 38 89.5t31 98.5q3 12 3 22q0 17 -6.5 28t-17.5 11q-7 0 -15.5 -6.5t-17.5 -16t-16.5 -21t-13.5 -21.5q-40 -71 -70 -145.5t-55 -151.5z" />
    <glyph glyph-name="lslash" unicode="&#x142;" horiz-adv-x="304"
d="M408 697q3 1 8 1q6 0 6 -4q0 -5 -5.5 -12.5t-14 -15t-18.5 -13.5t-19 -8l-37 -10q-17 -52 -44.5 -111.5t-63.5 -119.5t-78.5 -116.5t-87.5 -101.5q-1 -9 -1.5 -20.5t-0.5 -22.5q0 -33 6.5 -56t17 -37.5t23.5 -20.5t27 -6q21 0 44 10t46 24.5t44.5 32t39.5 32t31.5 24.5
t20.5 10q5 0 5 -4q0 -6 -12 -20.5t-31.5 -32.5t-45 -37.5t-53.5 -36t-56 -27t-52 -10.5q-52 0 -79 35t-27 94q0 41 10 95t24 107.5t29 101t26 75.5l32 83l-30 -6q-8 -2 -17.5 -4t-15.5 -2t-6 3q0 4 4.5 9t11.5 9t14 7t12 5l40 12q15 37 32.5 72.5t37.5 67.5l21 31.5
t24.5 29.5t30 21.5t37.5 8.5q23 0 33 -17t10 -44q0 -22 -5.5 -48.5t-13.5 -54.5zM114 452q-6 -19 -13 -45.5t-13.5 -55.5l-13 -58t-11.5 -52q34 40 66 90t60 101.5t51 101t38 87.5q-29 -8 -57 -15.5t-57 -15.5q-14 -35 -26.5 -69t-23.5 -69zM239 749q-32 -58 -60 -122
q29 9 58 19t58 19l19.5 58.5t10.5 52.5q0 17 -6 27.5t-17 10.5q-7 0 -15.5 -6.5t-17 -16t-16.5 -21t-14 -21.5z" />
    <glyph glyph-name="acute" unicode="&#xb4;" horiz-adv-x="188"
d="M146 831q4 2 6 2q5 0 8 -5.5t3 -11.5q0 -5 -1.5 -9t-5.5 -6q-33 -19 -58 -35t-58 -33q-5 -2 -10 -4.5t-9 -2.5q-3 0 -4 3t-1 5q0 6 15.5 19t37 28t43.5 29t34 21z" />
    <glyph glyph-name="breve" unicode="&#x2d8;" horiz-adv-x="300"
d="M2 539q0 3 4.5 5.5t10 4t10.5 2t6 0.5q5 0 7 -3q9 -21 26 -34t44 -17l-1 1q1 0 1.5 -0.5t1.5 -0.5h24q4 0 7 1h3l12 2h-1q1 0 1.5 0.5t1.5 0.5q-1 0 -1 -1q2 1 5.5 2t5.5 1l4 2h1l-2 -1h1l6 3q4 1 7 2t7 3l-2 -1q1 0 2 1q1 0 1.5 0.5t1.5 0.5l18 8h-1q-1 0 0.5 1t2.5 1
l8 5l14 10q4 2 5 4l9 7q5 5 12 7t13 3q2 0 7 -1t5 -3q0 -1 -2 -3q-33 -32 -81.5 -52t-102.5 -20q-32 0 -60 13t-42 45v1z" />
    <glyph glyph-name="caron" unicode="&#x2c7;" horiz-adv-x="255"
d="M260 530q0 -2 -0.5 -2.5t-5.5 -3.5q-19 -13 -38 -27t-36.5 -26t-32.5 -20t-26 -8q-10 0 -19 4.5t-17 9.5q-7 4 -20.5 13.5l-27 19t-23.5 18.5t-10 12q0 5 9 7.5t16 2.5q6 0 16 -6t21 -14t22 -16.5t19 -13.5l19 -11q0 -1 1 -1h2q3 0 15 6t27.5 15t32.5 20t32 20q4 2 9 4
t9 2q6 0 6 -5z" />
    <glyph glyph-name="circumflex" unicode="&#x2c6;" horiz-adv-x="345"
d="M64 468q0 2 0.5 3t5.5 4q17 13 34.5 27t33.5 26t29.5 20t23.5 8q9 0 17.5 -4.5t15.5 -9.5t19.5 -14t24.5 -19t21 -18.5t9 -12.5q0 -5 -8.5 -7.5t-15.5 -2.5t-21 12t-23 20l-38 27l-6 3h-1q-3 0 -14 -6t-25.5 -15t-30.5 -19.5t-29 -20.5q-4 -2 -8.5 -4t-8.5 -2q-5 0 -5 5z
" />
    <glyph glyph-name="dieresis" unicode="&#xa8;" horiz-adv-x="293"
d="M102 402q5 -2 7.5 -9.5t2.5 -12.5q0 -13 -10.5 -22t-21.5 -9q-9 0 -10.5 12t-1.5 15q2 10 9 18.5t18 8.5q4 0 7 -1zM208 402q5 -2 7.5 -9.5t2.5 -12.5q0 -13 -10.5 -22t-21.5 -9q-9 0 -10.5 12t-1.5 15q2 10 9 18.5t18 8.5q4 0 7 -1z" />
    <glyph glyph-name="dotaccent" unicode="&#x2d9;" horiz-adv-x="112"
d="M68 402q5 -2 7.5 -9.5t2.5 -12.5q0 -13 -10.5 -22t-21.5 -9q-9 0 -10.5 12t-1.5 15q2 10 9 18.5t18 8.5q4 0 7 -1z" />
    <glyph glyph-name="hungarumlaut" unicode="&#x2dd;" horiz-adv-x="206"
d="M85 463q3 3 7 3q5 0 9 -5.5t4 -12.5q0 -6 -14 -24t-31 -37t-32.5 -33.5t-18.5 -14.5t-4.5 4t-1.5 6q0 5 4 9q20 26 38 53t40 52zM189 463q3 3 7 3q5 0 9 -5.5t4 -12.5q0 -6 -14 -24t-31 -37t-32.5 -33.5t-18.5 -14.5t-4.5 4t-1.5 6q0 5 4 9q20 26 38 53t40 52z" />
    <glyph glyph-name="ogonek" unicode="&#x2db;" horiz-adv-x="136"
d="M84 29l8 4t9 2q13 0 13 -9q0 -7 -6 -11l-5 -4q-7 -5 -15 -12t-14 -13l-1 -1l-15 -17l-8 -9q0 -8 -5 -15t-5 -12q0 -10 15 -10q9 0 24.5 5t37.5 19q8 5 12 6t7 1q5 0 5 -2q0 -6 -11 -14.5t-27 -16t-33.5 -13t-30.5 -5.5q-12 0 -22 6t-10 20q0 15 8 30t19.5 28t25 24
t24.5 19z" />
    <glyph glyph-name="ring" unicode="&#x2da;" horiz-adv-x="186"
d="M113 437q12 -4 22.5 -15t10.5 -25q0 -22 -19 -36.5t-39 -14.5q-16 0 -29.5 11t-13.5 31q0 17 14 33.5t41 16.5h6.5t6.5 -1zM116 380q1 3 1 9q0 4 -2 10t-5.5 12t-8 10t-10.5 4h-5q-6 -2 -9.5 -11t-3.5 -20t6.5 -22.5t17.5 -11.5l1.5 -0.5t4.5 1t6.5 5.5t6.5 14z" />
    <glyph glyph-name="uogonek" unicode="&#x173;" horiz-adv-x="522"
d="M530 114q5 3 14 5.5t15 2.5q4 0 4 -1q0 -3 -6 -7q-32 -24 -62.5 -49t-62.5 -45q-17 -11 -36 -27t-35 -32l-7 -9l-1 -1q-11 -18 -11 -28q0 -11 16 -11q10 0 26 5.5t40 19.5q13 9 19 9q5 0 5 -3q0 -6 -8 -10q-24 -18 -48 -29.5t-51 -11.5q-13 0 -23.5 6.5t-10.5 19.5
q0 20 12 37t23 28l7 7h-34q-18 1 -29.5 10.5t-18 24.5t-9 34t-2.5 39q0 31 3 60q-19 -29 -41.5 -57.5t-47.5 -51.5t-52 -37t-55 -14q-35 0 -48 20t-13 57q0 28 6.5 62t15 65.5t16.5 57.5t11 40q2 7 14 11.5t23 4.5q13 0 13 -7v-1q-6 -23 -14.5 -49.5t-16.5 -54.5t-13.5 -56
t-5.5 -54q0 -10 1 -21.5t4 -21t8 -16t13 -6.5q14 0 33 13.5t37.5 31.5t33.5 35.5t21 25.5q20 26 35 53.5t32 55.5q2 5 16.5 11t24.5 6q7 0 7 -5v-4q-2 -26 -9 -65t-7 -78q0 -16 1.5 -32.5t7 -29.5t15 -21.5t24.5 -8.5q21 0 47 12t52 28.5t48 32.5t34 24z" />
    <glyph glyph-name="aogonek" unicode="&#x105;" horiz-adv-x="534"
d="M555 134q5 5 12.5 7t14.5 2q11 0 11 -6q0 -9 -22.5 -28.5t-55 -42t-67.5 -43t-60 -29.5l-8 -3q-12 -5 -36 -18t-43 -36l-3 -3q0 -8 -5 -15t-5 -12q0 -6 4.5 -8t10.5 -2q10 0 25 5t38 19q11 7 17 7q7 0 7 -2q0 -7 -12 -15.5t-28.5 -16t-34 -12.5t-28.5 -5q-13 0 -22.5 6.5
t-9.5 20.5q0 17 11 33.5t22 27.5l18 17q-21 6 -34 18.5t-19.5 30.5t-8.5 39t-2 43q-8 -6 -29.5 -24t-50 -37t-59 -34t-54.5 -15q-20 0 -34 14t-14 41q0 35 24.5 77t61 79t78 61.5t76.5 24.5q33 0 51 -24q3 8 11.5 21t25.5 13q12 0 17 -6q-2 -10 -11 -32t-19 -50t-18 -58
t-8 -55q0 -54 17.5 -75.5t44.5 -21.5q24 0 52.5 13.5t56.5 32.5t53 40t41 36zM151 85q12 9 30.5 25t35.5 37t31 44.5t17 47.5q-13 32 -41 32q-26 0 -55.5 -23.5t-54 -56t-41 -67t-16.5 -55.5t18 -21q11 0 29.5 8.5t46.5 28.5z" />
    <glyph glyph-name="eogonek" unicode="&#x119;" horiz-adv-x="343"
d="M145 -38q0 -8 -5 -15t-5 -12q0 -6 4.5 -8t10.5 -2q10 0 25 5t38 19q11 7 17 7q7 0 7 -2q0 -7 -12 -15.5t-28.5 -16t-34 -12.5t-28.5 -5q-13 0 -22.5 6.5t-9.5 20.5q0 21 15 39.5t28 31.5q-17 -3 -33 -3q-35 0 -56.5 13t-33 31t-15.5 36t-5 28q-1 5 -1 16q0 39 13 72.5
t32.5 59t42.5 40t43 14.5t31 -11t11 -28q0 -21 -18 -51q-7 -11 -24 -28.5t-34.5 -34.5t-31 -29.5t-13.5 -14.5q0 -10 4.5 -23.5t13.5 -26t23 -21t34 -8.5q33 0 67.5 11.5t66.5 29t60.5 38t48.5 37.5q2 2 5 2q4 0 8 -3.5t4 -6.5q0 -2 -1 -2q-26 -25 -66.5 -55t-88.5 -53
q-11 -5 -28.5 -16.5t-30.5 -23.5l-4 -3q-1 -1 -1.5 -2.5t-2.5 -1.5l-12 -13q-2 -2 -3 -4l-2 -4zM59 195q-5 -11 -6.5 -26t-2.5 -29q15 13 31 30.5t30 32.5q4 4 9.5 11.5t10.5 16.5t9 18t4 16q0 8 -6 11t-11 3q-14 0 -25 -10t-19.5 -23.5t-14.5 -28t-9 -22.5z" />
    <glyph glyph-name="Aacute" unicode="&#xc1;"
d="M869 196q5 4 12.5 6t12.5 2q10 0 10 -5t-10 -12q-47 -38 -101 -63t-112 -39q-5 -42 -10 -86.5t-5 -89.5q0 -34 4 -67t15 -65q0 -2 0.5 -2.5t0.5 -1.5q0 -6 -7 -6q-17 0 -27 19t-15 46t-7 57t-2 52q0 31 2 64t5 71q-41 -7 -86 -7q-57 0 -111.5 11.5t-116.5 25.5
q0 -1 -1 -2q-16 -19 -44 -40t-62 -38t-70 -28.5t-67 -11.5q-30 0 -53 13.5t-23 42.5q0 28 16 49.5t41.5 36.5t56.5 23t62 8q30 0 61 -4.5t63 -10.5q63 85 110.5 179t93.5 190q17 36 34 74.5t37.5 76t44.5 71.5t56 60q34 28 55 28q25 0 34.5 -31t9.5 -75q0 -33 -3.5 -68.5
t-8 -67t-9.5 -55.5t-6 -33q-17 -96 -34 -190t-30 -190q50 10 96 30t88 53zM516 105q14 -2 28.5 -2h28.5q32 0 64 3q10 106 29.5 207.5t37.5 206.5q10 58 19 111.5t9 119.5q0 14 -2 24.5t-8 10.5q-7 0 -17.5 -10.5t-21.5 -25.5t-21.5 -31t-16.5 -27q-39 -67 -72.5 -139
t-68 -144t-73 -142t-86.5 -133q42 -9 84.5 -18t86.5 -11zM58 20q10 -5 26 -5q19 0 44.5 6.5t52.5 19.5t52.5 31t44.5 42q-29 5 -57 8t-56 3q-25 0 -48.5 -6t-41.5 -16t-28.5 -23.5t-10.5 -29.5q0 -18 22 -30zM817 959q4 2 6 2q5 0 8 -5.5t3 -11.5q0 -11 -7 -15
q-32 -20 -56.5 -37t-57.5 -35q-5 -2 -10 -4.5t-8 -2.5q-4 0 -4.5 3t-0.5 5q0 6 15 19.5t35.5 29t42 30t34.5 22.5z" />
    <glyph glyph-name="Abreve" unicode="&#x102;" horiz-adv-x="837"
d="M869 196q5 4 12.5 6t12.5 2q10 0 10 -5t-10 -12q-47 -38 -101 -63t-112 -39q-5 -42 -10 -86.5t-5 -89.5q0 -34 4 -67t15 -65q0 -2 0.5 -2.5t0.5 -1.5q0 -6 -7 -6q-17 0 -27 19t-15 46t-7 57t-2 52q0 31 2 64t5 71q-41 -7 -86 -7q-57 0 -111.5 11.5t-116.5 25.5
q0 -1 -1 -2q-16 -19 -44 -40t-62 -38t-70 -28.5t-67 -11.5q-30 0 -53 13.5t-23 42.5q0 28 16 49.5t41.5 36.5t56.5 23t62 8q30 0 61 -4.5t63 -10.5q63 85 110.5 179t93.5 190q17 36 34 74.5t37.5 76t44.5 71.5t56 60q34 28 55 28q25 0 34.5 -31t9.5 -75q0 -33 -3.5 -68.5
t-8 -67t-9.5 -55.5t-6 -33q-17 -96 -34 -190t-30 -190q50 10 96 30t88 53zM516 105q14 -2 28.5 -2h28.5q32 0 64 3q10 106 29.5 207.5t37.5 206.5q10 58 19 111.5t9 119.5q0 14 -2 24.5t-8 10.5q-7 0 -17.5 -10.5t-21.5 -25.5t-21.5 -31t-16.5 -27q-39 -67 -72.5 -139
t-68 -144t-73 -142t-86.5 -133q42 -9 84.5 -18t86.5 -11zM58 20q10 -5 26 -5q19 0 44.5 6.5t52.5 19.5t52.5 31t44.5 42q-29 5 -57 8t-56 3q-25 0 -48.5 -6t-41.5 -16t-28.5 -23.5t-10.5 -29.5q0 -18 22 -30zM614 937q0 3 4.5 5.5t10 4t10 2t5.5 0.5q8 0 9 -3q18 -38 60 -48
l11 -2q5 -1 13 -1h12q2 1 6 1l18 3q4 0 9 3h3q1 0 3 1t3 1t2 1l13 5h1l-2 -1l2 1l9 5l11 6q-2 1 4.5 1t20.5 14l5 4q9 9 16 12t18 5q2 0 6.5 -0.5t4.5 -2.5t-2 -4q-31 -29 -80 -50t-104 -21q-32 0 -59.5 12.5t-42.5 44.5v1z" />
    <glyph glyph-name="Acircumflex" unicode="&#xc2;" horiz-adv-x="840"
d="M869 196q5 4 12.5 6t12.5 2q10 0 10 -5t-10 -12q-47 -38 -101 -63t-112 -39q-5 -42 -10 -86.5t-5 -89.5q0 -34 4 -67t15 -65q0 -2 0.5 -2.5t0.5 -1.5q0 -6 -7 -6q-17 0 -27 19t-15 46t-7 57t-2 52q0 31 2 64t5 71q-41 -7 -86 -7q-57 0 -111.5 11.5t-116.5 25.5
q0 -1 -1 -2q-16 -19 -44 -40t-62 -38t-70 -28.5t-67 -11.5q-30 0 -53 13.5t-23 42.5q0 28 16 49.5t41.5 36.5t56.5 23t62 8q30 0 61 -4.5t63 -10.5q63 85 110.5 179t93.5 190q17 36 34 74.5t37.5 76t44.5 71.5t56 60q34 28 55 28q25 0 34.5 -31t9.5 -75q0 -33 -3.5 -68.5
t-8 -67t-9.5 -55.5t-6 -33q-17 -96 -34 -190t-30 -190q50 10 96 30t88 53zM516 105q14 -2 28.5 -2h28.5q32 0 64 3q10 106 29.5 207.5t37.5 206.5q10 58 19 111.5t9 119.5q0 14 -2 24.5t-8 10.5q-7 0 -17.5 -10.5t-21.5 -25.5t-21.5 -31t-16.5 -27q-39 -67 -72.5 -139
t-68 -144t-73 -142t-86.5 -133q42 -9 84.5 -18t86.5 -11zM58 20q10 -5 26 -5q19 0 44.5 6.5t52.5 19.5t52.5 31t44.5 42q-29 5 -57 8t-56 3q-25 0 -48.5 -6t-41.5 -16t-28.5 -23.5t-10.5 -29.5q0 -18 22 -30zM618 865q0 1 6 6q17 12 35 25.5t34.5 24.5t30.5 18.5t23 7.5
q10 0 18.5 -5t16.5 -10q6 -5 18 -14t24 -19.5t20.5 -20t8.5 -13.5q0 -5 -7.5 -7t-14.5 -2q-4 0 -10 4t-12 9.5t-12.5 11t-10.5 9.5l-25 20q-8 6 -12 8l-7 4h-1q-3 0 -14 -5.5t-25.5 -14t-31 -18.5t-29.5 -19q-8 -5 -17 -5q-6 0 -6 5z" />
    <glyph glyph-name="Adieresis" unicode="&#xc4;"
d="M869 196q5 4 12.5 6t12.5 2q10 0 10 -5t-10 -12q-47 -38 -101 -63t-112 -39q-5 -42 -10 -86.5t-5 -89.5q0 -34 4 -67t15 -65q0 -2 0.5 -2.5t0.5 -1.5q0 -6 -7 -6q-17 0 -27 19t-15 46t-7 57t-2 52q0 31 2 64t5 71q-41 -7 -86 -7q-57 0 -111.5 11.5t-116.5 25.5
q0 -1 -1 -2q-16 -19 -44 -40t-62 -38t-70 -28.5t-67 -11.5q-30 0 -53 13.5t-23 42.5q0 28 16 49.5t41.5 36.5t56.5 23t62 8q30 0 61 -4.5t63 -10.5q63 85 110.5 179t93.5 190q17 36 34 74.5t37.5 76t44.5 71.5t56 60q34 28 55 28q25 0 34.5 -31t9.5 -75q0 -33 -3.5 -68.5
t-8 -67t-9.5 -55.5t-6 -33q-17 -96 -34 -190t-30 -190q50 10 96 30t88 53zM516 105q14 -2 28.5 -2h28.5q32 0 64 3q10 106 29.5 207.5t37.5 206.5q10 58 19 111.5t9 119.5q0 14 -2 24.5t-8 10.5q-7 0 -17.5 -10.5t-21.5 -25.5t-21.5 -31t-16.5 -27q-39 -67 -72.5 -139
t-68 -144t-73 -142t-86.5 -133q42 -9 84.5 -18t86.5 -11zM58 20q10 -5 26 -5q19 0 44.5 6.5t52.5 19.5t52.5 31t44.5 42q-29 5 -57 8t-56 3q-25 0 -48.5 -6t-41.5 -16t-28.5 -23.5t-10.5 -29.5q0 -18 22 -30zM815 924q5 -2 7.5 -9.5t2.5 -12.5q0 -13 -10.5 -22t-21.5 -9
q-9 0 -10.5 12t-1.5 15q2 10 9 18.5t18 8.5q4 0 7 -1zM709 924q5 -2 7.5 -9.5t2.5 -12.5q0 -13 -10.5 -22t-21.5 -9q-9 0 -10.5 12t-1.5 15q2 10 9 18.5t18 8.5q4 0 7 -1z" />
    <glyph glyph-name="Amacron" unicode="&#x100;"
d="M869 196q5 4 12.5 6t12.5 2q10 0 10 -5t-10 -12q-47 -38 -101 -63t-112 -39q-5 -42 -10 -86.5t-5 -89.5q0 -34 4 -67t15 -65q0 -2 0.5 -2.5t0.5 -1.5q0 -6 -7 -6q-17 0 -27 19t-15 46t-7 57t-2 52q0 31 2 64t5 71q-41 -7 -86 -7q-57 0 -111.5 11.5t-116.5 25.5
q0 -1 -1 -2q-16 -19 -44 -40t-62 -38t-70 -28.5t-67 -11.5q-30 0 -53 13.5t-23 42.5q0 28 16 49.5t41.5 36.5t56.5 23t62 8q30 0 61 -4.5t63 -10.5q63 85 110.5 179t93.5 190q17 36 34 74.5t37.5 76t44.5 71.5t56 60q34 28 55 28q25 0 34.5 -31t9.5 -75q0 -33 -3.5 -68.5
t-8 -67t-9.5 -55.5t-6 -33q-17 -96 -34 -190t-30 -190q50 10 96 30t88 53zM516 105q14 -2 28.5 -2h28.5q32 0 64 3q10 106 29.5 207.5t37.5 206.5q10 58 19 111.5t9 119.5q0 14 -2 24.5t-8 10.5q-7 0 -17.5 -10.5t-21.5 -25.5t-21.5 -31t-16.5 -27q-39 -67 -72.5 -139
t-68 -144t-73 -142t-86.5 -133q42 -9 84.5 -18t86.5 -11zM58 20q10 -5 26 -5q19 0 44.5 6.5t52.5 19.5t52.5 31t44.5 42q-29 5 -57 8t-56 3q-25 0 -48.5 -6t-41.5 -16t-28.5 -23.5t-10.5 -29.5q0 -18 22 -30zM611 864q-35 0 -35 12q0 6 11 12t30 7q64 2 128.5 7t128.5 5
q27 0 27 -11q0 -7 -15.5 -12t-40.5 -8.5t-57 -5.5t-64 -3t-62 -1.5t-51 -1.5z" />
    <glyph glyph-name="Aogonek" unicode="&#x104;"
d="M869 196q5 4 12.5 6t12.5 2q10 0 10 -5t-10 -12q-47 -38 -101 -63t-112 -39q-5 -42 -10 -86.5t-5 -89.5q0 -34 4 -67t15 -65v-4q0 -5 -4.5 -7.5t-8.5 -4.5l-33 -21q-1 0 -2.5 -1.5t-2.5 -1.5l-21 -18l-2 -2q-14 -17 -14 -27q0 -11 20 -11q10 0 24 3.5t34 11.5q11 4 17 4
q7 0 7 -3q0 -5 -10.5 -11t-25.5 -11t-31 -8.5t-26 -3.5q-14 0 -28.5 6t-14.5 22q0 15 10 29t24 26t30 21.5t28 15.5q-5 7 -8 15q-11 36 -15 71.5t-4 73.5q0 31 2 64t5 71q-41 -7 -86 -7q-57 0 -111.5 11.5t-116.5 25.5q0 -1 -1 -2q-16 -19 -44 -40t-62 -38t-70 -28.5
t-67 -11.5q-30 0 -53 13.5t-23 42.5q0 28 16 49.5t41.5 36.5t56.5 23t62 8q30 0 61 -4.5t63 -10.5q63 85 110.5 179t93.5 190q17 36 34 74.5t37.5 76t44.5 71.5t56 60q34 28 55 28q25 0 34.5 -31t9.5 -75q0 -33 -3.5 -68.5t-8 -67t-9.5 -55.5t-6 -33q-17 -96 -34 -190
t-30 -190q50 10 96 30t88 53zM637 106q10 106 29.5 207.5t37.5 206.5q10 58 19 111.5t9 119.5q0 14 -2 24.5t-8 10.5q-7 0 -17.5 -10.5t-21.5 -25.5t-21.5 -31t-16.5 -27q-39 -67 -72.5 -139t-68 -144t-73 -142t-86.5 -133q57 -12 112.5 -21.5t115.5 -9.5q32 0 64 3zM58 20
q10 -5 26 -5q19 0 44.5 6.5t52.5 19.5t52.5 31t44.5 42q-29 5 -57 8t-56 3q-25 0 -48.5 -6t-41.5 -16t-28.5 -23.5t-10.5 -29.5q0 -18 22 -30z" />
    <glyph glyph-name="Aring" unicode="&#xc5;"
d="M869 196q5 4 12.5 6t12.5 2q10 0 10 -5t-10 -12q-47 -38 -101 -63t-112 -39q-5 -42 -10 -86.5t-5 -89.5q0 -34 4 -67t15 -65q0 -2 0.5 -2.5t0.5 -1.5q0 -6 -7 -6q-17 0 -27 19t-15 46t-7 57t-2 52q0 31 2 64t5 71q-41 -7 -86 -7q-57 0 -111.5 11.5t-116.5 25.5
q0 -1 -1 -2q-16 -19 -44 -40t-62 -38t-70 -28.5t-67 -11.5q-30 0 -53 13.5t-23 42.5q0 28 16 49.5t41.5 36.5t56.5 23t62 8q30 0 61 -4.5t63 -10.5q63 85 110.5 179t93.5 190q17 36 34 74.5t37.5 76t44.5 71.5t56 60q34 28 55 28q25 0 34.5 -31t9.5 -75q0 -33 -3.5 -68.5
t-8 -67t-9.5 -55.5t-6 -33q-17 -96 -34 -190t-30 -190q50 10 96 30t88 53zM516 105q14 -2 28.5 -2h28.5q32 0 64 3q10 106 29.5 207.5t37.5 206.5q10 58 19 111.5t9 119.5q0 14 -2 24.5t-8 10.5q-7 0 -17.5 -10.5t-21.5 -25.5t-21.5 -31t-16.5 -27q-39 -67 -72.5 -139
t-68 -144t-73 -142t-86.5 -133q42 -9 84.5 -18t86.5 -11zM58 20q10 -5 26 -5q19 0 44.5 6.5t52.5 19.5t52.5 31t44.5 42q-29 5 -57 8t-56 3q-25 0 -48.5 -6t-41.5 -16t-28.5 -23.5t-10.5 -29.5q0 -18 22 -30zM775 956q14 -4 25.5 -15.5t11.5 -27.5q0 -25 -20 -42t-45 -17
q-19 0 -34 13t-15 35q0 8 4 18t11.5 18.5t19 14t26.5 5.5q11 0 16 -2zM779 892q1 3 1 9q0 11 -8.5 26.5t-23.5 15.5q-8 0 -13 -11t-5 -23q0 -11 6.5 -25.5t19.5 -14.5q5 -1 9 1q9 3 14 22z" />
    <glyph glyph-name="Atilde" unicode="&#xc3;" horiz-adv-x="843"
d="M869 196q5 4 12.5 6t12.5 2q10 0 10 -5t-10 -12q-47 -38 -101 -63t-112 -39q-5 -42 -10 -86.5t-5 -89.5q0 -34 4 -67t15 -65q0 -2 0.5 -2.5t0.5 -1.5q0 -6 -7 -6q-17 0 -27 19t-15 46t-7 57t-2 52q0 31 2 64t5 71q-41 -7 -86 -7q-57 0 -111.5 11.5t-116.5 25.5
q0 -1 -1 -2q-16 -19 -44 -40t-62 -38t-70 -28.5t-67 -11.5q-30 0 -53 13.5t-23 42.5q0 28 16 49.5t41.5 36.5t56.5 23t62 8q30 0 61 -4.5t63 -10.5q63 85 110.5 179t93.5 190q17 36 34 74.5t37.5 76t44.5 71.5t56 60q34 28 55 28q25 0 34.5 -31t9.5 -75q0 -33 -3.5 -68.5
t-8 -67t-9.5 -55.5t-6 -33q-17 -96 -34 -190t-30 -190q50 10 96 30t88 53zM516 105q14 -2 28.5 -2h28.5q32 0 64 3q10 106 29.5 207.5t37.5 206.5q10 58 19 111.5t9 119.5q0 14 -2 24.5t-8 10.5q-7 0 -17.5 -10.5t-21.5 -25.5t-21.5 -31t-16.5 -27q-39 -67 -72.5 -139
t-68 -144t-73 -142t-86.5 -133q42 -9 84.5 -18t86.5 -11zM58 20q10 -5 26 -5q19 0 44.5 6.5t52.5 19.5t52.5 31t44.5 42q-29 5 -57 8t-56 3q-25 0 -48.5 -6t-41.5 -16t-28.5 -23.5t-10.5 -29.5q0 -18 22 -30zM818 887q9 0 16.5 5t14 11t13.5 11t14 5q5 0 9.5 -1t4.5 -5
q0 -2 -3 -6q-27 -44 -75 -44q-18 0 -34 6.5t-32 14.5t-32 14.5t-34 6.5q-15 0 -25.5 -4.5t-18 -9.5t-11.5 -9.5t-5 -4.5q-6 0 -6 6q0 10 8.5 18.5t20 13.5t24 8t20.5 3q15 0 29 -4t28 -10l28 -12t29 -10l7 -2q4 -1 10 -1z" />
    <glyph glyph-name="AE" unicode="&#xc6;" horiz-adv-x="1267"
d="M1259 234q6 6 14.5 9t14.5 3q9 0 9 -6q0 -5 -9 -13q-45 -40 -96.5 -80t-107.5 -72.5t-116 -53t-123 -20.5q-27 0 -55 4t-54 13.5t-48 24.5t-37 37q-4 -27 -5.5 -54t-1.5 -54q0 -46 7 -90t24 -84q1 -2 1 -5q0 -4 -5 -4q-16 0 -28.5 21t-21.5 54t-14 73t-5 78
q0 53 7.5 112.5t18.5 122.5q-24 -16 -58 -31.5t-74.5 -29t-85 -25t-89.5 -19.5l-28 -39l-2 -2q-17 -23 -42.5 -45.5t-54 -40t-59 -28.5t-58.5 -11t-52 13.5t-24 43.5q0 37 24 61t64.5 39t93 22.5t108.5 12.5q55 81 99 167.5t86 174.5q17 36 34 74.5t37.5 76t44.5 71.5t56 60
q34 28 55 28q13 0 21.5 -8.5t13.5 -22.5t7 -33t2 -41q0 -33 -3.5 -68.5t-8.5 -67.5t-9.5 -56t-5.5 -33l-19 -108q46 61 108.5 110t129.5 87q-27 -3 -52 -3q-24 0 -46 3t-38.5 11t-26 21.5t-9.5 34.5q-1 8 1.5 17.5t7.5 20.5q16 36 47.5 66t70 51.5t81 33t81.5 11.5
q42 0 68 -12t26 -23q0 -4 -7 -4q-17 0 -35.5 5t-37.5 5q-43 0 -88.5 -14.5t-83 -37t-61.5 -50t-24 -52.5q0 -15 9.5 -24.5t25.5 -15.5t36 -8.5t40 -2.5q34 0 67 5t55 12q7 2 15 5.5t14 3.5q8 0 13 -7t5 -15t-3 -8.5t-11 -4.5q-69 -24 -140.5 -64.5t-129 -94t-94 -118
t-36.5 -136.5q0 -40 14 -68.5t38 -47t56.5 -27.5t69.5 -9q57 0 111 16.5t105 44t98 62t88 70.5zM617 298q5 5 11 9.5t11 9.5q10 53 19 104t17 99q10 58 19 112t9 120q0 14 -2.5 24t-7.5 10q-6 0 -16.5 -10t-21.5 -24.5t-21.5 -31t-17.5 -28.5q-33 -57 -63.5 -120
t-62.5 -128.5t-67.5 -132.5t-78.5 -132h2q14 2 37 8t43 14l10 3q1 1 3 1q24 9 51.5 19t47.5 24l5 2l43 26l18 13l12 8q0 1 1 1zM61 17q10 -5 24 -5q18 0 42 7.5t50 23t51.5 40t46.5 58.5l-28 -2q-14 -1 -27 -2t-27.5 -3t-32 -5.5t-41.5 -9.5q-18 0 -33.5 -8.5t-26 -19.5
t-16.5 -22.5t-6 -18.5q0 -22 24 -33z" />
    <glyph glyph-name="AEacute" unicode="&#x1fc;" horiz-adv-x="1270"
d="M1259 234q6 6 14.5 9t14.5 3q9 0 9 -6q0 -5 -9 -13q-45 -40 -96.5 -80t-107.5 -72.5t-116 -53t-123 -20.5q-27 0 -55 4t-54 13.5t-48 24.5t-37 37q-4 -27 -5.5 -54t-1.5 -54q0 -46 7 -90t24 -84q1 -2 1 -5q0 -4 -5 -4q-16 0 -28.5 21t-21.5 54t-14 73t-5 78
q0 53 7.5 112.5t18.5 122.5q-24 -16 -58 -31.5t-74.5 -29t-85 -25t-89.5 -19.5l-28 -39l-2 -2q-17 -23 -42.5 -45.5t-54 -40t-59 -28.5t-58.5 -11t-52 13.5t-24 43.5q0 37 24 61t64.5 39t93 22.5t108.5 12.5q55 81 99 167.5t86 174.5q17 36 34 74.5t37.5 76t44.5 71.5t56 60
q34 28 55 28q13 0 21.5 -8.5t13.5 -22.5t7 -33t2 -41q0 -33 -3.5 -68.5t-8.5 -67.5t-9.5 -56t-5.5 -33l-19 -108q46 61 108.5 110t129.5 87q-27 -3 -52 -3q-24 0 -46 3t-38.5 11t-26 21.5t-9.5 34.5q-1 8 1.5 17.5t7.5 20.5q16 36 47.5 66t70 51.5t81 33t81.5 11.5
q42 0 68 -12t26 -23q0 -4 -7 -4q-17 0 -35.5 5t-37.5 5q-43 0 -88.5 -14.5t-83 -37t-61.5 -50t-24 -52.5q0 -15 9.5 -24.5t25.5 -15.5t36 -8.5t40 -2.5q34 0 67 5t55 12q7 2 15 5.5t14 3.5q8 0 13 -7t5 -15t-3 -8.5t-11 -4.5q-69 -24 -140.5 -64.5t-129 -94t-94 -118
t-36.5 -136.5q0 -40 14 -68.5t38 -47t56.5 -27.5t69.5 -9q57 0 111 16.5t105 44t98 62t88 70.5zM617 298q5 5 11 9.5t11 9.5q10 53 19 104t17 99q10 58 19 112t9 120q0 14 -2.5 24t-7.5 10q-6 0 -16.5 -10t-21.5 -24.5t-21.5 -31t-17.5 -28.5q-33 -57 -63.5 -120
t-62.5 -128.5t-67.5 -132.5t-78.5 -132h2q14 2 37 8t43 14l10 3q1 1 3 1q24 9 51.5 19t47.5 24l5 2l43 26l18 13l12 8q0 1 1 1zM61 17q10 -5 24 -5q18 0 42 7.5t50 23t51.5 40t46.5 58.5l-28 -2q-14 -1 -27 -2t-27.5 -3t-32 -5.5t-41.5 -9.5q-18 0 -33.5 -8.5t-26 -19.5
t-16.5 -22.5t-6 -18.5q0 -22 24 -33zM915 969q4 2 7 2q6 0 9.5 -6t3.5 -14q0 -12 -8 -17q-18 -11 -34 -21.5t-31.5 -21t-31.5 -20.5t-35 -20q-5 -3 -11 -6t-10 -3t-5 3t-1 6q0 6 17.5 22t41.5 34.5t48.5 35.5t39.5 26z" />
    <glyph glyph-name="Cacute" unicode="&#x106;" horiz-adv-x="751"
d="M801 144q0 -2 0.5 -3.5t0.5 -3.5q0 -5 -4 -9.5t-17 -10.5q-10 -5 -37.5 -15.5t-61 -22.5t-67.5 -23.5t-57 -17.5q-2 0 -24.5 -6t-56 -13t-74 -12.5t-78.5 -5.5q-91 0 -153 21t-100 57t-54.5 84t-16.5 102q0 66 21 137t59 136q31 54 73.5 108t93 97t107.5 70t117 27
q35 0 60 -10t42 -27.5t28 -40t17 -46.5v-2q0 -3 -3.5 -6.5t-9.5 -3.5q-13 0 -20 7t-13 18t-12.5 23.5t-17.5 23.5t-29.5 18t-48.5 7q-12 0 -38.5 -5t-61 -20.5t-73.5 -43.5t-77 -74q-87 -105 -123 -196.5t-36 -164.5q0 -81 28.5 -130t73 -76t97.5 -35.5t102 -8.5
q67 0 148.5 15.5t191.5 50.5q12 4 27 10t28.5 11.5t25 9.5t17.5 4q5 0 6 -4zM585 1014q4 2 7 2q6 0 9.5 -6t3.5 -14q0 -12 -8 -17q-18 -11 -34 -21.5t-31.5 -21t-31.5 -20.5t-35 -20q-5 -3 -11 -6t-10 -3t-5 3t-1 6q0 6 17.5 22t41.5 34.5t48.5 35.5t39.5 26z" />
    <glyph glyph-name="Ccaron" unicode="&#x10c;" horiz-adv-x="761"
d="M801 144q0 -2 0.5 -3.5t0.5 -3.5q0 -5 -4 -9.5t-17 -10.5q-10 -5 -37.5 -15.5t-61 -22.5t-67.5 -23.5t-57 -17.5q-2 0 -24.5 -6t-56 -13t-74 -12.5t-78.5 -5.5q-91 0 -153 21t-100 57t-54.5 84t-16.5 102q0 66 21 137t59 136q31 54 73.5 108t93 97t107.5 70t117 27
q35 0 60 -10t42 -27.5t28 -40t17 -46.5v-2q0 -3 -3.5 -6.5t-9.5 -3.5q-13 0 -20 7t-13 18t-12.5 23.5t-17.5 23.5t-29.5 18t-48.5 7q-12 0 -38.5 -5t-61 -20.5t-73.5 -43.5t-77 -74q-87 -105 -123 -196.5t-36 -164.5q0 -81 28.5 -130t73 -76t97.5 -35.5t102 -8.5
q67 0 148.5 15.5t191.5 50.5q12 4 27 10t28.5 11.5t25 9.5t17.5 4q5 0 6 -4zM626 992q0 -2 -1 -3t-6 -5q-17 -12 -30.5 -21t-25.5 -17.5t-23.5 -16t-26.5 -16.5q-9 -5 -20.5 -12.5t-22.5 -7.5q-12 0 -22 5.5t-19 10.5q-8 5 -23.5 15t-30.5 21.5t-26.5 21t-11.5 14.5t11 8
t19 3q4 0 11 -4t14.5 -9.5t15 -11.5t13.5 -10l32 -22l21 -12q2 0 1.5 -1t1.5 -1q4 0 17.5 7t31.5 17.5t37 22.5t36 23q5 2 10 4.5t10 2.5q7 0 7 -6z" />
    <glyph glyph-name="Ccedilla" unicode="&#xc7;" horiz-adv-x="751"
d="M801 144q0 -2 0.5 -3.5t0.5 -3.5q0 -5 -4 -9.5t-17 -10.5q-10 -5 -37.5 -15.5t-61 -22.5t-67.5 -23.5t-57 -17.5q-2 0 -24.5 -6t-56 -13t-74 -12.5t-78.5 -5.5h-18t-15 2q-2 -5 -6 -12.5t-4 -11.5q15 3 33 3q9 0 20.5 -1.5t21 -6t16 -12.5t6.5 -21q0 -26 -19.5 -44.5
t-48.5 -31t-62 -20t-60 -10.5q-5 0 -10 2t-5 7t6 6t19.5 2.5t35 6.5t52.5 17q17 7 27.5 14.5t16 14.5t7 12t1.5 6q0 20 -9.5 24.5t-15.5 4.5q-5 0 -9.5 -0.5t-9.5 -0.5l-16 -4q-7 -1 -14 -4t-14 -3q-6 0 -12 3t-6 9q0 12 5 27.5t10 28.5q-69 10 -116 33t-76 56t-42 75.5
t-13 92.5q0 66 21 137t59 136q31 54 73.5 108t93 97t107.5 70t117 27q35 0 60 -10t42 -27.5t28 -40t17 -46.5v-2q0 -3 -3.5 -6.5t-9.5 -3.5q-13 0 -20 7t-13 18t-12.5 23.5t-17.5 23.5t-29.5 18t-48.5 7q-12 0 -38.5 -5t-61 -20.5t-73.5 -43.5t-77 -74q-87 -105 -123 -196.5
t-36 -164.5q0 -81 28.5 -130t73 -76t97.5 -35.5t102 -8.5q67 0 148.5 15.5t191.5 50.5q12 4 27 10t28.5 11.5t25 9.5t17.5 4q5 0 6 -4z" />
    <glyph glyph-name="Ccircumflex" unicode="&#x108;" horiz-adv-x="772"
d="M801 144q0 -2 0.5 -3.5t0.5 -3.5q0 -5 -4 -9.5t-17 -10.5q-10 -5 -37.5 -15.5t-61 -22.5t-67.5 -23.5t-57 -17.5q-2 0 -24.5 -6t-56 -13t-74 -12.5t-78.5 -5.5q-91 0 -153 21t-100 57t-54.5 84t-16.5 102q0 66 21 137t59 136q31 54 73.5 108t93 97t107.5 70t117 27
q35 0 60 -10t42 -27.5t28 -40t17 -46.5v-2q0 -3 -3.5 -6.5t-9.5 -3.5q-13 0 -20 7t-13 18t-12.5 23.5t-17.5 23.5t-29.5 18t-48.5 7q-12 0 -38.5 -5t-61 -20.5t-73.5 -43.5t-77 -74q-87 -105 -123 -196.5t-36 -164.5q0 -81 28.5 -130t73 -76t97.5 -35.5t102 -8.5
q67 0 148.5 15.5t191.5 50.5q12 4 27 10t28.5 11.5t25 9.5t17.5 4q5 0 6 -4zM324 888q0 2 1.5 3t6.5 5q18 12 32 22t26 18.5t24.5 16.5t27.5 17q11 6 21.5 13.5t22.5 7.5t22.5 -6.5t20.5 -13.5q7 -6 22 -17.5t30 -24.5t26 -24.5t11 -16.5t-10 -8t-18 -3q-5 0 -12.5 4.5
t-15 11.5l-15 14t-13.5 12l-31 25l-21 14l-2 1q-1 0 -1 1q-5 0 -19 -7t-32.5 -17.5t-38.5 -23.5t-37 -24q-11 -7 -20 -7q-8 0 -8 7z" />
    <glyph glyph-name="Cdotaccent" unicode="&#x10a;" horiz-adv-x="764"
d="M801 144q0 -2 0.5 -3.5t0.5 -3.5q0 -5 -4 -9.5t-17 -10.5q-10 -5 -37.5 -15.5t-61 -22.5t-67.5 -23.5t-57 -17.5q-2 0 -24.5 -6t-56 -13t-74 -12.5t-78.5 -5.5q-91 0 -153 21t-100 57t-54.5 84t-16.5 102q0 66 21 137t59 136q31 54 73.5 108t93 97t107.5 70t117 27
q35 0 60 -10t42 -27.5t28 -40t17 -46.5v-2q0 -3 -3.5 -6.5t-9.5 -3.5q-13 0 -20 7t-13 18t-12.5 23.5t-17.5 23.5t-29.5 18t-48.5 7q-12 0 -38.5 -5t-61 -20.5t-73.5 -43.5t-77 -74q-87 -105 -123 -196.5t-36 -164.5q0 -81 28.5 -130t73 -76t97.5 -35.5t102 -8.5
q67 0 148.5 15.5t191.5 50.5q12 4 27 10t28.5 11.5t25 9.5t17.5 4q5 0 6 -4zM501 979q8 -2 13 -15.5t5 -22.5q0 -20 -15 -33.5t-32 -13.5q-7 0 -11 6t-6 13.5t-2.5 15t-0.5 10.5q2 15 11.5 28.5t25.5 13.5q4 0 12 -2z" />
    <glyph glyph-name="Dcaron" unicode="&#x10e;" horiz-adv-x="793"
d="M380 686q0 2 3.5 7.5t9 11.5t12 10.5t13.5 4.5q5 0 7 -7t2 -15v-8q-5 -84 -18 -173t-33 -173t-47 -157t-60 -125q39 -11 77.5 -20.5t78.5 -9.5q61 0 115 28t94.5 74t64 103.5t23.5 117.5q0 36 -9 72q-23 83 -74 143.5t-117.5 107.5t-142 84t-145.5 73q-6 3 -6 6
q0 5 10 8.5t21 3.5q9 0 19 -4q51 -26 107.5 -54t112 -60.5t106.5 -71t89.5 -85.5t61.5 -103.5t23 -124.5q0 -65 -27 -127.5t-74.5 -111.5t-111.5 -78.5t-138 -29.5q-60 0 -120 19l-54 17q-6 -10 -23 -26t-41 -31.5t-53.5 -27t-60.5 -11.5q-30 0 -52 17.5t-22 42.5
q0 19 11 35t28.5 27.5t38 17.5t38.5 6q29 0 57.5 -5t57.5 -12q24 36 43.5 83.5t35.5 100.5t28 110.5t20.5 113.5t13.5 108.5t7 97.5zM130 -15q24 11 46.5 27t39.5 37q-23 5 -46 9t-45 4q-38 0 -65 -17t-27 -43q0 -14 12 -22t32 -8q24 0 53 13zM592 937q0 -1 -6 -6
q-18 -12 -36 -26t-35 -25.5t-32 -19t-26 -7.5q-9 0 -17.5 4.5t-16.5 9.5q-7 4 -20 12.5t-26 18t-22.5 18t-9.5 12.5q0 5 8.5 7t15.5 2t8 -1l67 -47q8 -6 12 -8l8 -4h1q3 0 14 5.5t26 14.5t32 19.5t31 19.5q4 2 8.5 4t8.5 2q7 0 7 -5z" />
    <glyph glyph-name="Dcroat" unicode="&#x110;" horiz-adv-x="801"
d="M207 333q-29 0 -29 11q0 6 10.5 12t30.5 8l121 7q17 85 27 167t13 148q0 2 3.5 7.5t9 11.5t12 10.5t13.5 4.5q5 0 7 -7t2 -15v-8q-5 -77 -16 -157.5t-28 -158.5l98 8h9q27 0 27 -11q0 -6 -10.5 -12t-30.5 -8l-101 -8q-20 -84 -46.5 -157t-59.5 -124q39 -11 77.5 -20.5
t78.5 -9.5q61 0 115 28t94.5 74t64 103.5t23.5 117.5q0 36 -9 72q-23 83 -74 143.5t-117.5 107.5t-142 84t-145.5 73q-6 3 -6 6q0 5 10 8.5t21 3.5q9 0 19 -4q51 -26 107.5 -54t112 -60.5t106.5 -71t89.5 -85.5t61.5 -103.5t23 -124.5q0 -65 -27 -127.5t-74.5 -111.5
t-111.5 -78.5t-138 -29.5q-60 0 -120 19l-54 17q-6 -10 -23 -26t-41 -31.5t-53.5 -27t-60.5 -11.5q-30 0 -52 17.5t-22 42.5q0 19 11 35t28.5 27.5t38 17.5t38.5 6q29 0 57.5 -5t57.5 -12q34 51 59 120.5t42 147.5l-119 -7h-7zM130 -15q24 11 46.5 27t39.5 37q-23 5 -46 9
t-45 4q-38 0 -65 -17t-27 -43q0 -14 12 -22t32 -8q24 0 53 13z" />
    <glyph glyph-name="Eacute" unicode="&#xc9;" horiz-adv-x="599"
d="M476 846q26 -5 41 -15t15 -17q0 -4 -8 -4q-17 0 -35.5 5t-37.5 5q-43 0 -88.5 -15t-83 -37.5t-61.5 -50t-24 -52.5q0 -14 9.5 -23.5t25.5 -15.5t35.5 -8.5t39.5 -2.5q21 0 42.5 2t40.5 5.5t34 7.5t23 8v-1l7 3q2 1 5 1q8 0 13 -7t5 -15q0 -13 -14 -13
q-69 -24 -140.5 -64.5t-129 -94t-94 -118t-36.5 -136.5q0 -40 14 -68.5t38 -47t56.5 -27.5t69.5 -9q57 0 111 16.5t105 44t98 62t88 70.5q6 6 14.5 9t14.5 3q10 0 10 -6q0 -4 -10 -13q-45 -39 -96 -79.5t-107 -73t-116 -53t-123 -20.5q-41 0 -80.5 8.5t-70.5 29t-49.5 55
t-18.5 86.5q0 64 27 123t70.5 110t99.5 93.5t115 74.5q-26 -3 -51 -3q-24 0 -46 3.5t-38.5 11.5t-26.5 21.5t-10 34.5q-1 8 1.5 17.5t7.5 20.5q16 36 47.5 66t70 51.5t81 33t81.5 11.5q19 0 39 -3zM438 1005q4 2 7 2q6 0 9.5 -6t3.5 -14q0 -12 -8 -17q-18 -11 -34 -21.5
t-31.5 -21t-31.5 -20.5t-35 -20q-5 -3 -11 -6t-10 -3t-5 3t-1 6q0 6 17.5 22t41.5 34.5t48.5 35.5t39.5 26z" />
    <glyph glyph-name="Ebreve" unicode="&#x114;" horiz-adv-x="604"
d="M476 846q26 -5 41 -15t15 -17q0 -4 -8 -4q-17 0 -35.5 5t-37.5 5q-43 0 -88.5 -15t-83 -37.5t-61.5 -50t-24 -52.5q0 -14 9.5 -23.5t25.5 -15.5t35.5 -8.5t39.5 -2.5q21 0 42.5 2t40.5 5.5t34 7.5t23 8v-1l7 3q2 1 5 1q8 0 13 -7t5 -15q0 -13 -14 -13
q-69 -24 -140.5 -64.5t-129 -94t-94 -118t-36.5 -136.5q0 -40 14 -68.5t38 -47t56.5 -27.5t69.5 -9q57 0 111 16.5t105 44t98 62t88 70.5q6 6 14.5 9t14.5 3q10 0 10 -6q0 -4 -10 -13q-45 -39 -96 -79.5t-107 -73t-116 -53t-123 -20.5q-41 0 -80.5 8.5t-70.5 29t-49.5 55
t-18.5 86.5q0 64 27 123t70.5 110t99.5 93.5t115 74.5q-26 -3 -51 -3q-24 0 -46 3.5t-38.5 11.5t-26.5 21.5t-10 34.5q-1 8 1.5 17.5t7.5 20.5q16 36 47.5 66t70 51.5t81 33t81.5 11.5q19 0 39 -3zM232 951q0 4 4.5 6.5t9.5 4t10 2t6 0.5q6 0 8 -3q16 -38 60 -49l12 -2
q4 -1 12 -1h5q5 0 7 1h6h5.5t9.5 2q1 0 2 1q1 0 2 0.5t2 0.5l7 2q1 0 2 0.5t2 0.5l19 7h1l-2 -1l2 1l3 2l16 8q2 0 3.5 1.5t2.5 1.5l6 4l14 9l1 1l4 3q10 10 18.5 13.5t18.5 3.5q3 0 6 -0.5t3 -2.5q0 -1 -2 -3q-32 -31 -81.5 -51.5t-103.5 -20.5q-32 0 -59.5 12.5
t-41.5 44.5v1zM470 951h-1q0 1 1 1v-1z" />
    <glyph glyph-name="Ecaron" unicode="&#x11a;" horiz-adv-x="604"
d="M476 846q26 -5 41 -15t15 -17q0 -4 -8 -4q-17 0 -35.5 5t-37.5 5q-43 0 -88.5 -15t-83 -37.5t-61.5 -50t-24 -52.5q0 -14 9.5 -23.5t25.5 -15.5t35.5 -8.5t39.5 -2.5q21 0 42.5 2t40.5 5.5t34 7.5t23 8v-1l7 3q2 1 5 1q8 0 13 -7t5 -15q0 -13 -14 -13
q-69 -24 -140.5 -64.5t-129 -94t-94 -118t-36.5 -136.5q0 -40 14 -68.5t38 -47t56.5 -27.5t69.5 -9q57 0 111 16.5t105 44t98 62t88 70.5q6 6 14.5 9t14.5 3q10 0 10 -6q0 -4 -10 -13q-45 -39 -96 -79.5t-107 -73t-116 -53t-123 -20.5q-41 0 -80.5 8.5t-70.5 29t-49.5 55
t-18.5 86.5q0 64 27 123t70.5 110t99.5 93.5t115 74.5q-26 -3 -51 -3q-24 0 -46 3.5t-38.5 11.5t-26.5 21.5t-10 34.5q-1 8 1.5 17.5t7.5 20.5q16 36 47.5 66t70 51.5t81 33t81.5 11.5q19 0 39 -3zM494 999q0 -2 -0.5 -2.5t-5.5 -3.5q-19 -13 -38 -27t-36.5 -26t-32.5 -20
t-26 -8q-10 0 -19 4.5t-17 9.5q-7 4 -20.5 13.5l-27 19t-23.5 18.5t-10 12q0 5 9 7.5t16 2.5q6 0 16 -6t21 -14t22 -16.5t19 -13.5l19 -11q0 -1 1 -1h2q3 0 15 6t27.5 15t32.5 20t32 20q4 2 9 4t9 2q6 0 6 -5z" />
    <glyph glyph-name="Ecircumflex" unicode="&#xca;" horiz-adv-x="602"
d="M476 846q26 -5 41 -15t15 -17q0 -4 -8 -4q-17 0 -35.5 5t-37.5 5q-43 0 -88.5 -15t-83 -37.5t-61.5 -50t-24 -52.5q0 -14 9.5 -23.5t25.5 -15.5t35.5 -8.5t39.5 -2.5q21 0 42.5 2t40.5 5.5t34 7.5t23 8v-1l7 3q2 1 5 1q8 0 13 -7t5 -15q0 -13 -14 -13
q-69 -24 -140.5 -64.5t-129 -94t-94 -118t-36.5 -136.5q0 -40 14 -68.5t38 -47t56.5 -27.5t69.5 -9q57 0 111 16.5t105 44t98 62t88 70.5q6 6 14.5 9t14.5 3q10 0 10 -6q0 -4 -10 -13q-45 -39 -96 -79.5t-107 -73t-116 -53t-123 -20.5q-41 0 -80.5 8.5t-70.5 29t-49.5 55
t-18.5 86.5q0 64 27 123t70.5 110t99.5 93.5t115 74.5q-26 -3 -51 -3q-24 0 -46 3.5t-38.5 11.5t-26.5 21.5t-10 34.5q-1 8 1.5 17.5t7.5 20.5q16 36 47.5 66t70 51.5t81 33t81.5 11.5q19 0 39 -3zM201 886q0 2 7 8q17 13 30.5 24t25.5 20t24 17.5t26 18.5q11 8 21.5 15.5
t23.5 7.5q11 0 21.5 -5.5t20.5 -11.5q8 -5 23.5 -16t31.5 -23t27.5 -23t11.5 -16q0 -6 -11 -9.5t-20 -3.5q-4 0 -11 4.5t-15 11l-16 13t-13 10.5l-48 33q-3 2 -7 4l-2 1h-1q-4 0 -17.5 -7.5t-31 -19.5t-37.5 -26t-36 -26q-5 -3 -10 -5.5t-10 -2.5q-8 0 -8 7z" />
    <glyph glyph-name="Edieresis" unicode="&#xcb;" horiz-adv-x="602"
d="M476 846q26 -5 41 -15t15 -17q0 -4 -8 -4q-17 0 -35.5 5t-37.5 5q-43 0 -88.5 -15t-83 -37.5t-61.5 -50t-24 -52.5q0 -14 9.5 -23.5t25.5 -15.5t35.5 -8.5t39.5 -2.5q21 0 42.5 2t40.5 5.5t34 7.5t23 8v-1l7 3q2 1 5 1q8 0 13 -7t5 -15q0 -13 -14 -13
q-69 -24 -140.5 -64.5t-129 -94t-94 -118t-36.5 -136.5q0 -40 14 -68.5t38 -47t56.5 -27.5t69.5 -9q57 0 111 16.5t105 44t98 62t88 70.5q6 6 14.5 9t14.5 3q10 0 10 -6q0 -4 -10 -13q-45 -39 -96 -79.5t-107 -73t-116 -53t-123 -20.5q-41 0 -80.5 8.5t-70.5 29t-49.5 55
t-18.5 86.5q0 64 27 123t70.5 110t99.5 93.5t115 74.5q-26 -3 -51 -3q-24 0 -46 3.5t-38.5 11.5t-26.5 21.5t-10 34.5q-1 8 1.5 17.5t7.5 20.5q16 36 47.5 66t70 51.5t81 33t81.5 11.5q19 0 39 -3zM337 954q5 -2 7.5 -9.5t2.5 -12.5q0 -14 -10.5 -22.5t-22.5 -8.5
q-8 0 -9.5 12t-1.5 15q2 10 9 18.5t18 8.5q4 0 7 -1zM443 954q5 -2 7.5 -9.5t2.5 -12.5q0 -14 -10.5 -22.5t-22.5 -8.5q-8 0 -9.5 12t-1.5 15q2 10 9 18.5t18 8.5q4 0 7 -1z" />
    <glyph glyph-name="Edotaccent" unicode="&#x116;" horiz-adv-x="607"
d="M476 846q26 -5 41 -15t15 -17q0 -4 -8 -4q-17 0 -35.5 5t-37.5 5q-43 0 -88.5 -15t-83 -37.5t-61.5 -50t-24 -52.5q0 -14 9.5 -23.5t25.5 -15.5t35.5 -8.5t39.5 -2.5q21 0 42.5 2t40.5 5.5t34 7.5t23 8v-1l7 3q2 1 5 1q8 0 13 -7t5 -15q0 -13 -14 -13
q-69 -24 -140.5 -64.5t-129 -94t-94 -118t-36.5 -136.5q0 -40 14 -68.5t38 -47t56.5 -27.5t69.5 -9q57 0 111 16.5t105 44t98 62t88 70.5q6 6 14.5 9t14.5 3q10 0 10 -6q0 -4 -10 -13q-45 -39 -96 -79.5t-107 -73t-116 -53t-123 -20.5q-41 0 -80.5 8.5t-70.5 29t-49.5 55
t-18.5 86.5q0 64 27 123t70.5 110t99.5 93.5t115 74.5q-26 -3 -51 -3q-24 0 -46 3.5t-38.5 11.5t-26.5 21.5t-10 34.5q-1 8 1.5 17.5t7.5 20.5q16 36 47.5 66t70 51.5t81 33t81.5 11.5q19 0 39 -3zM392 972q8 -2 12.5 -11.5t4.5 -16.5q0 -17 -14.5 -31t-31.5 -14
q-5 0 -7.5 4.5t-4.5 10.5t-2.5 11.5t-0.5 7.5q2 14 12 27t26 13q2 0 3 -0.5t3 -0.5z" />
    <glyph glyph-name="Egrave" unicode="&#xc8;" horiz-adv-x="604"
d="M476 846q26 -5 41 -15t15 -17q0 -4 -8 -4q-17 0 -35.5 5t-37.5 5q-43 0 -88.5 -15t-83 -37.5t-61.5 -50t-24 -52.5q0 -14 9.5 -23.5t25.5 -15.5t35.5 -8.5t39.5 -2.5q21 0 42.5 2t40.5 5.5t34 7.5t23 8v-1l7 3q2 1 5 1q8 0 13 -7t5 -15q0 -13 -14 -13
q-69 -24 -140.5 -64.5t-129 -94t-94 -118t-36.5 -136.5q0 -40 14 -68.5t38 -47t56.5 -27.5t69.5 -9q57 0 111 16.5t105 44t98 62t88 70.5q6 6 14.5 9t14.5 3q10 0 10 -6q0 -4 -10 -13q-45 -39 -96 -79.5t-107 -73t-116 -53t-123 -20.5q-41 0 -80.5 8.5t-70.5 29t-49.5 55
t-18.5 86.5q0 64 27 123t70.5 110t99.5 93.5t115 74.5q-26 -3 -51 -3q-24 0 -46 3.5t-38.5 11.5t-26.5 21.5t-10 34.5q-1 8 1.5 17.5t7.5 20.5q16 36 47.5 66t70 51.5t81 33t81.5 11.5q19 0 39 -3zM276 979q-4 3 -4 8t6 9.5t14 4.5q4 0 9 -3q12 -11 32 -25.5t39 -29t33 -27
t14 -18.5q0 -3 -4.5 -5t-6.5 -2q-5 0 -9 4q-32 20 -63 40t-60 44z" />
    <glyph glyph-name="Emacron" unicode="&#x112;" horiz-adv-x="602"
d="M476 846q26 -5 41 -15t15 -17q0 -4 -8 -4q-17 0 -35.5 5t-37.5 5q-43 0 -88.5 -15t-83 -37.5t-61.5 -50t-24 -52.5q0 -14 9.5 -23.5t25.5 -15.5t35.5 -8.5t39.5 -2.5q21 0 42.5 2t40.5 5.5t34 7.5t23 8v-1l7 3q2 1 5 1q8 0 13 -7t5 -15q0 -13 -14 -13
q-69 -24 -140.5 -64.5t-129 -94t-94 -118t-36.5 -136.5q0 -40 14 -68.5t38 -47t56.5 -27.5t69.5 -9q57 0 111 16.5t105 44t98 62t88 70.5q6 6 14.5 9t14.5 3q10 0 10 -6q0 -4 -10 -13q-45 -39 -96 -79.5t-107 -73t-116 -53t-123 -20.5q-41 0 -80.5 8.5t-70.5 29t-49.5 55
t-18.5 86.5q0 64 27 123t70.5 110t99.5 93.5t115 74.5q-26 -3 -51 -3q-24 0 -46 3.5t-38.5 11.5t-26.5 21.5t-10 34.5q-1 8 1.5 17.5t7.5 20.5q16 36 47.5 66t70 51.5t81 33t81.5 11.5q19 0 39 -3zM238 899q-35 0 -35 12q0 6 11 12t30 7q64 2 128.5 7t128.5 5q27 0 27 -11
q0 -7 -15.5 -12t-40.5 -8.5t-57 -5.5t-64 -3t-62 -1.5t-51 -1.5z" />
    <glyph glyph-name="Eogonek" unicode="&#x118;" horiz-adv-x="712"
d="M745 142q7 0 7 -3q0 -7 -13 -20.5t-32.5 -26.5t-41.5 -22.5t-39 -9.5q-18 0 -27.5 10.5t-9.5 27.5q0 25 13 49q-39 -29 -80 -55.5t-84.5 -46.5t-89 -32t-92.5 -12q-41 0 -80.5 8.5t-70.5 29t-49.5 55t-18.5 86.5q0 64 27 123t70.5 110t99.5 94t115 75q-27 -3 -52 -3
q-24 0 -46 3t-38.5 11t-26 21.5t-9.5 34.5q-1 8 1.5 17.5t7.5 20.5q16 36 47.5 66t70 51.5t81 33t81.5 11.5q41 0 68 -12t27 -23q0 -4 -8 -4q-17 0 -35.5 5t-37.5 5q-43 0 -88.5 -15t-83 -37.5t-61.5 -50t-24 -52.5q0 -14 10 -23.5t25.5 -15.5t35.5 -8.5t40 -2.5q34 0 67 5
t55 12q7 2 15 5.5t14 3.5q8 0 13 -7t5 -15q0 -7 -3 -9t-11 -4q-69 -24 -140.5 -64.5t-129 -94t-94 -118t-36.5 -136.5q0 -40 14 -68.5t38 -47t56.5 -27.5t69.5 -9q57 0 111 16.5t105 44t98 62t88 70.5q7 6 15 9t15 3q9 0 9 -6q0 -4 -5 -9l-5 -5q-23 -18 -37.5 -37t-23 -35.5
t-12 -29t-3.5 -18.5q0 -18 21 -18q11 0 29.5 7.5t50.5 33.5q9 8 13.5 10t8.5 3z" />
    <glyph glyph-name="Gbreve" unicode="&#x11e;" horiz-adv-x="615"
d="M548 850q17 -1 17 -10q0 -7 -10 -13.5t-23 -6.5h-11q-37 0 -74 -17t-71.5 -42.5t-65 -55.5t-53.5 -55q-28 -30 -52 -59t-46 -61t-43 -70t-42 -86q-8 -19 -13.5 -44.5t-5.5 -52.5q0 -21 4 -41t13 -35.5t23.5 -24.5t35.5 -9q22 0 49 10q55 21 102 57t86.5 81t73 95.5
t62.5 101.5q4 7 14 11.5t20 4.5q7 0 12 -3.5t5 -11.5v-2q-8 -73 -21 -151.5t-31 -156.5q39 20 80.5 37.5t86.5 30.5q22 6 32 6q5 0 5 -2l-25.5 -13t-60.5 -30t-71 -35.5t-56 -30.5q-20 -81 -42.5 -155.5t-46.5 -136.5q-13 -34 -34.5 -65.5t-48.5 -56t-59.5 -39.5t-68.5 -15
q-53 0 -78.5 23t-25.5 54q0 23 10 49t25 51t31.5 45.5t28.5 33.5q51 53 118 111t149 109q13 58 22 115.5t17 116.5q-32 -47 -71 -93t-83 -84.5t-93.5 -66.5t-102.5 -40q-15 -4 -32 -4q-27 0 -47.5 11.5t-33.5 30.5t-19.5 43.5t-6.5 50.5q0 12 1 24t4 23q12 55 35.5 107.5
t54.5 101.5t68 93.5t77 83.5q29 28 62 57.5t70 52.5t77.5 38t83.5 15h13zM414 26q8 26 15.5 53t13.5 55q-63 -45 -117.5 -94.5t-94.5 -98t-63 -91.5t-23 -74q0 -44 52 -44q50 0 85.5 31t60.5 76.5t42 96.5t29 90zM404 891q2 0 5 1q6 2 7 2l4 2q4 0 9.5 2.5t10.5 4.5l-2 -1
l2 1l10 5q3 1 6 2.5t6 3.5l-1 -1l1 1l4 2l16 11q1 0 3 2l1 1l13 11q5 5 12 6.5t13 2.5q2 0 7 -1t5 -3q0 -1 -2 -3q-34 -31 -82.5 -51.5t-102.5 -20.5q-32 0 -59.5 13t-41.5 45v1q0 3 4.5 5.5t10 4t10.5 2t6 0.5q5 0 7 -3q8 -18 24.5 -32t36.5 -16l11 -2q4 -1 13 -1h11
q2 0 3 0.5t3 0.5z" />
    <glyph glyph-name="Gcircumflex" unicode="&#x11c;" horiz-adv-x="615"
d="M548 850q17 -1 17 -10q0 -7 -10 -13.5t-23 -6.5h-11q-37 0 -74 -17t-71.5 -42.5t-65 -55.5t-53.5 -55q-28 -30 -52 -59t-46 -61t-43 -70t-42 -86q-8 -19 -13.5 -44.5t-5.5 -52.5q0 -21 4 -41t13 -35.5t23.5 -24.5t35.5 -9q22 0 49 10q55 21 102 57t86.5 81t73 95.5
t62.5 101.5q4 7 14 11.5t20 4.5q7 0 12 -3.5t5 -11.5v-2q-8 -73 -21 -151.5t-31 -156.5q39 20 80.5 37.5t86.5 30.5q22 6 32 6q5 0 5 -2l-25.5 -13t-60.5 -30t-71 -35.5t-56 -30.5q-20 -81 -42.5 -155.5t-46.5 -136.5q-13 -34 -34.5 -65.5t-48.5 -56t-59.5 -39.5t-68.5 -15
q-53 0 -78.5 23t-25.5 54q0 23 10 49t25 51t31.5 45.5t28.5 33.5q51 53 118 111t149 109q13 58 22 115.5t17 116.5q-32 -47 -71 -93t-83 -84.5t-93.5 -66.5t-102.5 -40q-15 -4 -32 -4q-27 0 -47.5 11.5t-33.5 30.5t-19.5 43.5t-6.5 50.5q0 12 1 24t4 23q12 55 35.5 107.5
t54.5 101.5t68 93.5t77 83.5q29 28 62 57.5t70 52.5t77.5 38t83.5 15h13zM414 26q8 26 15.5 53t13.5 55q-63 -45 -117.5 -94.5t-94.5 -98t-63 -91.5t-23 -74q0 -44 52 -44q50 0 85.5 31t60.5 76.5t42 96.5t29 90zM270 892q0 2 7 8q17 13 30.5 24t25.5 20t24 17.5t26 18.5
q11 8 21.5 15.5t23.5 7.5q11 0 21.5 -5.5t20.5 -11.5q8 -5 23.5 -16t31.5 -23t27.5 -23t11.5 -16q0 -6 -11 -9.5t-20 -3.5q-4 0 -11 4.5t-15 11l-16 13t-13 10.5l-48 33q-3 2 -7 4l-2 1h-1q-4 0 -17.5 -7.5t-31 -19.5t-37.5 -26t-36 -26q-5 -3 -10 -5.5t-10 -2.5q-8 0 -8 7z
" />
    <glyph glyph-name="Gcommaaccent" unicode="&#x122;" horiz-adv-x="612"
d="M548 850q17 -1 17 -10q0 -7 -10 -13.5t-23 -6.5h-11q-37 0 -74 -17t-71.5 -42.5t-65 -55.5t-53.5 -55q-28 -30 -52 -59t-46 -61t-43 -70t-42 -86q-8 -19 -13.5 -44.5t-5.5 -52.5q0 -21 4 -41t13 -35.5t23.5 -24.5t35.5 -9q22 0 49 10q55 21 102 57t86.5 81t73 95.5
t62.5 101.5q4 7 14 11.5t20 4.5q7 0 12 -3.5t5 -11.5v-2q-8 -73 -21 -151.5t-31 -156.5q39 20 80.5 37.5t86.5 30.5q22 6 32 6q5 0 5 -2l-25.5 -13t-60.5 -30t-71 -35.5t-56 -30.5q-20 -81 -42.5 -155.5t-46.5 -136.5q-13 -34 -34.5 -65.5t-48.5 -56t-59.5 -39.5t-68.5 -15
q-53 0 -78.5 23t-25.5 54q0 23 10 49t25 51t31.5 45.5t28.5 33.5q51 53 118 111t149 109q13 58 22 115.5t17 116.5q-32 -47 -71 -93t-83 -84.5t-93.5 -66.5t-102.5 -40q-15 -4 -32 -4q-27 0 -47.5 11.5t-33.5 30.5t-19.5 43.5t-6.5 50.5q0 12 1 24t4 23q12 55 35.5 107.5
t54.5 101.5t68 93.5t77 83.5q29 28 62 57.5t70 52.5t77.5 38t83.5 15h13zM414 26q8 26 15.5 53t13.5 55q-63 -45 -117.5 -94.5t-94.5 -98t-63 -91.5t-23 -74q0 -44 52 -44q50 0 85.5 31t60.5 76.5t42 96.5t29 90zM283 -348q0 5 5.5 7.5t11.5 2.5q5 0 8.5 -1.5t3.5 -5.5
q0 -36 -22.5 -65t-48.5 -53q-2 -2 -7 -3.5t-10 -1.5q-7 0 -7 3q0 2 4 5q26 23 43 51t19 61z" />
    <glyph glyph-name="cedilla" unicode="&#xb8;" horiz-adv-x="209"
d="M83 -13q2 6 8.5 9t13.5 3t12 -2.5t5 -9.5q0 -6 -4.5 -15t-7.5 -17l-2 -3q16 3 34 3q9 0 20.5 -1.5t21 -6t16 -12.5t6.5 -21q0 -26 -19.5 -44.5t-48.5 -31t-62 -20t-60 -10.5q-5 0 -10 2t-5 7t6 6t19.5 2.5t35 6.5t52.5 17q17 7 27.5 14.5t16 14.5t7 12t1.5 6
q0 20 -9.5 24.5t-15.5 4.5q-5 0 -11.5 -0.5t-12.5 -1.5l-11 -3q-7 -1 -14 -4t-14 -3q-6 0 -12 3t-6 9q0 16 7.5 35t12.5 33z" />
    <glyph glyph-name="Gdotaccent" unicode="&#x120;" horiz-adv-x="612"
d="M548 850q17 -1 17 -10q0 -7 -10 -13.5t-23 -6.5h-11q-37 0 -74 -17t-71.5 -42.5t-65 -55.5t-53.5 -55q-28 -30 -52 -59t-46 -61t-43 -70t-42 -86q-8 -19 -13.5 -44.5t-5.5 -52.5q0 -21 4 -41t13 -35.5t23.5 -24.5t35.5 -9q22 0 49 10q55 21 102 57t86.5 81t73 95.5
t62.5 101.5q4 7 14 11.5t20 4.5q7 0 12 -3.5t5 -11.5v-2q-8 -73 -21 -151.5t-31 -156.5q39 20 80.5 37.5t86.5 30.5q22 6 32 6q5 0 5 -2l-25.5 -13t-60.5 -30t-71 -35.5t-56 -30.5q-20 -81 -42.5 -155.5t-46.5 -136.5q-13 -34 -34.5 -65.5t-48.5 -56t-59.5 -39.5t-68.5 -15
q-53 0 -78.5 23t-25.5 54q0 23 10 49t25 51t31.5 45.5t28.5 33.5q51 53 118 111t149 109q13 58 22 115.5t17 116.5q-32 -47 -71 -93t-83 -84.5t-93.5 -66.5t-102.5 -40q-15 -4 -32 -4q-27 0 -47.5 11.5t-33.5 30.5t-19.5 43.5t-6.5 50.5q0 12 1 24t4 23q12 55 35.5 107.5
t54.5 101.5t68 93.5t77 83.5q29 28 62 57.5t70 52.5t77.5 38t83.5 15h13zM414 26q8 26 15.5 53t13.5 55q-63 -45 -117.5 -94.5t-94.5 -98t-63 -91.5t-23 -74q0 -44 52 -44q50 0 85.5 31t60.5 76.5t42 96.5t29 90zM455 963q8 -2 12.5 -11.5t4.5 -16.5q0 -17 -14.5 -31
t-31.5 -14q-5 0 -7.5 4.5t-4.5 10.5t-2.5 11.5t-0.5 7.5q2 14 12 27t26 13q2 0 3 -0.5t3 -0.5z" />
    <glyph glyph-name="Hbar" unicode="&#x126;"
d="M901 526q9 5 22 5q17 0 17 -9q0 -6 -12.5 -14t-32.5 -17.5t-45 -19t-49 -18t-46 -15.5t-35 -11q-12 -81 -24 -159t-12 -160q0 -29 0.5 -64.5t5 -72t14 -70.5t27.5 -59q3 -5 3 -9q0 -8 -7.5 -12t-16.5 -4q-6 0 -11.5 2t-8.5 7q-18 26 -28.5 57.5t-16.5 65t-7.5 67
t-1.5 63.5q0 85 8.5 167.5t22.5 163.5q-75 -23 -149 -45.5t-146 -54.5q-3 -1 -5.5 -2t-4.5 -2q-5 -23 -13 -61t-21 -81.5t-32.5 -88.5t-47.5 -81t-65 -59t-85 -23t-72.5 27t-24.5 60q0 36 22 76t53 76.5t64 66t55 43.5q31 20 63 37t64 31q11 51 17 94.5t12 87.5l-78 -21
q-6 -2 -7 -2q-3 0 -3 2q0 3 5.5 8.5t13 12t15.5 11.5t12 6l46 13q11 85 20.5 166t23.5 171q7 6 15 11q6 4 13 7.5t12 3.5q6 0 6 -7v-3q-13 -82 -23 -166.5t-21 -169.5q83 23 161.5 45t153.5 50l26 109q10 7 19 13q8 5 16 9t13 4q4 0 4 -5v-3q-7 -26 -13 -53t-12 -53l35 15
q7 3 11 3q6 0 6 -5q0 -4 -3 -9.5t-7.5 -11.5t-10 -11t-9.5 -6l-31 -12q-10 -45 -18.5 -88t-16.5 -88q45 14 89.5 31t86.5 38zM672 441q8 43 17 86t19 86q-75 -26 -152.5 -47.5t-158.5 -42.5q-5 -44 -11.5 -87.5t-14.5 -86.5q73 28 149 48.5t152 43.5zM263 107q15 39 27.5 84
t22.5 92q-46 -23 -87.5 -51.5t-76.5 -68.5q-14 -15 -29.5 -34t-29.5 -39.5t-23 -42.5t-9 -44q0 -29 15 -41.5t35 -12.5q33 0 59 18t45.5 43.5t32 52.5t18.5 44z" />
    <glyph glyph-name="Hcircumflex" unicode="&#x124;"
d="M901 526q9 5 22 5q17 0 17 -9q0 -6 -12.5 -14t-32.5 -17.5t-45 -19t-49 -18t-46 -15.5t-35 -11q-12 -81 -24 -159t-12 -160q0 -29 0.5 -64.5t5 -72t14 -70.5t27.5 -59q3 -5 3 -9q0 -8 -7.5 -12t-16.5 -4q-6 0 -11.5 2t-8.5 7q-18 26 -28.5 57.5t-16.5 65t-7.5 67
t-1.5 63.5q0 85 8.5 167.5t22.5 163.5q-75 -23 -149 -45.5t-146 -54.5q-3 -1 -5.5 -2t-4.5 -2q-5 -23 -13 -61t-21 -81.5t-32.5 -88.5t-47.5 -81t-65 -59t-85 -23t-72.5 27t-24.5 60q0 36 22 76t53 76.5t64 66t55 43.5q31 20 63 37t64 31q16 75 26 143.5t17.5 135t14.5 133
t19 137.5q7 6 15 11q6 4 13 7.5t12 3.5q6 0 6 -7v-3q-21 -133 -35.5 -269.5t-38.5 -271.5q73 28 149 48.5t152 43.5q14 79 32 157.5t38 159.5q10 7 19 13q8 5 16 9t13 4q4 0 4 -5v-3q-20 -79 -37.5 -158.5t-31.5 -160.5q45 14 89.5 31t86.5 38zM263 107q15 39 27.5 84
t22.5 92q-46 -23 -87.5 -51.5t-76.5 -68.5q-14 -15 -29.5 -34t-29.5 -39.5t-23 -42.5t-9 -44q0 -29 15 -41.5t35 -12.5q33 0 59 18t45.5 43.5t32 52.5t18.5 44zM477 913q0 2 7 8q17 13 30.5 24t25.5 20t24 17.5t26 18.5q11 8 21.5 15.5t23.5 7.5q11 0 21.5 -5.5t20.5 -11.5
q8 -5 23.5 -16t31.5 -23t27.5 -23t11.5 -16q0 -6 -11 -9.5t-20 -3.5q-4 0 -11 4.5t-15 11l-16 13t-13 10.5l-48 33q-3 2 -7 4l-2 1h-1q-4 0 -17.5 -7.5t-31 -19.5t-37.5 -26t-36 -26q-5 -3 -10 -5.5t-10 -2.5q-8 0 -8 7z" />
    <glyph glyph-name="Iacute" unicode="&#xcd;" horiz-adv-x="215"
d="M20 -7q15 70 27.5 151t22 164.5t17.5 165t13.5 153.5t9 131t5.5 96q1 1 5 1q11 0 22.5 -9t11.5 -18q-1 -25 -5 -71.5t-9.5 -105.5t-12 -127t-13 -136.5t-13 -133.5t-12 -118t-9.5 -90.5t-6 -50.5q-8 -5 -16.5 -10t-17.5 -5q-12 0 -20 13zM216 1032q4 2 7 2q6 0 9.5 -6
t3.5 -14q0 -12 -8 -17q-18 -11 -34 -21.5t-31.5 -21t-31.5 -20.5t-35 -20q-5 -3 -11 -6t-10 -3t-5 3t-1 6q0 6 17.5 22t41.5 34.5t48.5 35.5t39.5 26z" />
    <glyph glyph-name="Ibreve" unicode="&#x12c;" horiz-adv-x="209"
d="M20 -7q15 70 27.5 151t22 164.5t17.5 165t13.5 153.5t9 131t5.5 96q1 1 5 1q11 0 22.5 -9t11.5 -18q-1 -25 -5 -71.5t-9.5 -105.5t-12 -127t-13 -136.5t-13 -133.5t-12 -118t-9.5 -90.5t-6 -50.5q-8 -5 -16.5 -10t-17.5 -5q-12 0 -20 13zM19 974q0 4 4.5 6.5t10 4t10.5 2
t6 0.5q5 0 7 -3q6 -13 17.5 -23t23 -17t20.5 -10t9 -1h2q8 0 13 -1h4q3 1 7 1h6q2 1 4 1l12 2h1q1 0 2 0.5t2 0.5l7 2q2 0 10.5 3.5t13.5 5.5l-1 -1q2 2 5 2l17 8h-1q-1 0 0.5 1t2.5 1l8 5l14 10h1q1 1 2 1.5t2 2.5l9 7q5 5 12 7t14 3q2 0 6.5 -1t4.5 -3q0 -1 -2 -3
q-32 -32 -81.5 -52t-103.5 -20q-32 0 -59.5 12.5t-41.5 44.5v1zM178 937l-2 -1h-1z" />
    <glyph glyph-name="Icircumflex" unicode="&#xce;" horiz-adv-x="212"
d="M20 -7q15 70 27.5 151t22 164.5t17.5 165t13.5 153.5t9 131t5.5 96q1 1 5 1q11 0 22.5 -9t11.5 -18q-1 -25 -5 -71.5t-9.5 -105.5t-12 -127t-13 -136.5t-13 -133.5t-12 -118t-9.5 -90.5t-6 -50.5q-8 -5 -16.5 -10t-17.5 -5q-12 0 -20 13zM9 907q0 2 7 8q17 13 30.5 24
t25.5 20t24 17.5t26 18.5q11 8 21.5 15.5t23.5 7.5q11 0 21.5 -5.5t20.5 -11.5q8 -5 23.5 -16t31.5 -23t27.5 -23t11.5 -16q0 -6 -11 -9.5t-20 -3.5q-4 0 -11 4.5t-15 11l-16 13t-13 10.5l-48 33q-3 2 -7 4l-2 1h-1q-4 0 -17.5 -7.5t-31 -19.5t-37.5 -26t-36 -26
q-5 -3 -10 -5.5t-10 -2.5q-8 0 -8 7z" />
    <glyph glyph-name="Idieresis" unicode="&#xcf;" horiz-adv-x="196"
d="M20 -7q15 70 27.5 151t22 164.5t17.5 165t13.5 153.5t9 131t5.5 96q1 1 5 1q11 0 22.5 -9t11.5 -18q-1 -25 -5 -71.5t-9.5 -105.5t-12 -127t-13 -136.5t-13 -133.5t-12 -118t-9.5 -90.5t-6 -50.5q-8 -5 -16.5 -10t-17.5 -5q-12 0 -20 13zM97 963q5 -2 7.5 -9.5t2.5 -12.5
q0 -14 -10.5 -22.5t-22.5 -8.5q-8 0 -9.5 12t-1.5 15q2 10 9 18.5t18 8.5q4 0 7 -1zM203 963q5 -2 7.5 -9.5t2.5 -12.5q0 -14 -10.5 -22.5t-22.5 -8.5q-8 0 -9.5 12t-1.5 15q2 10 9 18.5t18 8.5q4 0 7 -1z" />
    <glyph glyph-name="Idotaccent" unicode="&#x130;" horiz-adv-x="199"
d="M20 -7q15 70 27.5 151t22 164.5t17.5 165t13.5 153.5t9 131t5.5 96q1 1 5 1q11 0 22.5 -9t11.5 -18q-1 -25 -5 -71.5t-9.5 -105.5t-12 -127t-13 -136.5t-13 -133.5t-12 -118t-9.5 -90.5t-6 -50.5q-8 -5 -16.5 -10t-17.5 -5q-12 0 -20 13zM161 990q8 -2 12.5 -11.5
t4.5 -16.5q0 -17 -14.5 -31t-31.5 -14q-5 0 -7.5 4.5t-4.5 10.5t-2.5 11.5t-0.5 7.5q2 14 12 27t26 13q2 0 3 -0.5t3 -0.5z" />
    <glyph glyph-name="Igrave" unicode="&#xcc;" horiz-adv-x="201"
d="M20 -7q15 70 27.5 151t22 164.5t17.5 165t13.5 153.5t9 131t5.5 96q1 1 5 1q11 0 22.5 -9t11.5 -18q-1 -25 -5 -71.5t-9.5 -105.5t-12 -127t-13 -136.5t-13 -133.5t-12 -118t-9.5 -90.5t-6 -50.5q-8 -5 -16.5 -10t-17.5 -5q-12 0 -20 13zM72 976q-4 3 -4 8t6 9.5t14 4.5
q4 0 9 -3q12 -11 32 -25.5t39 -29t33 -27t14 -18.5q0 -3 -4.5 -5t-6.5 -2q-5 0 -9 4q-32 20 -63 40t-60 44z" />
    <glyph glyph-name="Imacron" unicode="&#x12a;" horiz-adv-x="228"
d="M44 -7q15 70 27.5 151t22 164.5t17.5 165t13.5 153.5t9 131t5.5 96q1 1 5 1q11 0 22.5 -9t11.5 -18q-1 -25 -5 -71.5t-9.5 -105.5t-12 -127t-13 -136.5t-13 -133.5t-12 -118t-9.5 -90.5t-6 -50.5q-8 -5 -16.5 -10t-17.5 -5q-12 0 -20 13zM34 917q-35 0 -35 12q0 6 11 12
t30 7q64 2 128.5 7t128.5 5q27 0 27 -11q0 -7 -15.5 -12t-40.5 -8.5t-57 -5.5t-64 -3t-62 -1.5t-51 -1.5z" />
    <glyph glyph-name="Iogonek" unicode="&#x12e;" horiz-adv-x="228"
d="M139 854q1 1 5 1q11 0 22.5 -9t11.5 -18q-1 -25 -5 -70.5t-9 -103.5t-11.5 -125.5t-13.5 -135.5t-13.5 -132.5t-12 -118t-9.5 -92t-6 -53.5q0 -7 -6 -11l-4 -4q-12 -9 -22 -19l-8 -6q0 -1 -1.5 -2.5l-2.5 -2.5l-18 -20q0 -1 -0.5 -1.5t-0.5 -1.5q-11 -15 -11 -26t15 -11
q10 0 25 5t37 19q8 5 12 6.5t7 1.5q5 0 5 -3q0 -7 -12 -15.5t-28.5 -16t-34 -12.5t-27.5 -5q-12 0 -22 7t-10 20t7.5 27.5t17.5 28.5t20 25.5t14 19.5q8 14 16 52t15.5 92t14 120t12.5 135.5t11 138.5t9 130t6.5 109.5t4.5 76.5z" />
    <glyph glyph-name="Itilde" unicode="&#x128;" horiz-adv-x="228"
d="M44 -7q15 70 27.5 151t22 164.5t17.5 165t13.5 153.5t9 131t5.5 96q1 1 5 1q11 0 22.5 -9t11.5 -18q-1 -25 -5 -71.5t-9.5 -105.5t-12 -127t-13 -136.5t-13 -133.5t-12 -118t-9.5 -90.5t-6 -50.5q-8 -5 -16.5 -10t-17.5 -5q-12 0 -20 13zM210 909q9 0 16.5 5t14 11
t13.5 11t14 5q5 0 9.5 -1t4.5 -5q0 -2 -3 -6q-27 -44 -75 -44q-18 0 -34 6.5t-32 14.5t-32 14.5t-34 6.5q-15 0 -25.5 -4.5t-18 -9.5t-11.5 -9.5t-5 -4.5q-6 0 -6 6q0 10 8.5 18.5t20 13.5t24 8t20.5 3q15 0 29 -4t28 -10l28 -12t29 -10l7 -2q4 -1 10 -1z" />
    <glyph glyph-name="IJ" unicode="&#x132;" horiz-adv-x="719"
d="M485 858q9 3 18 7q8 3 16 5.5t15 2.5q12 0 12 -10q-20 -165 -46 -330.5t-73 -326.5q87 29 175.5 47t166.5 20q15 0 15 -4q0 -6 -29.5 -11t-80 -14t-117 -25t-139.5 -45q-9 -29 -18.5 -57t-19.5 -56q-10 -26 -24 -59.5t-33 -67.5t-43 -66.5t-52.5 -57.5t-61.5 -40.5
t-71 -15.5q-51 0 -72.5 25.5t-21.5 63.5q0 47 20 85.5t43 64.5q15 70 27.5 151t22 164.5t17.5 165t13.5 153.5t9 131t5.5 96q1 1 5 1q11 0 22.5 -9t11.5 -18q-2 -29 -6.5 -86t-11 -129t-14.5 -153t-15.5 -157.5t-14.5 -143t-12 -109.5q50 42 111 74.5t137 61.5l23 91
q37 144 54.5 288t35.5 293zM160 -200q37 21 68 58.5t55.5 85t44 101t34.5 106.5q-83 -37 -149.5 -81t-98.5 -82q-22 -26 -41 -59t-19 -71q0 -34 22.5 -50t48.5 -16q19 0 35 8z" />
    <glyph glyph-name="Jcircumflex" unicode="&#x134;" horiz-adv-x="691"
d="M485 858q9 3 18 7q8 3 16 5.5t15 2.5q12 0 12 -10q-20 -165 -46 -330.5t-73 -326.5q87 29 175.5 47t166.5 20q15 0 15 -4q0 -6 -29.5 -11t-80 -14t-117 -25t-139.5 -45q-9 -29 -18.5 -57t-19.5 -56q-10 -26 -24 -59.5t-33 -67.5t-43 -66.5t-52.5 -57.5t-61.5 -40.5
t-71 -15.5q-51 0 -72.5 25.5t-21.5 63.5q0 63 35 115.5t89 95t119.5 75.5t127.5 57l23 91q37 144 54.5 288t35.5 293zM160 -200q37 21 68 58.5t55.5 85t44 101t34.5 106.5q-83 -37 -149.5 -81t-98.5 -82q-22 -26 -41 -59t-19 -71q0 -34 22.5 -50t48.5 -16q19 0 35 8z
M361 907q0 2 7 8q17 13 30.5 24t25.5 20t24 17.5t26 18.5q11 8 21.5 15.5t23.5 7.5q11 0 21.5 -5.5t20.5 -11.5q8 -5 23.5 -16t31.5 -23t27.5 -23t11.5 -16q0 -6 -11 -9.5t-20 -3.5q-4 0 -11 4.5t-15 11l-16 13t-13 10.5l-48 33q-3 2 -7 4l-2 1h-1q-4 0 -17.5 -7.5
t-31 -19.5t-37.5 -26t-36 -26q-5 -3 -10 -5.5t-10 -2.5q-8 0 -8 7z" />
    <glyph glyph-name="Kcommaaccent" unicode="&#x136;" horiz-adv-x="733"
d="M871 -160q16 -4 26 -12.5t10 -14.5q0 -5 -7 -5q-1 0 -2 0.5t-2 0.5q-74 12 -152.5 48t-150.5 96.5t-131 146.5t-92 197l-2 -8q-14 -48 -33.5 -101t-48.5 -99.5t-69 -81.5t-95 -48q-14 -3 -26 -3q-18 0 -35 5t-30.5 15.5t-21.5 26.5t-8 37q0 31 18.5 63t48 63t66.5 60.5
t75 55.5t73 48t60 38l8 35q22 105 35.5 209.5t24.5 210.5q1 8 11.5 12.5t20.5 4.5q6 0 10.5 -2t4.5 -7v-2q-11 -106 -24 -212t-36 -212q38 26 90.5 65t110.5 90.5t117.5 117t111.5 144.5q2 4 9 8t15.5 7t17.5 5t15 2q9 0 9 -5q0 -2 -1 -4q-44 -66 -94 -123.5t-106 -109.5
t-116 -100t-123 -94l-49 -36q28 -126 79 -218.5t114 -157t134 -102.5t140 -54zM156 0q38 24 66.5 60.5t49.5 79.5t35 90.5t25 92.5q-55 -36 -105.5 -70.5t-89.5 -68t-62 -66t-23 -65.5q0 -35 18.5 -51t40.5 -16t45 14zM364 -12q0 5 5.5 7.5t11.5 2.5q5 0 8.5 -1.5t3.5 -5.5
q0 -36 -22.5 -65t-48.5 -53q-2 -2 -7 -3.5t-10 -1.5q-7 0 -7 3q0 2 4 5q26 23 43 51t19 61z" />
    <glyph glyph-name="Lacute" unicode="&#x139;" horiz-adv-x="712"
d="M820 833q1 0 -2 -2t-8 -4t-11 -3.5t-11 -1.5q-8 0 -11 3q-20 18 -39 18q-23 0 -44 -20.5t-40.5 -53t-36 -72t-30 -77t-23.5 -68.5t-15 -46q-30 -87 -54 -156.5t-47 -124t-47.5 -96t-55.5 -71.5q24 -17 51 -36.5t56 -37.5t58.5 -33t57.5 -22q45 -11 87.5 -15.5t77.5 -4.5
q39 0 65 3.5t38 3.5q13 0 13 -3q0 -5 -15.5 -9.5t-37.5 -8.5t-46.5 -6t-41.5 -2q-49 0 -97 7.5t-90 19.5q-55 16 -104 48.5t-104 68.5q-31 -23 -73 -40t-93 -17q-23 0 -49 5.5t-47.5 18t-35.5 33t-14 49.5q0 19 9 35t23 27.5t32.5 18t37.5 6.5q21 0 46.5 -7t53 -19t55.5 -28
t55 -33q38 45 71 121t63.5 163.5t61.5 177t65.5 162t75 118t90.5 45.5q40 0 80 -34zM79 16q14 -9 31 -13t35 -4q33 0 69 13t68 39q-18 12 -39.5 25.5t-44.5 25t-47.5 19t-48.5 7.5q-23 0 -39 -12t-16 -44q0 -21 9 -34.5t23 -21.5zM927 1023q4 2 7 2q6 0 9.5 -6t3.5 -14
q0 -12 -8 -17q-18 -11 -34 -21.5t-31.5 -21t-31.5 -20.5t-35 -20q-5 -3 -11 -6t-10 -3t-5 3t-1 6q0 6 17.5 22t41.5 34.5t48.5 35.5t39.5 26z" />
    <glyph glyph-name="Lcaron" unicode="&#x13d;" horiz-adv-x="717"
d="M820 833q1 0 -2 -2t-8 -4t-11 -3.5t-11 -1.5q-8 0 -11 3q-20 18 -39 18q-23 0 -44 -20.5t-40.5 -53t-36 -72t-30 -77t-23.5 -68.5t-15 -46q-30 -87 -54 -156.5t-47 -124t-47.5 -96t-55.5 -71.5q24 -17 51 -36.5t56 -37.5t58.5 -33t57.5 -22q45 -11 87.5 -15.5t77.5 -4.5
q39 0 65 3.5t38 3.5q13 0 13 -3q0 -5 -15.5 -9.5t-37.5 -8.5t-46.5 -6t-41.5 -2q-49 0 -97 7.5t-90 19.5q-55 16 -104 48.5t-104 68.5q-31 -23 -73 -40t-93 -17q-23 0 -49 5.5t-47.5 18t-35.5 33t-14 49.5q0 19 9 35t23 27.5t32.5 18t37.5 6.5q21 0 46.5 -7t53 -19t55.5 -28
t55 -33q38 45 71 121t63.5 163.5t61.5 177t65.5 162t75 118t90.5 45.5q40 0 80 -34zM79 16q14 -9 31 -13t35 -4q33 0 69 13t68 39q-18 12 -39.5 25.5t-44.5 25t-47.5 19t-48.5 7.5q-23 0 -39 -12t-16 -44q0 -21 9 -34.5t23 -21.5zM922 985q0 -1 -6 -6q-18 -12 -36 -26
t-35 -25.5t-32 -19t-26 -7.5q-9 0 -17.5 4.5t-16.5 9.5q-7 4 -20 12.5t-26 18t-22.5 18t-9.5 12.5q0 5 8.5 7t15.5 2t8 -1l67 -47q8 -6 13 -8l7 -4h1q3 0 14 6t26 14.5t32 19t31 19.5q4 2 8.5 4t8.5 2q7 0 7 -5z" />
    <glyph glyph-name="Lcommaaccent" unicode="&#x13b;" horiz-adv-x="709"
d="M820 833q1 0 -2 -2t-8 -4t-11 -3.5t-11 -1.5q-8 0 -11 3q-20 18 -39 18q-23 0 -44 -20.5t-40.5 -53t-36 -72t-30 -77t-23.5 -68.5t-15 -46q-30 -87 -54 -156.5t-47 -124t-47.5 -96t-55.5 -71.5q24 -17 51 -36.5t56 -37.5t58.5 -33t57.5 -22q45 -11 87.5 -15.5t77.5 -4.5
q39 0 65 3.5t38 3.5q13 0 13 -3q0 -5 -15.5 -9.5t-37.5 -8.5t-46.5 -6t-41.5 -2q-49 0 -97 7.5t-90 19.5q-55 16 -104 48.5t-104 68.5q-31 -23 -73 -40t-93 -17q-23 0 -49 5.5t-47.5 18t-35.5 33t-14 49.5q0 19 9 35t23 27.5t32.5 18t37.5 6.5q21 0 46.5 -7t53 -19t55.5 -28
t55 -33q38 45 71 121t63.5 163.5t61.5 177t65.5 162t75 118t90.5 45.5q40 0 80 -34zM79 16q14 -9 31 -13t35 -4q33 0 69 13t68 39q-18 12 -39.5 25.5t-44.5 25t-47.5 19t-48.5 7.5q-23 0 -39 -12t-16 -44q0 -21 9 -34.5t23 -21.5zM304 -87q0 5 5.5 7.5t11.5 2.5
q5 0 8.5 -1.5t3.5 -5.5q0 -36 -22.5 -65t-48.5 -53q-2 -2 -7 -3.5t-10 -1.5q-7 0 -7 3q0 2 4 5q26 23 43 51t19 61z" />
    <glyph glyph-name="Ldot" unicode="&#x13f;" horiz-adv-x="727"
d="M820 833q1 0 -2 -2t-8 -4t-11 -3.5t-11 -1.5q-8 0 -11 3q-20 18 -39 18q-23 0 -44 -20.5t-40.5 -53t-36 -72t-30 -77t-23.5 -68.5t-15 -46q-30 -87 -54 -156.5t-47 -124t-47.5 -96t-55.5 -71.5q24 -17 51 -36.5t56 -37.5t58.5 -33t57.5 -22q45 -11 87.5 -15.5t77.5 -4.5
q39 0 65 3.5t38 3.5q13 0 13 -3q0 -5 -15.5 -9.5t-37.5 -8.5t-46.5 -6t-41.5 -2q-49 0 -97 7.5t-90 19.5q-55 16 -104 48.5t-104 68.5q-31 -23 -73 -40t-93 -17q-23 0 -49 5.5t-47.5 18t-35.5 33t-14 49.5q0 19 9 35t23 27.5t32.5 18t37.5 6.5q21 0 46.5 -7t53 -19t55.5 -28
t55 -33q38 45 71 121t63.5 163.5t61.5 177t65.5 162t75 118t90.5 45.5q40 0 80 -34zM79 16q14 -9 31 -13t35 -4q33 0 69 13t68 39q-18 12 -39.5 25.5t-44.5 25t-47.5 19t-48.5 7.5q-23 0 -39 -12t-16 -44q0 -21 9 -34.5t23 -21.5zM629 390q8 -2 12.5 -11.5t4.5 -16.5
q0 -17 -14 -31t-31 -14q-9 0 -12 12t-3 20q0 14 11 28t26 14q2 0 3 -0.5t3 -0.5z" />
    <glyph glyph-name="Lslash" unicode="&#x141;" horiz-adv-x="717"
d="M822 -85q4 1 14 1q13 0 13 -3q0 -5 -15.5 -9.5t-37.5 -8.5t-46.5 -6t-41.5 -2q-49 0 -97 7.5t-90 19.5q-55 16 -104 48t-104 69q-31 -23 -73 -40t-93 -17q-23 0 -49 5.5t-47.5 18t-35.5 33t-14 49.5q0 19 9 35t23 27.5t32.5 18t37.5 6.5q22 0 47.5 -7t52.5 -19t55 -28
t54 -33q20 22 39 55.5t36 73t32.5 81.5t29.5 83q-58 -22 -116 -42t-116 -37q-3 -1 -7 -1t-4 2q0 3 5 9t11.5 12t13 11t10.5 7q54 17 108 36t108 39q27 81 57.5 162.5t64.5 147.5t72.5 107t83.5 41q40 0 80 -34q1 0 -2 -2t-8 -4t-11 -3.5t-11 -1.5q-8 0 -11 3q-20 18 -39 18
q-23 0 -44 -20.5t-40.5 -53t-36 -72t-30 -77t-23.5 -68.5t-15 -46l-26 -74q56 21 110.5 42.5t109.5 41.5q7 3 12 3t5 -4t-3.5 -9.5t-9 -11t-11 -10.5t-9.5 -6l-216 -82q-21 -62 -40 -113.5t-38.5 -93t-40.5 -74t-47 -57.5q24 -17 51 -36.5t56 -37.5t58.5 -33t57.5 -22
q45 -11 87.5 -15.5t77.5 -4.5q29 0 52 2t37 4zM79 16q14 -9 31 -13t35 -4q34 0 69 13t67 39q-18 11 -39 24.5t-44 25t-47.5 19.5t-48.5 8q-23 0 -39 -12t-16 -44q0 -21 9 -34.5t23 -21.5z" />
    <glyph glyph-name="Nacute" unicode="&#x143;" horiz-adv-x="1033"
d="M1058 23q10 5 24 5q11 0 11 -4q0 1 -12 -7.5t-32.5 -22t-46.5 -29t-54.5 -29.5t-57 -23t-53.5 -9q-38 0 -57 27.5t-26.5 67t-7.5 83.5v77q-1 26 -0.5 75.5t-0.5 108.5t-4.5 120t-11 111.5t-19.5 82.5t-31 32q-13 0 -28 -12.5t-30 -30t-28.5 -37t-22.5 -33.5
q-84 -137 -147.5 -273.5t-120.5 -277.5q-3 -7 -15.5 -12t-23.5 -5q-13 0 -13 8v2q21 80 42.5 162.5t39.5 165.5t29 166.5t11 166.5q0 29 -4 62.5t-14 62.5t-26 48.5t-41 19.5q-26 0 -56.5 -12t-62.5 -30.5t-63 -40.5t-57 -42q-5 -3 -14 -5t-17 -2q-16 0 -16 6q0 2 6 7
q30 23 66 48t75.5 46t80.5 34.5t82 13.5q30 0 50 -14.5t32 -37.5t18 -50.5t8 -54.5t2 -49.5v-34.5q0 -90 -14 -178.5t-35 -177.5q35 72 73 140.5t83 133.5q8 12 26.5 36.5t42.5 49.5t50.5 43.5t50.5 18.5q27 0 43.5 -23.5t26 -58t13.5 -72.5t6 -67q5 -68 6 -135t3 -135
q1 -38 0 -87.5t4.5 -94.5t22 -76t51.5 -31q22 0 47 9.5t50 22.5t47.5 27.5t39.5 23.5zM837 900q4 2 7 2q6 0 9.5 -6t3.5 -14q0 -12 -8 -17q-18 -11 -34 -21.5t-31.5 -21t-31.5 -20.5t-35 -20q-5 -3 -11 -6t-10 -3t-5 3t-1 6q0 6 17.5 22t41.5 34.5t48.5 35.5t39.5 26z" />
    <glyph glyph-name="Ncaron" unicode="&#x147;" horiz-adv-x="1036"
d="M1058 23q10 5 24 5q11 0 11 -4q0 1 -12 -7.5t-32.5 -22t-46.5 -29t-54.5 -29.5t-57 -23t-53.5 -9q-38 0 -57 27.5t-26.5 67t-7.5 83.5v77q-1 26 -0.5 75.5t-0.5 108.5t-4.5 120t-11 111.5t-19.5 82.5t-31 32q-13 0 -28 -12.5t-30 -30t-28.5 -37t-22.5 -33.5
q-84 -137 -147.5 -273.5t-120.5 -277.5q-3 -7 -15.5 -12t-23.5 -5q-13 0 -13 8v2q21 80 42.5 162.5t39.5 165.5t29 166.5t11 166.5q0 29 -4 62.5t-14 62.5t-26 48.5t-41 19.5q-26 0 -56.5 -12t-62.5 -30.5t-63 -40.5t-57 -42q-5 -3 -14 -5t-17 -2q-16 0 -16 6q0 2 6 7
q30 23 66 48t75.5 46t80.5 34.5t82 13.5q30 0 50 -14.5t32 -37.5t18 -50.5t8 -54.5t2 -49.5v-34.5q0 -90 -14 -178.5t-35 -177.5q35 72 73 140.5t83 133.5q8 12 26.5 36.5t42.5 49.5t50.5 43.5t50.5 18.5q27 0 43.5 -23.5t26 -58t13.5 -72.5t6 -67q5 -68 6 -135t3 -135
q1 -38 0 -87.5t4.5 -94.5t22 -76t51.5 -31q22 0 47 9.5t50 22.5t47.5 27.5t39.5 23.5zM847 859q0 -2 -6 -7q-18 -12 -36.5 -26t-35.5 -25.5t-32 -19t-25 -7.5q-9 0 -17.5 4.5t-16.5 9.5q-7 4 -20 12.5t-26 18t-22.5 18t-9.5 12.5q0 5 9.5 7.5t16.5 2.5q5 0 14.5 -6.5
t20.5 -14.5t21.5 -16t16.5 -12l13 -8l7 -3h1q3 0 14.5 5.5t26.5 14.5t31.5 19.5t30.5 19.5q8 5 18 5q6 0 6 -4z" />
    <glyph glyph-name="Ncommaaccent" unicode="&#x145;" horiz-adv-x="1047"
d="M1058 23q10 5 24 5q11 0 11 -4q0 1 -12 -7.5t-32.5 -22t-46.5 -29t-54.5 -29.5t-57 -23t-53.5 -9q-38 0 -57 27.5t-26.5 67t-7.5 83.5v77q-1 26 -0.5 75.5t-0.5 108.5t-4.5 120t-11 111.5t-19.5 82.5t-31 32q-13 0 -28 -12.5t-30 -30t-28.5 -37t-22.5 -33.5
q-84 -137 -147.5 -273.5t-120.5 -277.5q-3 -7 -15.5 -12t-23.5 -5q-13 0 -13 8v2q21 80 42.5 162.5t39.5 165.5t29 166.5t11 166.5q0 29 -4 62.5t-14 62.5t-26 48.5t-41 19.5q-26 0 -56.5 -12t-62.5 -30.5t-63 -40.5t-57 -42q-5 -3 -14 -5t-17 -2q-16 0 -16 6q0 2 6 7
q30 23 66 48t75.5 46t80.5 34.5t82 13.5q30 0 50 -14.5t32 -37.5t18 -50.5t8 -54.5t2 -49.5v-34.5q0 -90 -14 -178.5t-35 -177.5q35 72 73 140.5t83 133.5q8 12 26.5 36.5t42.5 49.5t50.5 43.5t50.5 18.5q27 0 43.5 -23.5t26 -58t13.5 -72.5t6 -67q5 -68 6 -135t3 -135
q1 -38 0 -87.5t4.5 -94.5t22 -76t51.5 -31q22 0 47 9.5t50 22.5t47.5 27.5t39.5 23.5zM526 -30q0 5 6 7.5t11 2.5q12 0 12 -7q0 -36 -22.5 -65t-48.5 -53q-2 -2 -7 -3.5t-10 -1.5q-7 0 -7 3q0 2 4 5q26 23 43 51t19 61z" />
    <glyph glyph-name="Ntilde" unicode="&#xd1;" horiz-adv-x="1054"
d="M1058 23q10 5 24 5q11 0 11 -4q0 1 -12 -7.5t-32.5 -22t-46.5 -29t-54.5 -29.5t-57 -23t-53.5 -9q-38 0 -57 27.5t-26.5 67t-7.5 83.5v77q-1 26 -0.5 75.5t-0.5 108.5t-4.5 120t-11 111.5t-19.5 82.5t-31 32q-13 0 -28 -12.5t-30 -30t-28.5 -37t-22.5 -33.5
q-84 -137 -147.5 -273.5t-120.5 -277.5q-3 -7 -15.5 -12t-23.5 -5q-13 0 -13 8v2q21 80 42.5 162.5t39.5 165.5t29 166.5t11 166.5q0 29 -4 62.5t-14 62.5t-26 48.5t-41 19.5q-26 0 -56.5 -12t-62.5 -30.5t-63 -40.5t-57 -42q-5 -3 -14 -5t-17 -2q-16 0 -16 6q0 2 6 7
q30 23 66 48t75.5 46t80.5 34.5t82 13.5q30 0 50 -14.5t32 -37.5t18 -50.5t8 -54.5t2 -49.5v-34.5q0 -90 -14 -178.5t-35 -177.5q35 72 73 140.5t83 133.5q8 12 26.5 36.5t42.5 49.5t50.5 43.5t50.5 18.5q27 0 43.5 -23.5t26 -58t13.5 -72.5t6 -67q5 -68 6 -135t3 -135
q1 -38 0 -87.5t4.5 -94.5t22 -76t51.5 -31q22 0 47 9.5t50 22.5t47.5 27.5t39.5 23.5zM780 800q9 0 16.5 5t14 11t13.5 11t14 5q5 0 9.5 -1t4.5 -5q0 -2 -3 -6q-12 -20 -30.5 -32t-44.5 -12q-18 0 -34 6.5t-32 14.5t-32 14.5t-34 6.5q-15 0 -26 -4.5t-18 -9.5t-11 -9.5
t-5 -4.5q-6 0 -6 6q0 10 8.5 18.5t20 13.5t24 8t20.5 3q15 0 29 -4t28 -10l28 -12t29 -10l7 -2q4 -1 10 -1z" />
    <glyph glyph-name="Oacute" unicode="&#xd3;" horiz-adv-x="509"
d="M212 742q4 5 14.5 8.5t20.5 3.5q14 0 14 -6q0 -1 -2 -5q-38 -56 -75.5 -119.5t-67 -130.5t-48 -136t-18.5 -136q0 -45 11 -81t30.5 -60.5t46 -37.5t57.5 -13q38 0 70.5 18t58.5 48.5t45.5 70.5t33 82.5t20 85.5t6.5 80q0 73 -14.5 132.5t-42.5 108.5t-69 89t-94 74
q-2 2 -2 3q0 5 14 11.5t25 6.5q4 0 10 -2q109 -69 167 -169.5t58 -231.5q0 -42 -7.5 -90.5t-23 -97t-40 -93t-58.5 -78.5t-78 -54.5t-99 -20.5q-42 0 -74.5 16.5t-54 46.5t-33 71t-11.5 90q0 67 19.5 136t49.5 135.5t67.5 128.5t73.5 116zM369 1002q4 2 7 2q6 0 9.5 -6
t3.5 -14q0 -12 -8 -17q-18 -11 -34 -21.5t-31.5 -21t-31.5 -20.5t-35 -20q-5 -3 -11 -6t-10 -3t-5 3t-1 6q0 6 17.5 22t41.5 34.5t48.5 35.5t39.5 26z" />
    <glyph glyph-name="Obreve" unicode="&#x14e;" horiz-adv-x="506"
d="M212 742q4 5 14.5 8.5t20.5 3.5q14 0 14 -6q0 -1 -2 -5q-38 -56 -75.5 -119.5t-67 -130.5t-48 -136t-18.5 -136q0 -45 11 -81t30.5 -60.5t46 -37.5t57.5 -13q38 0 70.5 18t58.5 48.5t45.5 70.5t33 82.5t20 85.5t6.5 80q0 73 -14.5 132.5t-42.5 108.5t-69 89t-94 74
q-2 2 -2 3q0 5 14 11.5t25 6.5q4 0 10 -2q109 -69 167 -169.5t58 -231.5q0 -42 -7.5 -90.5t-23 -97t-40 -93t-58.5 -78.5t-78 -54.5t-99 -20.5q-42 0 -74.5 16.5t-54 46.5t-33 71t-11.5 90q0 67 19.5 136t49.5 135.5t67.5 128.5t73.5 116zM119 957q0 3 4.5 5.5t10 4t10.5 2
t6 0.5q5 0 7 -3q8 -18 24.5 -32t36.5 -16l11 -2q4 -1 13 -1h11q2 0 3 0.5t3 0.5l16 2q2 0 5 1q6 2 7 2l4 2q4 0 9.5 2.5t10.5 4.5l-2 -1l2 1l3 2l17 8q1 0 2 1l4 2l16 11q1 0 3 2l1 1l13 11q5 5 12 6.5t13 2.5q2 0 7 -1t5 -3q0 -1 -2 -3q-34 -31 -82.5 -51.5t-102.5 -20.5
q-32 0 -59.5 13t-41.5 45v1z" />
    <glyph glyph-name="Ocircumflex" unicode="&#xd4;" horiz-adv-x="502"
d="M212 742q4 5 14.5 8.5t20.5 3.5q14 0 14 -6q0 -1 -2 -5q-38 -56 -75.5 -119.5t-67 -130.5t-48 -136t-18.5 -136q0 -45 11 -81t30.5 -60.5t46 -37.5t57.5 -13q38 0 70.5 18t58.5 48.5t45.5 70.5t33 82.5t20 85.5t6.5 80q0 73 -14.5 132.5t-42.5 108.5t-69 89t-94 74
q-2 2 -2 3q0 5 14 11.5t25 6.5q4 0 10 -2q109 -69 167 -169.5t58 -231.5q0 -42 -7.5 -90.5t-23 -97t-40 -93t-58.5 -78.5t-78 -54.5t-99 -20.5q-42 0 -74.5 16.5t-54 46.5t-33 71t-11.5 90q0 67 19.5 136t49.5 135.5t67.5 128.5t73.5 116zM121 865q0 2 7 8q17 13 30.5 24
t25.5 20t24 17.5t26 18.5q11 7 21.5 15t23.5 8q11 0 21.5 -5.5t20.5 -11.5q8 -5 23.5 -16t31.5 -23t27.5 -23t11.5 -16q0 -6 -11 -9.5t-20 -3.5q-4 0 -11 4.5t-15 11l-16 13t-13 10.5l-48 33q-3 2 -7 4l-2 1h-1q-4 0 -17.5 -7.5t-31 -19.5t-37.5 -26t-36 -26q-5 -3 -10 -5.5
t-10 -2.5q-8 0 -8 7z" />
    <glyph glyph-name="Odieresis" unicode="&#xd6;" horiz-adv-x="495"
d="M212 742q4 5 14.5 8.5t20.5 3.5q14 0 14 -6q0 -1 -2 -5q-38 -56 -75.5 -119.5t-67 -130.5t-48 -136t-18.5 -136q0 -45 11 -81t30.5 -60.5t46 -37.5t57.5 -13q38 0 70.5 18t58.5 48.5t45.5 70.5t33 82.5t20 85.5t6.5 80q0 73 -14.5 132.5t-42.5 108.5t-69 89t-94 74
q-2 2 -2 3q0 5 14 11.5t25 6.5q4 0 10 -2q109 -69 167 -169.5t58 -231.5q0 -42 -7.5 -90.5t-23 -97t-40 -93t-58.5 -78.5t-78 -54.5t-99 -20.5q-42 0 -74.5 16.5t-54 46.5t-33 71t-11.5 90q0 67 19.5 136t49.5 135.5t67.5 128.5t73.5 116zM332 948q5 -2 7.5 -9.5t2.5 -12.5
q0 -14 -10.5 -22.5t-22.5 -8.5q-8 0 -9.5 12t-1.5 15q2 10 9 18.5t18 8.5q4 0 7 -1zM226 948q5 -2 7.5 -9.5t2.5 -12.5q0 -14 -10.5 -22.5t-22.5 -8.5q-8 0 -9.5 12t-1.5 15q2 10 9 18.5t18 8.5q4 0 7 -1z" />
    <glyph glyph-name="Ograve" unicode="&#xd2;" horiz-adv-x="506"
d="M212 742q4 5 14.5 8.5t20.5 3.5q14 0 14 -6q0 -1 -2 -5q-38 -56 -75.5 -119.5t-67 -130.5t-48 -136t-18.5 -136q0 -45 11 -81t30.5 -60.5t46 -37.5t57.5 -13q38 0 70.5 18t58.5 48.5t45.5 70.5t33 82.5t20 85.5t6.5 80q0 73 -14.5 132.5t-42.5 108.5t-69 89t-94 74
q-2 2 -2 3q0 5 14 11.5t25 6.5q4 0 10 -2q109 -69 167 -169.5t58 -231.5q0 -42 -7.5 -90.5t-23 -97t-40 -93t-58.5 -78.5t-78 -54.5t-99 -20.5q-42 0 -74.5 16.5t-54 46.5t-33 71t-11.5 90q0 67 19.5 136t49.5 135.5t67.5 128.5t73.5 116zM195 958q-4 3 -4 8t6 9.5t14 4.5
q4 0 9 -3q12 -11 32 -25.5t39 -29t33 -27t14 -18.5q0 -3 -4.5 -5t-6.5 -2q-5 0 -9 4q-32 20 -63 40t-60 44z" />
    <glyph glyph-name="Ohungarumlaut" unicode="&#x150;" horiz-adv-x="502"
d="M212 742q4 5 14.5 8.5t20.5 3.5q14 0 14 -6q0 -1 -2 -5q-38 -56 -75.5 -119.5t-67 -130.5t-48 -136t-18.5 -136q0 -45 11 -81t30.5 -60.5t46 -37.5t57.5 -13q38 0 70.5 18t58.5 48.5t45.5 70.5t33 82.5t20 85.5t6.5 80q0 73 -14.5 132.5t-42.5 108.5t-69 89t-94 74
q-2 2 -2 3q0 5 14 11.5t25 6.5q4 0 10 -2q109 -69 167 -169.5t58 -231.5q0 -42 -7.5 -90.5t-23 -97t-40 -93t-58.5 -78.5t-78 -54.5t-99 -20.5q-42 0 -74.5 16.5t-54 46.5t-33 71t-11.5 90q0 67 19.5 136t49.5 135.5t67.5 128.5t73.5 116zM299 993q2 2 6 2q5 0 8.5 -5.5
t3.5 -11.5t-15 -22t-34 -33.5t-36.5 -30.5t-21.5 -13q-3 0 -4.5 3.5t-1.5 5.5t5 9q23 24 44 49t46 47zM402 981q3 3 6 3q5 0 8.5 -5.5t3.5 -11.5q0 -5 -14.5 -21.5t-33.5 -34t-36 -31t-23 -13.5q-3 0 -4 3t-1 5q0 5 5 10q22 25 43.5 49.5t45.5 46.5z" />
    <glyph glyph-name="Omacron" unicode="&#x14c;" horiz-adv-x="502"
d="M212 742q4 5 14.5 8.5t20.5 3.5q14 0 14 -6q0 -1 -2 -5q-38 -56 -75.5 -119.5t-67 -130.5t-48 -136t-18.5 -136q0 -45 11 -81t30.5 -60.5t46 -37.5t57.5 -13q38 0 70.5 18t58.5 48.5t45.5 70.5t33 82.5t20 85.5t6.5 80q0 73 -14.5 132.5t-42.5 108.5t-69 89t-94 74
q-2 2 -2 3q0 5 14 11.5t25 6.5q4 0 10 -2q109 -69 167 -169.5t58 -231.5q0 -42 -7.5 -90.5t-23 -97t-40 -93t-58.5 -78.5t-78 -54.5t-99 -20.5q-42 0 -74.5 16.5t-54 46.5t-33 71t-11.5 90q0 67 19.5 136t49.5 135.5t67.5 128.5t73.5 116zM172 886q-34 0 -34 9q0 5 10.5 10
t29.5 6q64 2 129 6.5t129 4.5q26 0 26 -9q0 -6 -15.5 -10t-40.5 -7t-57 -4.5t-64 -2.5t-62 -1.5t-51 -1.5z" />
    <glyph glyph-name="Oslash" unicode="&#xd8;" horiz-adv-x="499"
d="M494 731q0 -3 -1 -4q-14 -23 -27.5 -45t-27.5 -45q43 -92 43 -202q0 -43 -7.5 -92t-23.5 -97t-41 -92t-59 -78t-78 -54t-99 -20q-31 0 -56 9t-45 26l-4 -9q-3 -6 -13 -8.5t-18 -2.5t-11 0.5t-5 1.5t-1 3q0 2 1 3l22 44q-41 61 -41 160q0 66 19.5 134.5t50 135t67.5 128.5
t73 115q4 5 14.5 8.5t20.5 3.5q14 0 14 -6q0 -1 -2 -5q-38 -57 -75.5 -120.5t-67 -130.5t-48 -136t-18.5 -136q0 -27 4 -54t14 -50q74 135 156 259t162 252q-27 59 -71 105.5t-106 85.5q-2 2 -2 3q0 5 14 11.5t25 6.5q4 0 10 -2q51 -33 91.5 -72.5t69.5 -87.5l10 16l21 34
q10 3 15.5 6.5t20.5 3.5q7 0 10 -4v-2zM424 490q-4 25 -8.5 48t-12.5 45l-61 -95q-64 -100 -128.5 -202t-120.5 -209q20 -24 46.5 -36t55.5 -12q58 0 101.5 39t73 97.5t44.5 125.5t15 123q0 19 -1.5 38t-3.5 38z" />
    <glyph glyph-name="Oslashacute" unicode="&#x1fe;" horiz-adv-x="523"
d="M494 731q0 -3 -1 -4q-14 -23 -27.5 -45t-27.5 -45q43 -92 43 -202q0 -43 -7.5 -92t-23.5 -97t-41 -92t-59 -78t-78 -54t-99 -20q-31 0 -56 9t-45 26l-4 -9q-3 -6 -13 -8.5t-18 -2.5t-11 0.5t-5 1.5t-1 3q0 2 1 3l22 44q-41 61 -41 160q0 66 19.5 134.5t50 135t67.5 128.5
t73 115q4 5 14.5 8.5t20.5 3.5q14 0 14 -6q0 -1 -2 -5q-38 -57 -75.5 -120.5t-67 -130.5t-48 -136t-18.5 -136q0 -27 4 -54t14 -50q74 135 156 259t162 252q-27 59 -71 105.5t-106 85.5q-2 2 -2 3q0 5 14 11.5t25 6.5q4 0 10 -2q51 -33 91.5 -72.5t69.5 -87.5l10 16l21 34
q10 3 15.5 6.5t20.5 3.5q7 0 10 -4v-2zM424 490q-4 25 -8.5 48t-12.5 45l-61 -95q-64 -100 -128.5 -202t-120.5 -209q20 -24 46.5 -36t55.5 -12q58 0 101.5 39t73 97.5t44.5 125.5t15 123q0 19 -1.5 38t-3.5 38zM369 1002q4 2 7 2q6 0 9.5 -6t3.5 -14q0 -12 -8 -17
q-18 -11 -34 -21.5t-31.5 -21t-31.5 -20.5t-35 -20q-5 -3 -11 -6t-10 -3t-5 3t-1 6q0 6 17.5 22t41.5 34.5t48.5 35.5t39.5 26z" />
    <glyph glyph-name="Otilde" unicode="&#xd5;" horiz-adv-x="495"
d="M212 742q4 5 14.5 8.5t20.5 3.5q14 0 14 -6q0 -1 -2 -5q-38 -56 -75.5 -119.5t-67 -130.5t-48 -136t-18.5 -136q0 -45 11 -81t30.5 -60.5t46 -37.5t57.5 -13q38 0 70.5 18t58.5 48.5t45.5 70.5t33 82.5t20 85.5t6.5 80q0 73 -14.5 132.5t-42.5 108.5t-69 89t-94 74
q-2 2 -2 3q0 5 14 11.5t25 6.5q4 0 10 -2q109 -69 167 -169.5t58 -231.5q0 -42 -7.5 -90.5t-23 -97t-40 -93t-58.5 -78.5t-78 -54.5t-99 -20.5q-42 0 -74.5 16.5t-54 46.5t-33 71t-11.5 90q0 67 19.5 136t49.5 135.5t67.5 128.5t73.5 116zM371 901q9 0 16.5 5t14.5 11.5
t13.5 11.5t13.5 5q4 0 8.5 -1t4.5 -6q0 -10 -8 -19t-20 -15.5t-25.5 -10.5t-23.5 -4q-15 0 -28.5 4t-26 10l-25 12t-25.5 10l-12 3h-1h-1q-2 0 -2 1h-1h-2q-3 1 -9 1q-16 0 -26.5 -4.5t-17.5 -9.5t-11 -9.5t-6 -4.5q-5 0 -5 7q0 10 8 18t19.5 13.5t24 8.5t21.5 3
q15 0 29.5 -4.5t28.5 -10.5l28 -12t28 -9q4 -2 6 -2h2l1 -1q2 -1 9 -1z" />
    <glyph glyph-name="OE" unicode="&#x152;" horiz-adv-x="876"
d="M283 60q-21 22 -30.5 51.5t-9.5 67.5q0 46 14 89t38.5 82.5t57.5 75t71 67.5q-10 68 -35 125h1l-1 1q0 5 -2 5q-27 60 -71 107t-107 87q-2 2 -2 3q0 5 14 11.5t25 6.5q4 0 10 -2q45 -28 81 -61.5t63 -72.5q19 33 50 60t68 45.5t76.5 29t76.5 10.5q42 0 69 -12t27 -23
q0 -4 -8 -4q-17 0 -35.5 5t-37.5 5q-43 0 -89 -14.5t-83.5 -37.5t-61.5 -50.5t-24 -52.5q0 -10 7 -20q14 -17 42 -23.5t63 -6.5q33 0 67 4.5t55 12.5l16 5q1 0 5 2t8 2q8 0 13 -7t5 -15q0 -7 -3 -9t-11 -4q-57 -18 -111.5 -47.5t-104.5 -66.5q-23 -17 -54.5 -47t-60.5 -69
t-49 -85.5t-20 -97.5q0 -55 29 -93q23 -31 63 -45t87 -14q56 0 110.5 16.5t105 44t97.5 62t88 70.5q6 6 14.5 9t14.5 3q10 0 10 -6q0 -4 -10 -13q-45 -40 -96.5 -80t-107.5 -72.5t-116 -53t-123 -20.5q-40 0 -81.5 9t-73.5 32q-30 -20 -66 -29.5t-65 -9.5q-42 0 -74.5 16.5
t-54 46.5t-33 71t-11.5 90q0 67 19.5 136t49.5 135.5t67.5 128.5t73.5 116q4 5 14.5 8.5t20.5 3.5q14 0 14 -6q0 -1 -2 -5q-38 -56 -75.5 -119.5t-67 -130.5t-48 -136t-18.5 -136q0 -45 11 -81t30.5 -60.5t46 -37.5t56.5 -13q23 0 45.5 7.5t43.5 23.5zM555 581
q-27 -3 -52 -3q-24 0 -43 3q8 -23 13 -51q42 30 82 51z" />
    <glyph glyph-name="Racute" unicode="&#x154;" horiz-adv-x="693"
d="M823 -172q15 -4 24 -12.5t9 -13.5q0 -4 -6 -4h-3q-70 11 -144.5 45.5t-142.5 92t-123.5 138t-86.5 185.5q-2 -4 -2 -7q-14 -46 -32.5 -96t-45.5 -94t-65 -76.5t-90 -44.5q-12 -3 -25 -3q-17 0 -33 5t-28.5 14.5t-20 24.5t-7.5 35q0 29 17.5 59t45.5 59.5t63 57.5t71 52.5
t69 45.5t57 36q10 57 18.5 104t15 92t12.5 91.5t12 100.5q1 7 11 12t20 5q14 0 14 -11q-5 -51 -10 -98t-11 -92t-14 -89.5t-18 -90.5l1 -1q32 15 70 30t76 30.5t73.5 33t63 38.5t44 46.5t16.5 56.5q0 40 -43 76q-44 35 -93.5 58t-102 41t-106 34t-103.5 37q-9 4 -9 10
q0 7 8 12.5t17 5.5q5 0 7 -1q62 -26 125.5 -44t126.5 -43q32 -13 69.5 -29.5t70 -39.5t54.5 -53t22 -69q0 -33 -19.5 -61.5t-51 -53t-71.5 -45t-82 -38.5t-82 -33.5t-71 -28.5q28 -116 75.5 -202t107 -145.5t125.5 -94.5t131 -50zM148 -21q36 23 62.5 57.5t46 75.5
t33.5 85.5t24 87.5q-51 -35 -99 -67t-85 -63.5t-59 -62.5t-22 -62q0 -33 17.5 -49t38.5 -16t43 14zM699 966q4 2 7 2q6 0 9.5 -6t3.5 -14q0 -12 -8 -17q-19 -11 -34.5 -21.5l-31 -21t-31.5 -20.5t-35 -20q-5 -3 -11 -6t-10 -3t-5 3t-1 6q0 7 17.5 23t41 34t48.5 35t40 26z
" />
    <glyph glyph-name="Rcaron" unicode="&#x158;" horiz-adv-x="693"
d="M823 -172q15 -4 24 -12.5t9 -13.5q0 -4 -6 -4h-3q-70 11 -144.5 45.5t-142.5 92t-123.5 138t-86.5 185.5q-2 -4 -2 -7q-14 -46 -32.5 -96t-45.5 -94t-65 -76.5t-90 -44.5q-12 -3 -25 -3q-17 0 -33 5t-28.5 14.5t-20 24.5t-7.5 35q0 29 17.5 59t45.5 59.5t63 57.5t71 52.5
t69 45.5t57 36q10 57 18.5 104t15 92t12.5 91.5t12 100.5q1 7 11 12t20 5q14 0 14 -11q-5 -51 -10 -98t-11 -92t-14 -89.5t-18 -90.5l1 -1q32 15 70 30t76 30.5t73.5 33t63 38.5t44 46.5t16.5 56.5q0 40 -43 76q-44 35 -93.5 58t-102 41t-106 34t-103.5 37q-9 4 -9 10
q0 7 8 12.5t17 5.5q5 0 7 -1q62 -26 125.5 -44t126.5 -43q32 -13 69.5 -29.5t70 -39.5t54.5 -53t22 -69q0 -33 -19.5 -61.5t-51 -53t-71.5 -45t-82 -38.5t-82 -33.5t-71 -28.5q28 -116 75.5 -202t107 -145.5t125.5 -94.5t131 -50zM148 -21q36 23 62.5 57.5t46 75.5
t33.5 85.5t24 87.5q-51 -35 -99 -67t-85 -63.5t-59 -62.5t-22 -62q0 -33 17.5 -49t38.5 -16t43 14zM713 923q0 -1 -6 -6q-18 -12 -36 -26t-35 -25.5t-32 -19t-26 -7.5q-9 0 -17.5 4.5t-16.5 9.5q-7 4 -20 12.5t-26 18t-22.5 18t-9.5 12.5q0 5 8.5 7t15.5 2t8 -1l67 -48
l20 -11h1q3 0 14.5 5.5t26.5 14.5t31.5 19.5t30.5 19.5q4 2 8.5 4t8.5 2q7 0 7 -5z" />
    <glyph glyph-name="Rcommaaccent" unicode="&#x156;" horiz-adv-x="675"
d="M823 -172q15 -4 24 -12.5t9 -13.5q0 -4 -6 -4h-3q-70 11 -144.5 45.5t-142.5 92t-123.5 138t-86.5 185.5q-2 -4 -2 -7q-14 -46 -32.5 -96t-45.5 -94t-65 -76.5t-90 -44.5q-12 -3 -25 -3q-17 0 -33 5t-28.5 14.5t-20 24.5t-7.5 35q0 29 17.5 59t45.5 59.5t63 57.5t71 52.5
t69 45.5t57 36q10 57 18.5 104t15 92t12.5 91.5t12 100.5q1 7 11 12t20 5q14 0 14 -11q-5 -51 -10 -98t-11 -92t-14 -89.5t-18 -90.5l1 -1q32 15 70 30t76 30.5t73.5 33t63 38.5t44 46.5t16.5 56.5q0 40 -43 76q-44 35 -93.5 58t-102 41t-106 34t-103.5 37q-9 4 -9 10
q0 7 8 12.5t17 5.5q5 0 7 -1q62 -26 125.5 -44t126.5 -43q32 -13 69.5 -29.5t70 -39.5t54.5 -53t22 -69q0 -33 -19.5 -61.5t-51 -53t-71.5 -45t-82 -38.5t-82 -33.5t-71 -28.5q28 -116 75.5 -202t107 -145.5t125.5 -94.5t131 -50zM148 -21q36 23 62.5 57.5t46 75.5
t33.5 85.5t24 87.5q-51 -35 -99 -67t-85 -63.5t-59 -62.5t-22 -62q0 -33 17.5 -49t38.5 -16t43 14zM346 -30q0 5 6 7.5t11 2.5q12 0 12 -7q0 -36 -22.5 -64.5t-48.5 -53.5q-2 -2 -7 -3.5t-10 -1.5q-7 0 -7 3q0 2 4 5q26 23 43 51t19 61z" />
    <glyph glyph-name="Sacute" unicode="&#x15a;" horiz-adv-x="479"
d="M555 702q0 -5 -5.5 -7.5t-12.5 -2.5q-8 0 -15.5 3t-9.5 9q-11 30 -38 56.5t-63 46t-77 31t-79 11.5q-32 0 -62.5 -7t-54.5 -24t-39 -45.5t-15 -71.5q0 -35 10 -73t25 -76.5t32.5 -75.5t32.5 -70q18 -41 38.5 -84t39 -87t32.5 -89t20 -90q52 25 105 52.5t111 65.5
q7 4 18 4q9 0 9 -4q0 -3 -9 -9q-71 -45 -125.5 -75t-106.5 -56q0 -5 0.5 -9.5t0.5 -9.5q0 -44 -19 -89.5t-51.5 -82.5t-75.5 -60t-90 -23q-15 0 -29 4t-25.5 12.5t-18.5 22.5t-7 35q0 26 15 47t37 38.5t47 31t44 23.5q32 17 62.5 32t61.5 29q-7 61 -30 125.5t-52.5 130
t-61 131.5t-55.5 130q-12 32 -22 68t-10 72q0 49 21 83t54 55.5t73 31t78 9.5q44 0 89.5 -10t85.5 -30t71 -52t46 -75v-2zM202 -160q36 38 51.5 78.5t15.5 83.5v9q-23 -11 -47 -24t-50 -27q-17 -9 -38.5 -20t-41 -25t-32.5 -32t-13 -40q0 -25 16.5 -40.5t38.5 -15.5
q13 0 27.5 5t28 13t25 17t19.5 18zM426 1035q4 2 7 2q6 0 9.5 -6t3.5 -14q0 -12 -8 -17q-19 -11 -34.5 -21.5l-31 -21t-31.5 -20.5t-35 -20q-5 -3 -11 -6t-10 -3t-5 3t-1 6q0 7 17.5 23t41 34t48.5 35t40 26z" />
    <glyph glyph-name="Scaron" unicode="&#x160;" horiz-adv-x="481"
d="M555 702q0 -5 -5.5 -7.5t-12.5 -2.5q-8 0 -15.5 3t-9.5 9q-11 30 -38 56.5t-63 46t-77 31t-79 11.5q-32 0 -62.5 -7t-54.5 -24t-39 -45.5t-15 -71.5q0 -35 10 -73t25 -76.5t32.5 -75.5t32.5 -70q18 -41 38.5 -84t39 -87t32.5 -89t20 -90q52 25 105 52.5t111 65.5
q7 4 18 4q9 0 9 -4q0 -3 -9 -9q-71 -45 -125.5 -75t-106.5 -56q0 -5 0.5 -9.5t0.5 -9.5q0 -44 -19 -89.5t-51.5 -82.5t-75.5 -60t-90 -23q-15 0 -29 4t-25.5 12.5t-18.5 22.5t-7 35q0 26 15 47t37 38.5t47 31t44 23.5q32 17 62.5 32t61.5 29q-7 61 -30 125.5t-52.5 130
t-61 131.5t-55.5 130q-12 32 -22 68t-10 72q0 49 21 83t54 55.5t73 31t78 9.5q44 0 89.5 -10t85.5 -30t71 -52t46 -75v-2zM202 -160q36 38 51.5 78.5t15.5 83.5v9q-23 -11 -47 -24t-50 -27q-17 -9 -38.5 -20t-41 -25t-32.5 -32t-13 -40q0 -25 16.5 -40.5t38.5 -15.5
q13 0 27.5 5t28 13t25 17t19.5 18zM482 986q0 -1 -6 -6q-18 -12 -36 -26t-35 -25.5t-32 -19t-26 -7.5q-9 0 -17.5 4.5t-16.5 9.5q-7 4 -20 12.5t-26 18t-22.5 18t-9.5 12.5q0 5 8.5 7t15.5 2t8 -1l67 -48l20 -11h1q3 0 14.5 5.5t26.5 14.5t31.5 19.5t30.5 19.5q4 2 8.5 4
t8.5 2q7 0 7 -5z" />
    <glyph glyph-name="Scedilla" unicode="&#x15e;" horiz-adv-x="471"
d="M555 702q0 -5 -5.5 -7.5t-12.5 -2.5q-8 0 -15.5 3t-9.5 9q-11 30 -38 56.5t-63 46t-77 31t-79 11.5q-32 0 -62.5 -7t-54.5 -24t-39 -45.5t-15 -71.5q0 -35 10 -73t25 -76.5t32.5 -75.5t32.5 -70q18 -41 38.5 -84t39 -87t32.5 -89t20 -90q52 25 105 52.5t111 65.5
q7 4 18 4q9 0 9 -4q0 -3 -9 -9q-71 -45 -125.5 -75t-106.5 -56q0 -5 0.5 -9.5t0.5 -9.5q0 -74 -40.5 -132.5t-104.5 -96.5q-16 -9 -35.5 -16t-39.5 -24q7 1 13.5 1.5t13.5 0.5q10 0 21 -1.5t20.5 -6t16 -12.5t6.5 -21q0 -26 -19.5 -44.5t-48.5 -31t-62 -20t-60 -10.5
q-5 0 -10 2t-5 7t6 6t19.5 2.5t35 6.5t52.5 17q17 7 27.5 14.5t16 14.5t7 12t1.5 6q0 20 -9.5 24.5t-15.5 4.5q-5 0 -11.5 -0.5t-11.5 -1.5h1l-13 -3q-7 -1 -14 -4t-14 -3q-6 0 -12 3t-6 9q0 10 12 21.5t24 20.5q-15 0 -28.5 4t-24.5 13t-17.5 23t-6.5 34q0 26 15 47
t37 38.5t47 31t44 23.5q32 17 62.5 32t61.5 29q-7 61 -30 125.5t-52.5 130t-61 131.5t-55.5 130q-12 32 -22 68t-10 72q0 49 21 83t54 55.5t73 31t78 9.5q44 0 89.5 -10t85.5 -30t71 -52t46 -75v-2zM202 -160q36 38 51.5 78.5t15.5 83.5v9q-23 -11 -47 -24t-50 -27
q-17 -9 -38.5 -20t-41 -25t-32.5 -32t-13 -40q0 -25 16.5 -40.5t38.5 -15.5q13 0 27.5 5t28 13t25 17t19.5 18z" />
    <glyph glyph-name="Scircumflex" unicode="&#x15c;" horiz-adv-x="463"
d="M555 702q0 -5 -5.5 -7.5t-12.5 -2.5q-8 0 -15.5 3t-9.5 9q-11 30 -38 56.5t-63 46t-77 31t-79 11.5q-32 0 -62.5 -7t-54.5 -24t-39 -45.5t-15 -71.5q0 -35 10 -73t25 -76.5t32.5 -75.5t32.5 -70q18 -41 38.5 -84t39 -87t32.5 -89t20 -90q52 25 105 52.5t111 65.5
q7 4 18 4q9 0 9 -4q0 -3 -9 -9q-71 -45 -125.5 -75t-106.5 -56q0 -5 0.5 -9.5t0.5 -9.5q0 -44 -19 -89.5t-51.5 -82.5t-75.5 -60t-90 -23q-15 0 -29 4t-25.5 12.5t-18.5 22.5t-7 35q0 26 15 47t37 38.5t47 31t44 23.5q32 17 62.5 32t61.5 29q-7 61 -30 125.5t-52.5 130
t-61 131.5t-55.5 130q-12 32 -22 68t-10 72q0 49 21 83t54 55.5t73 31t78 9.5q44 0 89.5 -10t85.5 -30t71 -52t46 -75v-2zM202 -160q36 38 51.5 78.5t15.5 83.5v9q-23 -11 -47 -24t-50 -27q-17 -9 -38.5 -20t-41 -25t-32.5 -32t-13 -40q0 -25 16.5 -40.5t38.5 -15.5
q13 0 27.5 5t28 13t25 17t19.5 18zM169 913q0 2 7 8q17 13 30.5 24t25.5 20t24 17.5t26 18.5q11 7 21.5 15t23.5 8q11 0 21.5 -5.5t20.5 -11.5q8 -5 23.5 -16t31.5 -23t27.5 -23t11.5 -16q0 -6 -11 -9.5t-20 -3.5q-4 0 -11 4.5t-15 11l-16 13t-13 10.5l-48 33q-3 2 -7 4
l-2 1h-1q-4 0 -17.5 -7.5t-31 -19.5t-37.5 -26t-36 -26q-5 -3 -10 -5.5t-10 -2.5q-8 0 -8 7z" />
    <glyph glyph-name="Scommaaccent" unicode="&#x218;" horiz-adv-x="479"
d="M555 702q0 -5 -5.5 -7.5t-12.5 -2.5q-8 0 -15.5 3t-9.5 9q-11 30 -38 56.5t-63 46t-77 31t-79 11.5q-32 0 -62.5 -7t-54.5 -24t-39 -45.5t-15 -71.5q0 -35 10 -73t25 -76.5t32.5 -75.5t32.5 -70q18 -41 38.5 -84t39 -87t32.5 -89t20 -90q52 25 105 52.5t111 65.5
q7 4 18 4q9 0 9 -4q0 -3 -9 -9q-71 -45 -125.5 -75t-106.5 -56q0 -5 0.5 -9.5t0.5 -9.5q0 -44 -19 -89.5t-51.5 -82.5t-75.5 -60t-90 -23q-15 0 -29 4t-25.5 12.5t-18.5 22.5t-7 35q0 26 15 47t37 38.5t47 31t44 23.5q32 17 62.5 32t61.5 29q-7 61 -30 125.5t-52.5 130
t-61 131.5t-55.5 130q-12 32 -22 68t-10 72q0 49 21 83t54 55.5t73 31t78 9.5q44 0 89.5 -10t85.5 -30t71 -52t46 -75v-2zM202 -160q36 38 51.5 78.5t15.5 83.5v9q-23 -11 -47 -24t-50 -27q-17 -9 -38.5 -20t-41 -25t-32.5 -32t-13 -40q0 -25 16.5 -40.5t38.5 -15.5
q13 0 27.5 5t28 13t25 17t19.5 18zM94 -282q0 5 6 7.5t11 2.5q12 0 12 -7q0 -36 -22.5 -64.5t-48.5 -53.5q-2 -2 -7 -3.5t-10 -1.5q-7 0 -7 3q0 2 4 5q26 23 43 51t19 61z" />
    <glyph glyph-name="Tbar" unicode="&#x166;" horiz-adv-x="500"
d="M80 488q-2 0 -3 -0.5t-2 -0.5q-5 0 -5 3t5.5 8t13 10.5t15 9.5t11.5 5q53 9 106 19.5t107 22.5q8 51 13.5 102t10.5 109q-80 -20 -157 -38t-165 -26l-12 -2q-17 1 -17 10q0 6 5 12.5t12 12t14.5 9.5t13.5 4q86 5 170 21.5t167.5 35.5t167.5 35.5t170 21.5h4q13 0 13 -6
q0 -4 -4.5 -9t-10.5 -9.5t-13 -8t-13 -3.5q-89 -5 -164.5 -19.5t-146.5 -31.5q-4 -54 -8 -106t-9 -105l46 12t53 13.5t69 16.5t95 20q4 1 10 1q7 0 7 -4t-4.5 -9t-10.5 -10t-12.5 -9t-11.5 -5l-245 -57q-3 -28 -10 -80t-18 -114t-26.5 -127t-34.5 -117.5t-42 -86.5t-50 -34
q-8 0 -13 2.5t-5 7.5q0 6 4 11q30 40 54 100.5t42.5 131t32.5 147t25 150.5q-62 -14 -122.5 -25.5t-121.5 -20.5z" />
    <glyph glyph-name="Tcaron" unicode="&#x164;" horiz-adv-x="484"
d="M725 872q13 0 13 -6q0 -4 -4.5 -9t-10.5 -9.5t-13 -8t-13 -3.5q-89 -5 -164.5 -19.5t-146.5 -31.5q-8 -112 -19 -223t-32 -222q-11 -54 -26 -116.5t-34.5 -115.5t-42.5 -88.5t-48 -35.5q-8 0 -13 2.5t-5 7.5q0 6 4 11q24 32 44 76.5t36.5 97.5t29.5 111.5t23 118.5
q8 50 15.5 95t13.5 89t11 88.5t9 94.5q-80 -20 -157 -38t-165 -26l-12 -2q-17 1 -17 10q0 6 5 12.5t12 12t14.5 9.5t13.5 4q86 5 170 21.5t167.5 35.5t167.5 35.5t170 21.5h4zM487 948q0 -2 -7 -7q-18 -12 -36 -25.5t-35 -25.5t-31.5 -19.5t-24.5 -7.5q-9 0 -18.5 4.5
t-17.5 9.5q-7 4 -20 13t-26 18.5t-22.5 18t-9.5 11.5q0 5 9 7.5t17 2.5q5 0 15 -6t21 -14.5t21 -16.5t16 -12l13 -8l7 -3h1q3 0 14.5 5.5t27 14.5t32 19.5t30.5 19.5q8 5 18 5q6 0 6 -4z" />
    <glyph glyph-name="Tcommaaccent" unicode="&#x162;" horiz-adv-x="468"
d="M725 872q13 0 13 -6q0 -4 -4.5 -9t-10.5 -9.5t-13 -8t-13 -3.5q-89 -5 -164.5 -19.5t-146.5 -31.5q-8 -112 -19 -223t-32 -222q-11 -54 -26 -116.5t-34.5 -115.5t-42.5 -88.5t-48 -35.5q-8 0 -13 2.5t-5 7.5q0 6 4 11q24 32 44 76.5t36.5 97.5t29.5 111.5t23 118.5
q8 50 15.5 95t13.5 89t11 88.5t9 94.5q-80 -20 -157 -38t-165 -26l-12 -2q-17 1 -17 10q0 6 5 12.5t12 12t14.5 9.5t13.5 4q86 5 170 21.5t167.5 35.5t167.5 35.5t170 21.5h4zM154 -74q0 5 6 7.5t11 2.5q12 0 12 -7q0 -36 -22.5 -64.5t-48.5 -53.5q-2 -2 -7 -3.5t-10 -1.5
q-7 0 -7 3q0 2 4 5q26 23 43 51t19 61z" />
    <glyph glyph-name="Uacute" unicode="&#xda;" horiz-adv-x="904"
d="M34 794q-10 -4 -15 -4q-8 0 -13 2.5t-5 6.5q0 6 14 13q107 49 181.5 78.5t128.5 29.5q48 0 66.5 -24.5t18.5 -69.5q0 -27 -5.5 -59.5t-13 -68.5t-16 -73.5t-15.5 -74.5q-12 -69 -28 -135.5t-28 -134.5q-2 -14 -6 -32.5t-8 -39.5t-7 -43.5t-3 -43.5q0 -15 2.5 -30.5
t7.5 -28t14 -21t21 -8.5q18 0 41 17.5t47.5 44.5t49 59.5t45.5 63t36 54.5t21 35q72 130 122 271q3 11 6 25t11 25l1 4h1q5 6 12.5 10t18.5 4q12 0 12 -6q0 -1 -0.5 -1.5t-0.5 -1.5h1l-1 -1q-1 -5 -3 -10.5t-3 -10.5v-1q-14 -47 -28.5 -106t-25.5 -123t-18 -129.5t-7 -124.5
q0 -18 -0.5 -39.5t3.5 -39.5t14 -30t31 -12q32 0 85 25.5t125 83.5q4 4 11 6t12 2q8 0 8 -5l-12.5 -11.5t-33 -28t-47.5 -36t-57 -36.5t-61 -28t-58 -11q-42 0 -57 34t-15 107q0 53 6.5 113.5t15.5 114.5q-4 -6 -5 -9q-35 -64 -77 -123t-85.5 -104.5t-85.5 -73t-76 -27.5
q-21 0 -34.5 10.5t-21.5 26.5t-11 35.5t-3 37.5q0 63 16 147.5t37 176.5t41.5 184t29.5 170q1 5 1 10.5v10.5q0 22 -6 36t-16 22t-22 11t-25 3q-18 0 -33.5 -3.5t-22.5 -5.5q-43 -12 -90 -32.5t-110 -48.5zM706 966q4 2 7 2q6 0 9.5 -6t3.5 -14q0 -12 -8 -17
q-19 -11 -34.5 -21.5l-31 -21t-31.5 -20.5t-35 -20q-5 -3 -11 -6t-10 -3t-5 3t-1 6q0 7 17.5 23t41 34t48.5 35t40 26z" />
    <glyph glyph-name="Ubreve" unicode="&#x16c;" horiz-adv-x="911"
d="M34 794q-10 -4 -15 -4q-8 0 -13 2.5t-5 6.5q0 6 14 13q107 49 181.5 78.5t128.5 29.5q48 0 66.5 -24.5t18.5 -69.5q0 -27 -5.5 -59.5t-13 -68.5t-16 -73.5t-15.5 -74.5q-12 -69 -28 -135.5t-28 -134.5q-2 -14 -6 -32.5t-8 -39.5t-7 -43.5t-3 -43.5q0 -15 2.5 -30.5
t7.5 -28t14 -21t21 -8.5q18 0 41 17.5t47.5 44.5t49 59.5t45.5 63t36 54.5t21 35q72 130 122 271q3 11 6 25t11 25l1 4h1q5 6 12.5 10t18.5 4q12 0 12 -6v-3l-9 -29q-14 -47 -28 -105.5t-25 -121.5t-17.5 -127.5t-6.5 -122.5q0 -18 -0.5 -39.5t3.5 -39.5t14 -30t31 -12
q32 0 85 25.5t125 83.5q4 4 11 6t12 2q8 0 8 -5l-12.5 -11.5t-33 -28t-47.5 -36t-57 -36.5t-61 -28t-58 -11q-42 0 -57 34t-15 107q0 53 6.5 113.5t15.5 114.5q-4 -6 -5 -9q-35 -64 -77 -123t-85.5 -104.5t-85.5 -73t-76 -27.5q-21 0 -34.5 10.5t-21.5 26.5t-11 35.5
t-3 37.5q0 63 16 147.5t37 176.5t41.5 184t29.5 170q1 5 1 10.5v10.5q0 22 -6 36t-16 22t-22 11t-25 3q-18 0 -33.5 -3.5t-22.5 -5.5q-43 -12 -90 -32.5t-110 -48.5zM497 897q0 4 4.5 6.5t10 4t10.5 2t6 0.5q6 0 8 -3q5 -12 11.5 -19.5t14.5 -12.5t19 -9t25 -10h1
q4 0 7 -0.5t6 -0.5h5q4 0 7 1h6q5 0 15 2q1 0 2 1q1 0 2 0.5t2 0.5l9 2l1 1l7 2q4 2 8.5 2.5t8.5 4.5l16 8q1 0 6 1.5t16 12.5l4 2l1 1l4 3q10 10 18.5 13.5t18.5 3.5q8 0 8 -3q0 -1 -2 -3q-31 -31 -80 -51.5t-104 -20.5q-32 0 -59.5 12.5t-42.5 44.5v1zM736 897h-1q0 1 1 1
v-1z" />
    <glyph glyph-name="Ucircumflex" unicode="&#xdb;" horiz-adv-x="883"
d="M34 794q-10 -4 -15 -4q-8 0 -13 2.5t-5 6.5q0 6 14 13q107 49 181.5 78.5t128.5 29.5q48 0 66.5 -24.5t18.5 -69.5q0 -27 -5.5 -59.5t-13 -68.5t-16 -73.5t-15.5 -74.5q-12 -69 -28 -135.5t-28 -134.5q-2 -14 -6 -32.5t-8 -39.5t-7 -43.5t-3 -43.5q0 -15 2.5 -30.5
t7.5 -28t14 -21t21 -8.5q18 0 41 17.5t47.5 44.5t49 59.5t45.5 63t36 54.5t21 35q72 130 122 271q3 11 6 25t11 25l1 4h1q5 6 12.5 10t18.5 4q12 0 12 -6q0 -1 -0.5 -1.5t-0.5 -1.5h1l-1 -1q-1 -5 -3.5 -11.5t-2.5 -10.5q-14 -47 -28.5 -106t-25.5 -123t-18 -129.5
t-7 -124.5q0 -18 -0.5 -39.5t3.5 -39.5t14 -30t31 -12q32 0 85 25.5t125 83.5q4 4 11 6t12 2q8 0 8 -5l-12.5 -11.5t-33 -28t-47.5 -36t-57 -36.5t-61 -28t-58 -11q-42 0 -57 34t-15 107q0 53 6.5 113.5t15.5 114.5q-4 -6 -5 -9q-35 -64 -77 -123t-85.5 -104.5t-85.5 -73
t-76 -27.5q-21 0 -34.5 10.5t-21.5 26.5t-11 35.5t-3 37.5q0 63 16 147.5t37 176.5t41.5 184t29.5 170q1 5 1 10.5v10.5q0 22 -6 36t-16 22t-22 11t-25 3q-18 0 -33.5 -3.5t-22.5 -5.5q-43 -12 -90 -32.5t-110 -48.5zM499 859q0 2 1.5 3t6.5 5q18 11 32.5 20t27 17.5
t25.5 16t28 16.5q10 5 21 12t24 7q11 0 21.5 -7t19.5 -14q8 -6 22.5 -18t28.5 -25.5t24.5 -25.5t10.5 -17t-8.5 -8t-17.5 -3q-6 0 -13.5 5t-15 12t-14.5 14.5t-13 12.5l-45 38q-4 2 -6 4l-2 1h-2q-4 0 -18 -6.5t-33 -16.5t-39.5 -22t-37.5 -22l-10 -4t-10 -2q-8 0 -8 7z" />
    <glyph glyph-name="Udieresis" unicode="&#xdc;" horiz-adv-x="900"
d="M34 794q-10 -4 -15 -4q-8 0 -13 2.5t-5 6.5q0 6 14 13q107 49 181.5 78.5t128.5 29.5q48 0 66.5 -24.5t18.5 -69.5q0 -27 -5.5 -59.5t-13 -68.5t-16 -73.5t-15.5 -74.5q-12 -69 -28 -135.5t-28 -134.5q-2 -14 -6 -32.5t-8 -39.5t-7 -43.5t-3 -43.5q0 -15 2.5 -30.5
t7.5 -28t14 -21t21 -8.5q18 0 41 17.5t47.5 44.5t49 59.5t45.5 63t36 54.5t21 35q72 130 122 271q3 11 6 25t11 25l1 4h1q5 6 12.5 10t18.5 4q12 0 12 -6q0 -1 -0.5 -1.5t-0.5 -1.5h1l-1 -1q-1 -5 -3.5 -11.5t-2.5 -10.5q-14 -47 -28.5 -106t-25.5 -123t-18 -129.5
t-7 -124.5q0 -18 -0.5 -39.5t3.5 -39.5t14 -30t31 -12q32 0 85 25.5t125 83.5q4 4 11 6t12 2q8 0 8 -5l-12.5 -11.5t-33 -28t-47.5 -36t-57 -36.5t-61 -28t-58 -11q-42 0 -57 34t-15 107q0 53 6.5 113.5t15.5 114.5q-4 -6 -5 -9q-35 -64 -77 -123t-85.5 -104.5t-85.5 -73
t-76 -27.5q-21 0 -34.5 10.5t-21.5 26.5t-11 35.5t-3 37.5q0 63 16 147.5t37 176.5t41.5 184t29.5 170q1 5 1 10.5v10.5q0 22 -6 36t-16 22t-22 11t-25 3q-18 0 -33.5 -3.5t-22.5 -5.5q-43 -12 -90 -32.5t-110 -48.5zM702 903q5 -2 7.5 -8.5t2.5 -11.5q0 -15 -11 -23.5
t-22 -8.5q-8 0 -10 6.5t-2 15.5q0 11 7.5 21t19.5 10q5 0 8 -1zM597 909q5 -2 7 -8t2 -11q0 -15 -10.5 -23.5t-21.5 -8.5q-6 0 -8.5 3.5t-3 8t-0.5 9v7.5q2 9 9 17t17 8q3 0 9 -2z" />
    <glyph glyph-name="Ugrave" unicode="&#xd9;" horiz-adv-x="893"
d="M34 794q-10 -4 -15 -4q-8 0 -13 2.5t-5 6.5q0 6 14 13q107 49 181.5 78.5t128.5 29.5q48 0 66.5 -24.5t18.5 -69.5q0 -27 -5.5 -59.5t-13 -68.5t-16 -73.5t-15.5 -74.5q-12 -69 -28 -135.5t-28 -134.5q-2 -14 -6 -32.5t-8 -39.5t-7 -43.5t-3 -43.5q0 -15 2.5 -30.5
t7.5 -28t14 -21t21 -8.5q18 0 41 17.5t47.5 44.5t49 59.5t45.5 63t36 54.5t21 35q72 130 122 271q3 11 6 25t11 25l1 4h1q5 6 12.5 10t18.5 4q12 0 12 -6v-3l-9 -29q-14 -47 -28 -105.5t-25 -121.5t-17.5 -127.5t-6.5 -122.5q0 -18 -0.5 -39.5t3.5 -39.5t14 -30t31 -12
q32 0 85 25.5t125 83.5q4 4 11 6t12 2q8 0 8 -5l-12.5 -11.5t-33 -28t-47.5 -36t-57 -36.5t-61 -28t-58 -11q-42 0 -57 34t-15 107q0 53 6.5 113.5t15.5 114.5q-4 -6 -5 -9q-35 -64 -77 -123t-85.5 -104.5t-85.5 -73t-76 -27.5q-21 0 -34.5 10.5t-21.5 26.5t-11 35.5
t-3 37.5q0 63 16 147.5t37 176.5t41.5 184t29.5 170q1 5 1 10.5v10.5q0 22 -6 36t-16 22t-22 11t-25 3q-18 0 -33.5 -3.5t-22.5 -5.5q-43 -12 -90 -32.5t-110 -48.5zM527 927q-4 3 -4 8t6 9.5t14 4.5q4 0 9 -3q12 -11 32 -25.5t39 -29t33 -27t14 -19.5q0 -3 -4 -4.5t-6 -1.5
q-5 0 -10 4q-32 20 -63 40t-60 44z" />
    <glyph glyph-name="Uhungarumlaut" unicode="&#x170;" horiz-adv-x="904"
d="M34 794q-10 -4 -15 -4q-8 0 -13 2.5t-5 6.5q0 6 14 13q107 49 181.5 78.5t128.5 29.5q48 0 66.5 -24.5t18.5 -69.5q0 -27 -5.5 -59.5t-13 -68.5t-16 -73.5t-15.5 -74.5q-12 -69 -28 -135.5t-28 -134.5q-2 -14 -6 -32.5t-8 -39.5t-7 -43.5t-3 -43.5q0 -15 2.5 -30.5
t7.5 -28t14 -21t21 -8.5q18 0 41 17.5t47.5 44.5t49 59.5t45.5 63t36 54.5t21 35q72 130 122 271q3 11 6 25t11 25l1 4h1q5 6 12.5 10t18.5 4q12 0 12 -6v-3l-9 -29q-14 -47 -28 -105.5t-25 -121.5t-17.5 -127.5t-6.5 -122.5q0 -18 -0.5 -39.5t3.5 -39.5t14 -30t31 -12
q32 0 85 25.5t125 83.5q4 4 11 6t12 2q8 0 8 -5l-12.5 -11.5t-33 -28t-47.5 -36t-57 -36.5t-61 -28t-58 -11q-42 0 -57 34t-15 107q0 53 6.5 113.5t15.5 114.5q-4 -6 -5 -9q-35 -64 -77 -123t-85.5 -104.5t-85.5 -73t-76 -27.5q-21 0 -34.5 10.5t-21.5 26.5t-11 35.5
t-3 37.5q0 63 16 147.5t37 176.5t41.5 184t29.5 170q1 5 1 10.5v10.5q0 22 -6 36t-16 22t-22 11t-25 3q-18 0 -33.5 -3.5t-22.5 -5.5q-43 -12 -90 -32.5t-110 -48.5zM750 953q2 2 6 2q5 0 8.5 -5.5t3.5 -11.5t-15 -22t-34 -33t-36.5 -30.5t-21.5 -13.5q-2 0 -3.5 3t-1.5 5
q0 6 11 20t26.5 30.5t31.5 31.5t25 24zM647 964q3 3 6 3q5 0 8.5 -5.5t3.5 -11.5q0 -5 -15 -21.5t-33.5 -34t-36 -31t-22.5 -13.5q-3 0 -4.5 3.5t-1.5 5.5q0 4 5 9q23 25 44 49.5t46 46.5z" />
    <glyph glyph-name="Umacron" unicode="&#x16a;" horiz-adv-x="914"
d="M34 794q-10 -4 -15 -4q-8 0 -13 2.5t-5 6.5q0 6 14 13q107 49 181.5 78.5t128.5 29.5q48 0 66.5 -24.5t18.5 -69.5q0 -27 -5.5 -59.5t-13 -68.5t-16 -73.5t-15.5 -74.5q-12 -69 -28 -135.5t-28 -134.5q-2 -14 -6 -32.5t-8 -39.5t-7 -43.5t-3 -43.5q0 -15 2.5 -30.5
t7.5 -28t14 -21t21 -8.5q18 0 41 17.5t47.5 44.5t49 59.5t45.5 63t36 54.5t21 35q72 130 122 271q3 11 6 25t11 25l1 4h1q5 6 12.5 10t18.5 4q12 0 12 -6q0 -1 -0.5 -1.5t-0.5 -1.5h1l-1 -1q-1 -5 -3.5 -11.5t-2.5 -10.5q-14 -47 -28.5 -106t-25.5 -123t-18 -129.5
t-7 -124.5q0 -18 -0.5 -39.5t3.5 -39.5t14 -30t31 -12q32 0 85 25.5t125 83.5q4 4 11 6t12 2q8 0 8 -5l-12.5 -11.5t-33 -28t-47.5 -36t-57 -36.5t-61 -28t-58 -11q-42 0 -57 34t-15 107q0 53 6.5 113.5t15.5 114.5q-4 -6 -5 -9q-35 -64 -77 -123t-85.5 -104.5t-85.5 -73
t-76 -27.5q-21 0 -34.5 10.5t-21.5 26.5t-11 35.5t-3 37.5q0 63 16 147.5t37 176.5t41.5 184t29.5 170q1 5 1 10.5v10.5q0 22 -6 36t-16 22t-22 11t-25 3q-18 0 -33.5 -3.5t-22.5 -5.5q-43 -12 -90 -32.5t-110 -48.5zM513 839q-35 0 -35 9q0 5 11 10t30 6q64 2 129 7t129 5
q26 0 26 -9q0 -6 -15.5 -10t-40.5 -7t-57 -4.5l-64 -3t-62 -2t-51 -1.5z" />
    <glyph glyph-name="Uogonek" unicode="&#x172;" horiz-adv-x="921"
d="M795 -28q-2 -4 -5 -11t-3 -15q0 -10 13 -10q9 0 24.5 6t38.5 22q12 9 18 9q5 0 5 -3q0 -6 -11.5 -15.5t-27 -18.5t-32.5 -15t-27 -6q-13 0 -23.5 5t-10.5 19q0 17 7 32t18 28q-26 -13 -50.5 -21t-45.5 -8q-42 0 -57 35t-15 109q0 53 6.5 113.5t15.5 114.5q-2 -2 -2.5 -5
t-2.5 -6q-35 -64 -77 -123t-85.5 -104.5t-85.5 -73t-76 -27.5q-21 0 -34.5 10.5t-21.5 26.5t-11 35.5t-3 37.5q0 63 16 147.5t37 176.5t41.5 184t29.5 170q1 5 1 10.5v10.5q0 22 -6 36t-16 22t-22 11t-25 3q-18 0 -33.5 -3.5t-22.5 -5.5q-43 -12 -90 -32.5t-110 -48.5
q-10 -4 -15 -4q-8 0 -13 2.5t-5 6.5q0 6 14 13q107 49 181.5 78.5t128.5 29.5q48 0 66.5 -24.5t18.5 -69.5q0 -27 -5.5 -59.5t-13 -68.5t-16 -73.5t-15.5 -74.5q-12 -69 -28 -135.5t-28 -134.5q-2 -14 -6 -32.5t-8 -39.5t-7 -43.5t-3 -43.5q0 -15 2.5 -30.5t7.5 -28t14 -21
t21 -8.5q18 0 41 17.5t47.5 44.5t49.5 59.5t45.5 63t35.5 54.5t21 35q37 66 68 134t55 140q3 9 5.5 20.5t7.5 21.5t13 16.5t23 6.5q12 0 12 -6v-3l-7 -23q-14 -47 -28.5 -106t-25.5 -123t-18 -129.5t-7 -124.5q0 -18 -0.5 -39.5t3.5 -39.5t14 -30t31 -12q32 0 85 25.5
t125 83.5q4 4 11 6t12 2q8 0 8 -5q0 -6 -16 -17.5t-39 -28.5t-48.5 -39.5t-44.5 -49.5l-7 -12q-1 0 -1 -1t-1 -2z" />
    <glyph glyph-name="Uring" unicode="&#x16e;" horiz-adv-x="905"
d="M34 794q-10 -4 -15 -4q-8 0 -13 2.5t-5 6.5q0 6 14 13q107 49 181.5 78.5t128.5 29.5q48 0 66.5 -24.5t18.5 -69.5q0 -27 -5.5 -59.5t-13 -68.5t-16 -73.5t-15.5 -74.5q-12 -69 -28 -135.5t-28 -134.5q-2 -14 -6 -32.5t-8 -39.5t-7 -43.5t-3 -43.5q0 -15 2.5 -30.5
t7.5 -28t14 -21t21 -8.5q18 0 41 17.5t47.5 44.5t49 59.5t45.5 63t36 54.5t21 35q72 130 122 271q3 11 6 25t11 25l1 4h1q5 6 12.5 10t18.5 4q12 0 12 -6v-3l-9 -29q-14 -47 -28 -105.5t-25 -121.5t-17.5 -127.5t-6.5 -122.5q0 -18 -0.5 -39.5t3.5 -39.5t14 -30t31 -12
q32 0 85 25.5t125 83.5q4 4 11 6t12 2q8 0 8 -5l-12.5 -11.5t-33 -28t-47.5 -36t-57 -36.5t-61 -28t-58 -11q-42 0 -57 34t-15 107q0 53 6.5 113.5t15.5 114.5q-4 -6 -5 -9q-35 -64 -77 -123t-85.5 -104.5t-85.5 -73t-76 -27.5q-21 0 -34.5 10.5t-21.5 26.5t-11 35.5
t-3 37.5q0 63 16 147.5t37 176.5t41.5 184t29.5 170q1 5 1 10.5v10.5q0 22 -6 36t-16 22t-22 11t-25 3q-18 0 -33.5 -3.5t-22.5 -5.5q-43 -12 -90 -32.5t-110 -48.5zM613 941q14 -5 25.5 -16.5t11.5 -27.5q0 -26 -21 -42t-45 -16q-18 0 -33 12.5t-15 35.5q0 20 17.5 38
t43.5 18q6 0 16 -2zM617 877q1 3 1 9q0 10 -6 22t-16 17l-7 3q-10 0 -15.5 -9.5t-5.5 -24.5q0 -11 6.5 -25.5t19.5 -14.5l2.5 -0.5t6 1.5t7.5 6.5t7 15.5z" />
    <glyph glyph-name="Utilde" unicode="&#x168;" horiz-adv-x="908"
d="M34 794q-10 -4 -15 -4q-8 0 -13 2.5t-5 6.5q0 6 14 13q107 49 181.5 78.5t128.5 29.5q48 0 66.5 -24.5t18.5 -69.5q0 -27 -5.5 -59.5t-13 -68.5t-16 -73.5t-15.5 -74.5q-12 -69 -28 -135.5t-28 -134.5q-2 -14 -6 -32.5t-8 -39.5t-7 -43.5t-3 -43.5q0 -15 2.5 -30.5
t7.5 -28t14 -21t21 -8.5q18 0 41 17.5t47.5 44.5t49 59.5t45.5 63t36 54.5t21 35q72 130 122 271q3 11 6 25t11 25l1 4h1q5 6 12.5 10t18.5 4q12 0 12 -6q0 -1 -0.5 -1.5t-0.5 -1.5h1l-1 -1q-1 -5 -3.5 -11.5t-2.5 -10.5q-14 -47 -28.5 -106t-25.5 -123t-18 -129.5
t-7 -124.5q0 -18 -0.5 -39.5t3.5 -39.5t14 -30t31 -12q32 0 85 25.5t125 83.5q4 4 11 6t12 2q8 0 8 -5l-12.5 -11.5t-33 -28t-47.5 -36t-57 -36.5t-61 -28t-58 -11q-42 0 -57 34t-15 107q0 53 6.5 113.5t15.5 114.5q-4 -6 -5 -9q-35 -64 -77 -123t-85.5 -104.5t-85.5 -73
t-76 -27.5q-21 0 -34.5 10.5t-21.5 26.5t-11 35.5t-3 37.5q0 63 16 147.5t37 176.5t41.5 184t29.5 170q1 5 1 10.5v10.5q0 22 -6 36t-16 22t-22 11t-25 3q-18 0 -33.5 -3.5t-22.5 -5.5q-43 -12 -90 -32.5t-110 -48.5zM707 849q9 0 16.5 5t14.5 11.5t13.5 11.5t13.5 5
q4 0 8.5 -1t4.5 -6q0 -10 -8 -19t-20 -15.5t-25.5 -10.5t-23.5 -4q-15 0 -28.5 4t-26 10l-25 12t-25.5 10l-12 3h-1q-1 0 -1.5 0.5t-1.5 0.5h-3q-3 1 -9 1q-16 0 -26.5 -4.5t-17.5 -9.5t-11 -9.5t-6 -4.5q-5 0 -5 7q0 10 8 18t19.5 13.5t24 8.5t21.5 3q15 0 29.5 -4.5
t28.5 -10.5l28 -12t28 -9q4 -2 6 -2h2l1 -1q2 -1 9 -1zM583 865h-2q-1 0 -1 1q0 -1 1 -1h2z" />
    <glyph glyph-name="Wacute" unicode="&#x1e82;" horiz-adv-x="1094"
d="M51 644q-6 -6 -20.5 -8.5t-23.5 -2.5q-6 0 -6 1q28 33 64 61t75.5 48t80.5 31.5t79 11.5q42 0 69 -20.5t27 -75.5q0 -22 -2.5 -43.5t-4.5 -36.5q-7 -64 -19 -128t-23 -128t-19.5 -128.5t-8.5 -129.5q0 -26 7 -48.5t16 -22.5q12 0 28 12.5t33 31.5t33 41t29 41
q54 80 103.5 164.5t99.5 167.5q3 4 18.5 9t25.5 5q6 0 6 -3q-4 -37 -6 -73.5t-2 -73.5q0 -43 3 -85q1 -23 4.5 -61t14.5 -74.5t34.5 -63t65.5 -26.5q11 0 22.5 2.5t22.5 9.5q39 23 68 66.5t49.5 96t34 108.5t21.5 106q6 35 10.5 73t7.5 76t5 75t2 69q0 47 -4.5 80.5
t-14.5 44.5q-1 1 -1 3q0 7 11 14t19 9q14 0 21.5 -44.5t7.5 -120.5q0 -41 -2.5 -87.5t-8.5 -96t-15 -99t-21 -96.5t-32 -102.5t-51.5 -104.5t-75.5 -81.5t-105 -32.5q-45 0 -73 27.5t-44 71t-22 98t-6 107.5q0 48 3 90q-38 -63 -77 -124t-81 -121q-17 -24 -36 -50.5
t-41 -49.5t-47 -38t-53 -15q-32 0 -45 24.5t-13 82.5q0 54 7.5 108.5t17.5 108.5t21 108t18 107q4 29 8.5 61t4.5 64q0 51 -16 76t-51 25q-29 0 -63 -13.5t-66.5 -33t-59 -40t-38.5 -35.5zM826 966q4 2 7 2q6 0 9.5 -6t3.5 -14q0 -12 -8 -17q-19 -11 -34.5 -21.5l-31 -21
t-31.5 -20.5t-35 -20q-5 -3 -11 -6t-10 -3t-5 3t-1 6q0 7 17.5 23t41 34t48.5 35t40 26z" />
    <glyph glyph-name="Wcircumflex" unicode="&#x174;" horiz-adv-x="1078"
d="M51 644q-6 -6 -20.5 -8.5t-23.5 -2.5q-6 0 -6 1q28 33 64 61t75.5 48t80.5 31.5t79 11.5q42 0 69 -20.5t27 -75.5q0 -22 -2.5 -43.5t-4.5 -36.5q-7 -64 -19 -128t-23 -128t-19.5 -128.5t-8.5 -129.5q0 -26 7 -48.5t16 -22.5q12 0 28 12.5t33 31.5t33 41t29 41
q54 80 103.5 164.5t99.5 167.5q3 4 18.5 9t25.5 5q6 0 6 -3q-4 -37 -6 -73.5t-2 -73.5q0 -43 3 -85q1 -23 4.5 -61t14.5 -74.5t34.5 -63t65.5 -26.5q11 0 22.5 2.5t22.5 9.5q39 23 68 66.5t49.5 96t34 108.5t21.5 106q6 35 10.5 73t7.5 76t5 75t2 69q0 47 -4.5 80.5
t-14.5 44.5q-1 1 -1 3q0 7 11 14t19 9q14 0 21.5 -44.5t7.5 -120.5q0 -41 -2.5 -87.5t-8.5 -96t-15 -99t-21 -96.5t-32 -102.5t-51.5 -104.5t-75.5 -81.5t-105 -32.5q-45 0 -73 27.5t-44 71t-22 98t-6 107.5q0 48 3 90q-38 -63 -77 -124t-81 -121q-17 -24 -36 -50.5
t-41 -49.5t-47 -38t-53 -15q-32 0 -45 24.5t-13 82.5q0 54 7.5 108.5t17.5 108.5t21 108t18 107q4 29 8.5 61t4.5 64q0 51 -16 76t-51 25q-29 0 -63 -13.5t-66.5 -33t-59 -40t-38.5 -35.5zM526 847q0 2 1.5 3t6.5 6q17 13 30.5 23t25.5 19l24 18t27 19q10 7 21.5 14.5
t23.5 7.5q11 0 21 -5.5t20 -11.5q9 -6 24.5 -17t30.5 -23.5t26.5 -23.5t11.5 -15q0 -6 -10.5 -9.5t-18.5 -3.5q-6 0 -8 2q-23 20 -47.5 38t-48.5 33l-8 5h-1q-4 0 -17.5 -7.5t-31.5 -19t-38 -25t-36 -25.5q-11 -8 -22 -8q-7 0 -7 6z" />
    <glyph glyph-name="Wdieresis" unicode="&#x1e84;" horiz-adv-x="1078"
d="M51 644q-6 -6 -20.5 -8.5t-23.5 -2.5q-6 0 -6 1q28 33 64 61t75.5 48t80.5 31.5t79 11.5q42 0 69 -20.5t27 -75.5q0 -22 -2.5 -43.5t-4.5 -36.5q-7 -64 -19 -128t-23 -128t-19.5 -128.5t-8.5 -129.5q0 -26 7 -48.5t16 -22.5q12 0 28 12.5t33 31.5t33 41t29 41
q54 80 103.5 164.5t99.5 167.5q3 4 18.5 9t25.5 5q6 0 6 -3v-3q-4 -36 -6 -72.5t-2 -72.5q0 -42 3 -84q1 -23 4.5 -61t14.5 -74.5t34.5 -63t65.5 -26.5q11 0 22.5 2.5t22.5 9.5q39 23 68 66.5t49.5 96t34 108.5t21.5 106q6 35 10.5 73t7.5 76t5 75t2 69q0 47 -4.5 80.5
t-14.5 44.5q-1 1 -1 3q0 7 11 14t19 9q14 0 21.5 -44.5t7.5 -120.5q0 -41 -2.5 -87.5t-8.5 -96t-15 -99t-21 -96.5t-32 -102.5t-51.5 -104.5t-75.5 -81.5t-105 -32.5q-45 0 -73 27.5t-44 71t-22 98t-6 107.5q0 48 3 90q-38 -63 -77 -124t-81 -121q-17 -24 -36 -50.5
t-41 -49.5t-47 -38t-53 -15q-32 0 -45 24.5t-13 82.5q0 54 7.5 108.5t17.5 108.5t21 108t18 107q4 29 8.5 61t4.5 64q0 51 -16 76t-51 25q-29 0 -63 -13.5t-66.5 -33t-59 -40t-38.5 -35.5zM773 915q6 -2 9.5 -10t3.5 -14q0 -15 -12 -25t-24 -10q-8 0 -10.5 12t-2.5 17
q2 11 9.5 21t18.5 10q5 0 8 -1zM655 911q6 -2 9.5 -10t3.5 -14q0 -15 -12 -25t-24 -10q-8 0 -10.5 12t-2.5 17q2 11 9.5 21t19.5 10q2 0 3.5 -0.5t3.5 -0.5z" />
    <glyph glyph-name="Wgrave" unicode="&#x1e80;" horiz-adv-x="1078"
d="M51 644q-6 -6 -20.5 -8.5t-23.5 -2.5q-6 0 -6 1q28 33 64 61t75.5 48t80.5 31.5t79 11.5q42 0 69 -20.5t27 -75.5q0 -22 -2.5 -43.5t-4.5 -36.5q-7 -64 -19 -128t-23 -128t-19.5 -128.5t-8.5 -129.5q0 -26 7 -48.5t16 -22.5q12 0 28 12.5t33 31.5t33 41t29 41
q54 80 103.5 164.5t99.5 167.5q3 4 18.5 9t25.5 5q6 0 6 -3v-3q-4 -36 -6 -72.5t-2 -72.5q0 -42 3 -84q1 -23 4.5 -61t14.5 -74.5t34.5 -63t65.5 -26.5q11 0 22.5 2.5t22.5 9.5q39 23 68 66.5t49.5 96t34 108.5t21.5 106q6 35 10.5 73t7.5 76t5 75t2 69q0 47 -4.5 80.5
t-14.5 44.5q-1 1 -1 3q0 7 11 14t19 9q14 0 21.5 -44.5t7.5 -120.5q0 -41 -2.5 -87.5t-8.5 -96t-15 -99t-21 -96.5t-32 -102.5t-51.5 -104.5t-75.5 -81.5t-105 -32.5q-45 0 -73 27.5t-44 71t-22 98t-6 107.5q0 48 3 90q-38 -63 -77 -124t-81 -121q-17 -24 -36 -50.5
t-41 -49.5t-47 -38t-53 -15q-32 0 -45 24.5t-13 82.5q0 54 7.5 108.5t17.5 108.5t21 108t18 107q4 29 8.5 61t4.5 64q0 51 -16 76t-51 25q-29 0 -63 -13.5t-66.5 -33t-59 -40t-38.5 -35.5zM607 927q-4 3 -4 8t6 9.5t14 4.5q4 0 9 -3q12 -11 32 -25.5t39 -29t33 -27t14 -19.5
q0 -3 -4 -4.5t-6 -1.5q-5 0 -10 4q-32 20 -63 40t-60 44z" />
    <glyph glyph-name="Yacute" unicode="&#xdd;" horiz-adv-x="890"
d="M45 768q-4 -3 -13 -5t-17 -2q-14 0 -14 5q0 2 5 7q62 52 136 86t155 34q36 0 59 -7t36.5 -21t19 -36t5.5 -53q0 -41 -7 -81t-11 -64q-11 -71 -24 -141t-13 -141q0 -48 20 -69.5t49 -21.5q29 1 60.5 15.5t52.5 29.5q46 34 85 75t72.5 87t61 96t51.5 101q2 6 14.5 10.5
t22.5 4.5q11 0 11 -5v-2q-22 -66 -37.5 -132.5t-29.5 -134t-28 -134t-33 -132.5q49 20 97 39.5t93 43.5q4 2 10 3t12 1q7 0 12 -1.5t5 -3.5q0 -5 -10 -9q-54 -29 -111.5 -52t-114.5 -46q-14 -47 -32.5 -92t-42.5 -90q-21 -39 -49 -83t-62.5 -81t-75.5 -61t-89 -24
q-35 0 -61.5 20.5t-26.5 68.5q0 25 9.5 49.5t23.5 47.5t31.5 43t34.5 36q63 60 139.5 99.5t157.5 72.5l4 11q28 91 44.5 183t36.5 185q-27 -43 -59 -81.5t-69 -70.5q-17 -15 -44 -35.5t-58 -39t-64.5 -31.5t-64.5 -13q-29 0 -48.5 11.5t-31.5 31t-17 44.5t-5 53q0 33 5 67.5
t11.5 67.5t13.5 62t10 50q5 35 12 71.5t7 73.5q0 65 -24 91t-64 26q-30 0 -64 -11.5t-66.5 -28.5t-60 -35.5t-43.5 -31.5zM433 -281q48 27 85.5 69.5t66.5 92.5t51.5 105t39.5 106q-46 -19 -89.5 -40t-84.5 -47q-23 -15 -52 -38.5t-54.5 -53t-42.5 -62t-17 -64.5t17 -55
t45 -23q18 0 35 10zM746 966q4 2 7 2q6 0 9.5 -6t3.5 -14q0 -12 -8 -17q-19 -11 -34.5 -21.5l-31 -21t-31.5 -20.5t-35 -20q-5 -3 -11 -6t-10 -3t-5 3t-1 6q0 7 17.5 23t41 34t48.5 35t40 26z" />
    <glyph glyph-name="Ycircumflex" unicode="&#x176;" horiz-adv-x="886"
d="M45 768q-4 -3 -13 -5t-17 -2q-14 0 -14 5q0 2 5 7q62 52 136 86t155 34q36 0 59 -7t36.5 -21t19 -36t5.5 -53q0 -41 -7 -81t-11 -64q-11 -71 -24 -141t-13 -141q0 -48 20 -69.5t49 -21.5q29 1 60.5 15.5t52.5 29.5q46 34 85 75t72.5 87t61 96t51.5 101q2 6 14.5 10.5
t22.5 4.5q11 0 11 -5v-2q-22 -66 -37.5 -132.5t-29.5 -134t-28 -134t-33 -132.5q49 20 97 39.5t93 43.5q4 2 10 3t12 1q7 0 12 -1.5t5 -3.5q0 -5 -10 -9q-54 -29 -111.5 -52t-114.5 -46q-14 -47 -32.5 -92t-42.5 -90q-21 -39 -49 -83t-62.5 -81t-75.5 -61t-89 -24
q-35 0 -61.5 20.5t-26.5 68.5q0 25 9.5 49.5t23.5 47.5t31.5 43t34.5 36q63 60 139.5 99.5t157.5 72.5l4 11q28 91 44.5 183t36.5 185q-27 -43 -59 -81.5t-69 -70.5q-17 -15 -44 -35.5t-58 -39t-64.5 -31.5t-64.5 -13q-29 0 -48.5 11.5t-31.5 31t-17 44.5t-5 53q0 33 5 67.5
t11.5 67.5t13.5 62t10 50q5 35 12 71.5t7 73.5q0 65 -24 91t-64 26q-30 0 -64 -11.5t-66.5 -28.5t-60 -35.5t-43.5 -31.5zM433 -281q48 27 85.5 69.5t66.5 92.5t51.5 105t39.5 106q-46 -19 -89.5 -40t-84.5 -47q-23 -15 -52 -38.5t-54.5 -53t-42.5 -62t-17 -64.5t17 -55
t45 -23q18 0 35 10zM526 847q0 2 1.5 3t6.5 6q17 13 30.5 23t25.5 19l24 18t27 19q10 7 21.5 14.5t23.5 7.5q11 0 21 -5.5t20 -11.5q9 -6 24.5 -17t30.5 -23.5t26.5 -23.5t11.5 -15q0 -6 -10.5 -9.5t-18.5 -3.5q-6 0 -8 2q-23 20 -47.5 38t-48.5 33l-8 5h-1q-4 0 -17.5 -7.5
t-31.5 -19t-38 -25t-36 -25.5q-11 -8 -22 -8q-7 0 -7 6z" />
    <glyph glyph-name="Ydieresis" unicode="&#x178;" horiz-adv-x="884"
d="M45 768q-4 -3 -13 -5t-17 -2q-14 0 -14 5q0 2 5 7q62 52 136 86t155 34q36 0 59 -7t36.5 -21t19 -36t5.5 -53q0 -41 -7 -81t-11 -64q-11 -71 -24 -141t-13 -141q0 -48 20 -69.5t49 -21.5q29 1 60.5 15.5t52.5 29.5q46 34 85 75t72.5 87t61 96t51.5 101q2 6 14.5 10.5
t22.5 4.5q11 0 11 -5v-2q-22 -66 -37.5 -132.5t-29.5 -134t-28 -134t-33 -132.5q49 20 97 39.5t93 43.5q4 2 10 3t12 1q7 0 12 -1.5t5 -3.5q0 -5 -10 -9q-54 -29 -111.5 -52t-114.5 -46q-14 -47 -32.5 -92t-42.5 -90q-21 -39 -49 -83t-62.5 -81t-75.5 -61t-89 -24
q-35 0 -61.5 20.5t-26.5 68.5q0 25 9.5 49.5t23.5 47.5t31.5 43t34.5 36q63 60 139.5 99.5t157.5 72.5l4 11q28 91 44.5 183t36.5 185q-27 -43 -59 -81.5t-69 -70.5q-17 -15 -44 -35.5t-58 -39t-64.5 -31.5t-64.5 -13q-29 0 -48.5 11.5t-31.5 31t-17 44.5t-5 53q0 33 5 67.5
t11.5 67.5t13.5 62t10 50q5 35 12 71.5t7 73.5q0 65 -24 91t-64 26q-30 0 -64 -11.5t-66.5 -28.5t-60 -35.5t-43.5 -31.5zM433 -281q48 27 85.5 69.5t66.5 92.5t51.5 105t39.5 106q-46 -19 -89.5 -40t-84.5 -47q-23 -15 -52 -38.5t-54.5 -53t-42.5 -62t-17 -64.5t17 -55
t45 -23q18 0 35 10zM711 915q6 -2 9.5 -10t3.5 -14q0 -15 -12 -25t-24 -10q-8 0 -10.5 12t-2.5 17q2 11 9.5 21t18.5 10q5 0 8 -1zM593 911q6 -2 9.5 -10t3.5 -14q0 -15 -12 -25t-24 -10q-8 0 -10.5 12t-2.5 17q2 11 9.5 21t19.5 10q2 0 3.5 -0.5t3.5 -0.5z" />
    <glyph glyph-name="Ygrave" unicode="&#x1ef2;" horiz-adv-x="884"
d="M45 768q-4 -3 -13 -5t-17 -2q-14 0 -14 5q0 2 5 7q62 52 136 86t155 34q36 0 59 -7t36.5 -21t19 -36t5.5 -53q0 -41 -7 -81t-11 -64q-11 -71 -24 -141t-13 -141q0 -48 20 -69.5t49 -21.5q29 1 60.5 15.5t52.5 29.5q46 34 85 75t72.5 87t61 96t51.5 101q2 6 14.5 10.5
t22.5 4.5q11 0 11 -5v-2q-22 -66 -37.5 -132.5t-29.5 -134t-28 -134t-33 -132.5q49 20 97 39.5t93 43.5q4 2 10 3t12 1q7 0 12 -1.5t5 -3.5q0 -5 -10 -9q-54 -29 -111.5 -52t-114.5 -46q-14 -47 -32.5 -92t-42.5 -90q-21 -39 -49 -83t-62.5 -81t-75.5 -61t-89 -24
q-35 0 -61.5 20.5t-26.5 68.5q0 25 9.5 49.5t23.5 47.5t31.5 43t34.5 36q63 60 139.5 99.5t157.5 72.5l4 11q28 91 44.5 183t36.5 185q-27 -43 -59 -81.5t-69 -70.5q-17 -15 -44 -35.5t-58 -39t-64.5 -31.5t-64.5 -13q-29 0 -48.5 11.5t-31.5 31t-17 44.5t-5 53q0 33 5 67.5
t11.5 67.5t13.5 62t10 50q5 35 12 71.5t7 73.5q0 65 -24 91t-64 26q-30 0 -64 -11.5t-66.5 -28.5t-60 -35.5t-43.5 -31.5zM433 -281q48 27 85.5 69.5t66.5 92.5t51.5 105t39.5 106q-46 -19 -89.5 -40t-84.5 -47q-23 -15 -52 -38.5t-54.5 -53t-42.5 -62t-17 -64.5t17 -55
t45 -23q18 0 35 10zM523 927q-4 3 -4 8t6 9.5t14 4.5q4 0 9 -3q12 -11 32 -25.5t39 -29t33 -27t14 -19.5q0 -3 -4 -4.5t-6 -1.5q-5 0 -10 4q-32 20 -63 40t-60 44z" />
    <glyph glyph-name="Zacute" unicode="&#x179;" horiz-adv-x="576"
d="M51 684q-2 -2 -8 -2q-8 0 -17.5 3.5t-9.5 8.5q0 8 13 15q68 37 142 63.5t149 43.5q33 8 69.5 15.5t72.5 7.5q8 0 19 -0.5t21.5 -2.5t18 -5.5t7.5 -9.5v-2q-11 -37 -31 -72t-40 -67q-46 -77 -95 -152.5t-98.5 -151.5t-96.5 -153t-88 -158q64 38 136 70t144 57.5t140.5 44
t125.5 30.5q18 3 27 3q13 0 13 -5t-11 -12t-24 -10q-153 -36 -304.5 -92.5t-281.5 -147.5q-9 -7 -26 -7q-7 0 -12 2.5t-5 7.5q0 1 2 7q49 105 109.5 203t123 195t124 194t112.5 200q-4 0 -7.5 0.5t-7.5 0.5q-48 0 -101 -10t-106 -27t-104 -39t-95 -46zM358 970q4 2 7 2
q6 0 9.5 -6t3.5 -14q0 -12 -8 -17q-19 -11 -34.5 -21.5l-31 -21t-31.5 -20.5t-35 -20q-5 -3 -11 -6t-10 -3t-5 3t-1 6q0 7 17.5 23t41 34t48.5 35t40 26z" />
    <glyph glyph-name="Zcaron" unicode="&#x17d;" horiz-adv-x="570"
d="M51 684q-2 -2 -8 -2q-8 0 -17.5 3.5t-9.5 8.5q0 8 13 15q68 37 142 63.5t149 43.5q33 8 69.5 15.5t72.5 7.5q8 0 19 -0.5t21.5 -2.5t18 -5.5t7.5 -9.5v-2q-11 -37 -31 -72t-40 -67q-46 -77 -95 -152.5t-98.5 -151.5t-96.5 -153t-88 -158q64 38 136 70t144 57.5t140.5 44
t125.5 30.5q18 3 27 3q13 0 13 -5t-11 -12t-24 -10q-153 -36 -304.5 -92.5t-281.5 -147.5q-9 -7 -26 -7q-7 0 -12 2.5t-5 7.5q0 1 2 7q49 105 109.5 203t123 195t124 194t112.5 200q-4 0 -7.5 0.5t-7.5 0.5q-48 0 -101 -10t-106 -27t-104 -39t-95 -46zM392 948
q0 -5 -13 -14.5t-29.5 -20t-32.5 -19.5t-22 -13q-8 -5 -17 -11.5t-19 -6.5t-19 4.5t-17 9.5q-7 4 -20 12.5t-26 18t-22.5 18t-9.5 12.5q0 5 9 7.5t16 2.5q4 0 13.5 -6t20.5 -14t22 -16.5t18 -12.5l13 -8q1 -1 2 -1t3 -1l2 -1h1q3 0 14.5 5.5t26.5 14.5t31.5 19.5t30.5 19.5
q8 5 18 5q6 0 6 -4z" />
    <glyph glyph-name="Zdotaccent" unicode="&#x17b;" horiz-adv-x="573"
d="M51 684q-2 -2 -8 -2q-8 0 -17.5 3.5t-9.5 8.5q0 8 13 15q68 37 142 63.5t149 43.5q33 8 69.5 15.5t72.5 7.5q8 0 19 -0.5t21.5 -2.5t18 -5.5t7.5 -9.5v-2q-11 -37 -31 -72t-40 -67q-46 -77 -95 -152.5t-98.5 -151.5t-96.5 -153t-88 -158q64 38 136 70t144 57.5t140.5 44
t125.5 30.5q18 3 27 3q13 0 13 -5t-11 -12t-24 -10q-153 -36 -304.5 -92.5t-281.5 -147.5q-9 -7 -26 -7q-7 0 -12 2.5t-5 7.5q0 1 2 7q49 105 109.5 203t123 195t124 194t112.5 200q-4 0 -7.5 0.5t-7.5 0.5q-48 0 -101 -10t-106 -27t-104 -39t-95 -46zM261 926
q8 -2 12.5 -11.5t4.5 -16.5q0 -17 -14 -31t-31 -14q-9 0 -12 12t-3 20q0 14 11 28t26 14q2 0 3 -0.5t3 -0.5z" />
    <glyph glyph-name="aacute" unicode="&#xe1;" horiz-adv-x="529"
d="M555 134q5 5 12.5 7t14.5 2q11 0 11 -6q0 -4 -6 -10q-20 -19 -52 -44.5t-68.5 -48t-73.5 -38.5t-68 -16q-27 0 -43 11.5t-25 30.5t-12 43t-3 48q-8 -6 -29.5 -24t-50 -37t-59 -34t-54.5 -15q-20 0 -34 14t-14 41q0 35 24.5 77t61 79t78 61.5t76.5 24.5q33 0 51 -24
q3 8 11.5 21t25.5 13q12 0 17 -6q-2 -10 -11 -32t-19 -50t-18 -58t-8 -55q0 -54 17.5 -75.5t44.5 -21.5q24 0 52.5 13.5t56.5 32.5t53 40t41 36zM151 85q12 9 30.5 25t35.5 37t31 44.5t17 47.5q-13 32 -41 32q-26 0 -55.5 -23.5t-54 -56t-41 -67t-16.5 -55.5t18 -21
q11 0 29.5 8.5t46.5 28.5zM316 467q4 2 5 2q7 1 10.5 -4.5t4.5 -12.5q2 -12 -9 -17q-20 -11 -36.5 -20.5t-32.5 -19.5t-33 -19.5t-38 -18.5q-6 -2 -11.5 -5t-10.5 -3q-7 0 -7 8q0 7 18.5 22t44 31.5t52.5 32.5t43 24z" />
    <glyph glyph-name="acircumflex" unicode="&#xe2;" horiz-adv-x="534"
d="M555 134q5 5 12.5 7t14.5 2q11 0 11 -6q0 -4 -6 -10q-20 -19 -52 -44.5t-68.5 -48t-73.5 -38.5t-68 -16q-27 0 -43 11.5t-25 30.5t-12 43t-3 48q-8 -6 -29.5 -24t-50 -37t-59 -34t-54.5 -15q-20 0 -34 14t-14 41q0 35 24.5 77t61 79t78 61.5t76.5 24.5q33 0 51 -24
q3 8 11.5 21t25.5 13q12 0 17 -6q-2 -10 -11 -32t-19 -50t-18 -58t-8 -55q0 -54 17.5 -75.5t44.5 -21.5q24 0 52.5 13.5t56.5 32.5t53 40t41 36zM151 85q12 9 30.5 25t35.5 37t31 44.5t17 47.5q-13 32 -41 32q-26 0 -55.5 -23.5t-54 -56t-41 -67t-16.5 -55.5t18 -21
q11 0 29.5 8.5t46.5 28.5zM126 370q0 2 7 7q16 12 28.5 22t23.5 18.5t22.5 16.5t25.5 17q10 6 19.5 13.5t22.5 7.5q10 0 19.5 -5.5t18.5 -10.5q7 -5 21.5 -15.5t29 -22t25 -21.5t10.5 -15t-10 -8t-18 -3q-5 0 -15.5 7t-22.5 16.5t-24 19.5t-19 15l-20 13q-2 0 -2 0.5t-1 0.5
q-4 0 -16.5 -7t-29.5 -17.5t-35.5 -23.5t-33.5 -24q-4 -3 -9 -5.5t-10 -2.5q-7 0 -7 7z" />
    <glyph glyph-name="abreve" unicode="&#x103;" horiz-adv-x="529"
d="M555 134q5 5 12.5 7t14.5 2q11 0 11 -6q0 -4 -6 -10q-20 -19 -52 -44.5t-68.5 -48t-73.5 -38.5t-68 -16q-27 0 -43 11.5t-25 30.5t-12 43t-3 48q-8 -6 -29.5 -24t-50 -37t-59 -34t-54.5 -15q-20 0 -34 14t-14 41q0 35 24.5 77t61 79t78 61.5t76.5 24.5q33 0 51 -24
q3 8 11.5 21t25.5 13q12 0 17 -6q-2 -10 -11 -32t-19 -50t-18 -58t-8 -55q0 -54 17.5 -75.5t44.5 -21.5q24 0 52.5 13.5t56.5 32.5t53 40t41 36zM151 85q12 9 30.5 25t35.5 37t31 44.5t17 47.5q-13 32 -41 32q-26 0 -55.5 -23.5t-54 -56t-41 -67t-16.5 -55.5t18 -21
q11 0 29.5 8.5t46.5 28.5zM305 405h1l-2 -1l2 1l3 2l16 7h-1q0 1 2.5 2t3.5 2l5 3q7 3 13 9l5 4q11 8 16.5 11t16.5 5q2 0 6.5 -1t4.5 -3q0 -1 -2 -3q-31 -28 -77 -48t-99 -20q-30 0 -56 12t-40 43v1q0 3 4 5.5t9 4t9.5 2t5.5 0.5q6 0 8 -3q19 -43 66 -49l-1 1q2 0 3 -1h23
q5 0 7 1l14 2h-1h1q1 0 2 1h1h2l9 2l1 1z" />
    <glyph glyph-name="adieresis" unicode="&#xe4;" horiz-adv-x="509"
d="M555 134q5 5 12.5 7t14.5 2q11 0 11 -6q0 -4 -6 -10q-20 -19 -52 -44.5t-68.5 -48t-73.5 -38.5t-68 -16q-27 0 -43 11.5t-25 30.5t-12 43t-3 48q-8 -6 -29.5 -24t-50 -37t-59 -34t-54.5 -15q-20 0 -34 14t-14 41q0 35 24.5 77t61 79t78 61.5t76.5 24.5q33 0 51 -24
q3 8 11.5 21t25.5 13q12 0 17 -6q-2 -10 -11 -32t-19 -50t-18 -58t-8 -55q0 -54 17.5 -75.5t44.5 -21.5q24 0 52.5 13.5t56.5 32.5t53 40t41 36zM151 85q12 9 30.5 25t35.5 37t31 44.5t17 47.5q-13 32 -41 32q-26 0 -55.5 -23.5t-54 -56t-41 -67t-16.5 -55.5t18 -21
q11 0 29.5 8.5t46.5 28.5zM243 421q6 -2 9.5 -10t3.5 -14q0 -14 -11.5 -25t-24.5 -11q-5 0 -7.5 4t-3.5 9t-1.5 10t-0.5 7q2 11 9.5 21t19.5 10q2 0 3.5 -0.5t3.5 -0.5zM361 425q6 -2 9.5 -10t3.5 -14q0 -14 -11.5 -25t-24.5 -11q-5 0 -7.5 4t-3.5 9t-1.5 10t-0.5 7
q2 11 9.5 21t19.5 10q2 0 3.5 -0.5t3.5 -0.5z" />
    <glyph glyph-name="agrave" unicode="&#xe0;" horiz-adv-x="523"
d="M555 134q5 5 12.5 7t14.5 2q11 0 11 -6q0 -4 -6 -10q-20 -19 -52 -44.5t-68.5 -48t-73.5 -38.5t-68 -16q-27 0 -43 11.5t-25 30.5t-12 43t-3 48q-8 -6 -29.5 -24t-50 -37t-59 -34t-54.5 -15q-20 0 -34 14t-14 41q0 35 24.5 77t61 79t78 61.5t76.5 24.5q33 0 51 -24
q3 8 11.5 21t25.5 13q12 0 17 -6q-2 -10 -11 -32t-19 -50t-18 -58t-8 -55q0 -54 17.5 -75.5t44.5 -21.5q24 0 52.5 13.5t56.5 32.5t53 40t41 36zM151 85q12 9 30.5 25t35.5 37t31 44.5t17 47.5q-13 32 -41 32q-26 0 -55.5 -23.5t-54 -56t-41 -67t-16.5 -55.5t18 -21
q11 0 29.5 8.5t46.5 28.5zM162 428q-5 4 -5 8q0 6 9.5 10.5t20.5 4.5q10 0 18 -5q48 -37 82 -58.5t34 -32.5q0 -4 -5.5 -5.5t-8.5 -1.5q-8 0 -49.5 19t-95.5 61z" />
    <glyph glyph-name="amacron" unicode="&#x101;" horiz-adv-x="534"
d="M555 134q5 5 12.5 7t14.5 2q11 0 11 -6q0 -4 -6 -10q-20 -19 -52 -44.5t-68.5 -48t-73.5 -38.5t-68 -16q-27 0 -43 11.5t-25 30.5t-12 43t-3 48q-8 -6 -29.5 -24t-50 -37t-59 -34t-54.5 -15q-20 0 -34 14t-14 41q0 35 24.5 77t61 79t78 61.5t76.5 24.5q33 0 51 -24
q3 8 11.5 21t25.5 13q12 0 17 -6q-2 -10 -11 -32t-19 -50t-18 -58t-8 -55q0 -54 17.5 -75.5t44.5 -21.5q24 0 52.5 13.5t56.5 32.5t53 40t41 36zM151 85q12 9 30.5 25t35.5 37t31 44.5t17 47.5q-13 32 -41 32q-26 0 -55.5 -23.5t-54 -56t-41 -67t-16.5 -55.5t18 -21
q11 0 29.5 8.5t46.5 28.5zM153 368q-28 0 -28 9q0 7 28.5 12t68 8t81.5 4t69 1q21 0 21 -8q0 -9 -27.5 -14t-66 -7.5t-79 -3t-67.5 -1.5z" />
    <glyph glyph-name="aring" unicode="&#xe5;" horiz-adv-x="529"
d="M555 134q5 5 12.5 7t14.5 2q11 0 11 -6q0 -4 -6 -10q-20 -19 -52 -44.5t-68.5 -48t-73.5 -38.5t-68 -16q-27 0 -43 11.5t-25 30.5t-12 43t-3 48q-8 -6 -29.5 -24t-50 -37t-59 -34t-54.5 -15q-20 0 -34 14t-14 41q0 35 24.5 77t61 79t78 61.5t76.5 24.5q33 0 51 -24
q3 8 11.5 21t25.5 13q12 0 17 -6q-2 -10 -11 -32t-19 -50t-18 -58t-8 -55q0 -54 17.5 -75.5t44.5 -21.5q24 0 52.5 13.5t56.5 32.5t53 40t41 36zM151 85q12 9 30.5 25t35.5 37t31 44.5t17 47.5q-13 32 -41 32q-26 0 -55.5 -23.5t-54 -56t-41 -67t-16.5 -55.5t18 -21
q11 0 29.5 8.5t46.5 28.5zM294 438q8 -7 14.5 -17t6.5 -21q0 -23 -19 -34t-37 -11q-19 0 -34 11.5t-15 32.5q0 18 14 33t36 15q19 0 34 -9zM278 382q6 7 6 18q0 1 -1.5 8t-4.5 14.5t-6.5 12t-7.5 0.5q-8 0 -16.5 -12.5t-8.5 -26.5q0 -7 3 -17t14 -11q-1 -1 5.5 -0.5
t16.5 14.5z" />
    <glyph glyph-name="atilde" unicode="&#xe3;" horiz-adv-x="526"
d="M555 134q5 5 12.5 7t14.5 2q11 0 11 -6q0 -4 -6 -10q-20 -19 -52 -44.5t-68.5 -48t-73.5 -38.5t-68 -16q-27 0 -43 11.5t-25 30.5t-12 43t-3 48q-8 -6 -29.5 -24t-50 -37t-59 -34t-54.5 -15q-20 0 -34 14t-14 41q0 35 24.5 77t61 79t78 61.5t76.5 24.5q33 0 51 -24
q3 8 11.5 21t25.5 13q12 0 17 -6q-2 -10 -11 -32t-19 -50t-18 -58t-8 -55q0 -54 17.5 -75.5t44.5 -21.5q24 0 52.5 13.5t56.5 32.5t53 40t41 36zM151 85q12 9 30.5 25t35.5 37t31 44.5t17 47.5q-13 32 -41 32q-26 0 -55.5 -23.5t-54 -56t-41 -67t-16.5 -55.5t18 -21
q11 0 29.5 8.5t46.5 28.5zM353 386q7 0 13.5 4.5t12 10.5t11.5 11.5t13 6.5q3 0 7 -1t4 -6q0 -3 -2 -6q-11 -20 -27 -32t-38 -12q-14 0 -26.5 5t-25 11.5t-24.5 13.5t-25 10h-1q-2 0 -5.5 1t-7.5 1q-14 -2 -23 -6.5t-15 -9t-9 -8.5t-5 -4q-5 0 -5 7q0 11 7.5 19t18 13
t21.5 7.5t18 2.5q14 0 28.5 -6t28.5 -13.5t28 -13.5t28 -6z" />
    <glyph glyph-name="ae" unicode="&#xe6;" horiz-adv-x="589"
d="M612 150q2 2 5 2q5 0 9 -4t4 -6q0 -1 -1 -2q-21 -20 -52.5 -44t-68 -45.5t-76.5 -36t-79 -14.5q-35 0 -56.5 13.5t-33 31.5t-15.5 36t-5 27v5q-11 -9 -34.5 -27.5t-51 -36.5t-57 -31.5t-52.5 -13.5q-20 0 -33.5 14t-13.5 40q0 35 24.5 77t61 79t78 61.5t76.5 24.5
q33 0 51 -24l7 -8l2 3q18 18 36 28.5t36 10.5q20 0 31 -11t11 -28t-13 -39t-32 -43.5t-39.5 -41t-36.5 -31.5q0 -9 4 -23t13 -27t23 -22.5t35 -9.5q33 0 67.5 11.5t67 29t60.5 38t48 37.5zM151 85q12 9 30.5 25t35.5 37t31 44.5t17 47.5q-13 32 -41 32q-26 0 -55.5 -23.5
t-54 -56t-41 -67t-16.5 -55.5t18 -21q11 0 29.5 8.5t46.5 28.5zM300 195q-4 -11 -6 -26t-3 -29q16 13 31.5 30.5t29.5 32.5q4 4 9.5 12t11 17t9.5 18t4 16q0 8 -6.5 10.5t-11.5 2.5q-14 0 -25 -10t-19.5 -23.5t-14.5 -28t-9 -22.5z" />
    <glyph glyph-name="aeacute" unicode="&#x1fd;" horiz-adv-x="600"
d="M612 150q2 2 5 2q5 0 9 -4t4 -6q0 -1 -1 -2q-21 -20 -52.5 -44t-68 -45.5t-76.5 -36t-79 -14.5q-35 0 -56.5 13.5t-33 31.5t-15.5 36t-5 27v5q-11 -9 -34.5 -27.5t-51 -36.5t-57 -31.5t-52.5 -13.5q-20 0 -33.5 14t-13.5 40q0 35 24.5 77t61 79t78 61.5t76.5 24.5
q33 0 51 -24l7 -8l2 3q18 18 36 28.5t36 10.5q20 0 31 -11t11 -28t-13 -39t-32 -43.5t-39.5 -41t-36.5 -31.5q0 -9 4 -23t13 -27t23 -22.5t35 -9.5q33 0 67.5 11.5t67 29t60.5 38t48 37.5zM151 85q12 9 30.5 25t35.5 37t31 44.5t17 47.5q-13 32 -41 32q-26 0 -55.5 -23.5
t-54 -56t-41 -67t-16.5 -55.5t18 -21q11 0 29.5 8.5t46.5 28.5zM300 195q-5 -11 -6.5 -26t-2.5 -29q16 13 31.5 30.5t29.5 32.5q4 4 9.5 12t11 17t9.5 18t4 16q0 8 -6.5 10.5t-11.5 2.5q-14 0 -25 -10t-19.5 -23.5t-14.5 -28t-9 -22.5zM395 440q2 1 6 1q5 0 8 -5t3 -12
q0 -8 -16 -19t-37.5 -22.5t-44.5 -22t-37 -16.5l-10 -4t-9 -2q-6 0 -6 8q0 6 17 19t40 27t47.5 27.5t38.5 20.5z" />
    <glyph glyph-name="cacute" unicode="&#x107;" horiz-adv-x="369"
d="M283 268q-2 -4 -4 -7q-5 -7 -10 -7t-19.5 9.5t-34.5 9.5q-12 0 -24 -4t-25 -15q-4 -3 -15 -13t-23 -27.5t-21 -43t-9 -61.5q0 -32 16 -52.5t54 -22.5q36 0 72.5 9t72 25.5t68.5 38.5t61 48h1q3 0 6.5 -3t3.5 -6q0 -2 -1 -3q-17 -18 -50.5 -44t-75 -49.5t-86.5 -40
t-85 -16.5q-46 0 -76.5 28t-30.5 74q0 21 6 42.5t15.5 42.5t22 40t25.5 34q26 31 49.5 43t45.5 12q12 0 24.5 -3.5t23 -9t17.5 -11.5t7 -12q0 -4 -1 -5zM304 456q2 1 6 1q5 0 8 -5t3 -12q0 -8 -16 -19t-37.5 -22.5t-44.5 -22t-37 -16.5l-10 -4t-9 -2q-6 0 -6 8q0 6 17 19
t40 27t47.5 27.5t38.5 20.5z" />
    <glyph glyph-name="ccaron" unicode="&#x10d;" horiz-adv-x="369"
d="M278 268q-2 -4 -4 -7q-5 -7 -10 -7t-19.5 9.5t-34.5 9.5q-12 0 -24 -4t-25 -15q-4 -3 -15 -13t-23 -27.5t-21 -43t-9 -61.5q0 -32 16 -52.5t54 -22.5q36 0 72.5 9t72 25.5t68.5 38.5t61 48h1q3 0 6.5 -3t3.5 -6q0 -2 -1 -3q-17 -18 -50.5 -44t-75 -49.5t-86.5 -40
t-85 -16.5q-46 0 -76.5 28t-30.5 74q0 21 6 42.5t15.5 42.5t22 40t25.5 34q26 31 49.5 43t45.5 12q12 0 24.5 -3.5t23 -9t17.5 -11.5t7 -12q0 -4 -1 -5zM350 441q0 -3 -7 -6q-18 -12 -36.5 -25t-35.5 -24.5t-31.5 -18.5t-25.5 -7q-9 0 -17.5 4t-16.5 9q-7 4 -20.5 12.5
t-26.5 17.5t-22.5 17.5t-9.5 11.5q0 4 9.5 6.5t16.5 2.5q2 0 3.5 -0.5t2.5 -0.5l68 -46q3 -2 6 -3.5l7 -3.5l7 -4h1q3 0 14.5 5.5t26.5 14t32 18.5t31 19q8 5 18 5q6 0 6 -4z" />
    <glyph glyph-name="ccedilla" unicode="&#xe7;" horiz-adv-x="377"
d="M265 268q-2 -4 -4 -7q-5 -7 -10 -7t-19.5 9.5t-34.5 9.5q-12 0 -24 -4t-25 -15q-4 -3 -15 -13t-23 -27.5t-21 -43t-9 -61.5q0 -32 16 -52.5t54 -22.5q36 0 72.5 9t72 25.5t68.5 38.5t61 48h1q3 0 6.5 -3t3.5 -6q0 -2 -1 -3q-16 -17 -47 -41.5t-70 -47t-81.5 -40
t-81.5 -20.5q-2 -3 -4 -9l-2 -2q7 1 13 1.5t13 0.5q6 0 15.5 -1t17.5 -4.5t14 -10t6 -17.5q0 -20 -15 -34.5t-38 -25t-49.5 -16.5t-49.5 -9q-5 0 -8.5 2t-3.5 5q0 4 5 5t15.5 2.5t28 5.5t41.5 13q28 11 35 23t7 14q0 17 -8 20.5t-13 3.5q-3 0 -7 -0.5t-7 -0.5h-3
q-1 -1 -2 -1l-8 -2q-6 -1 -11.5 -3.5t-10.5 -2.5q-6 0 -10.5 3t-4.5 9l8 32q-42 5 -65 33.5t-23 66.5q0 21 6 42.5t15.5 42.5t22 40t25.5 34q26 31 49.5 43t45.5 12q12 0 24.5 -3.5t23 -9t17.5 -11.5t7 -12q0 -4 -1 -5z" />
    <glyph glyph-name="ccircumflex" unicode="&#x109;" horiz-adv-x="361"
d="M278 268q-2 -4 -4 -7q-5 -7 -10 -7t-19.5 9.5t-34.5 9.5q-12 0 -24 -4t-25 -15q-4 -3 -15 -13t-23 -27.5t-21 -43t-9 -61.5q0 -32 16 -52.5t54 -22.5q36 0 72.5 9t72 25.5t68.5 38.5t61 48h1q3 0 6.5 -3t3.5 -6q0 -2 -1 -3q-17 -18 -50.5 -44t-75 -49.5t-86.5 -40
t-85 -16.5q-46 0 -76.5 28t-30.5 74q0 21 6 42.5t15.5 42.5t22 40t25.5 34q26 31 49.5 43t45.5 12q12 0 24.5 -3.5t23 -9t17.5 -11.5t7 -12q0 -4 -1 -5zM102 357q0 2 6 7q17 13 35 28t35 27.5t31.5 20.5t25.5 8q9 0 17 -4.5t16 -9.5q7 -5 20 -14.5t25.5 -19.5t22 -19
t9.5 -13q0 -5 -8.5 -7.5t-16.5 -2.5q-5 0 -6 1q-17 16 -39.5 34t-39.5 25l-7 4h-1q-3 0 -14.5 -6t-26 -15.5t-31 -21t-30.5 -21.5q-8 -6 -17 -6q-6 0 -6 5z" />
    <glyph glyph-name="cdotaccent" unicode="&#x10b;" horiz-adv-x="369"
d="M275 268q-2 -4 -4 -7q-5 -7 -10 -7t-19.5 9.5t-34.5 9.5q-12 0 -24 -4t-25 -15q-4 -3 -15 -13t-23 -27.5t-21 -43t-9 -61.5q0 -32 16 -52.5t54 -22.5q36 0 72.5 9t72 25.5t68.5 38.5t61 48h1q3 0 6.5 -3t3.5 -6q0 -2 -1 -3q-17 -18 -50.5 -44t-75 -49.5t-86.5 -40
t-85 -16.5q-46 0 -76.5 28t-30.5 74q0 21 6 42.5t15.5 42.5t22 40t25.5 34q26 31 49.5 43t45.5 12q12 0 24.5 -3.5t23 -9t17.5 -11.5t7 -12q0 -4 -1 -5zM222 426q8 -2 12.5 -11.5t4.5 -16.5q0 -17 -14 -31t-31 -14q-9 0 -12 12t-3 20q0 14 11 28t26 14q2 0 3 -0.5t3 -0.5z
" />
    <glyph glyph-name="dcaron" unicode="&#x10f;" horiz-adv-x="534"
d="M556 119q4 4 13 4q8 0 15.5 -4t7.5 -9q0 -6 -8 -11q-33 -20 -64 -42.5t-60 -41.5t-56.5 -31.5t-53.5 -12.5q-24 0 -43.5 11.5t-34 30.5t-22.5 44.5t-8 52.5l-19 -15q-9 -7 -29.5 -22.5t-46 -31t-52.5 -27.5t-48 -12q-20 0 -33 14.5t-13 40.5q0 23 11 48.5t29.5 50
t42.5 47t50 39.5t51.5 27t47.5 10q25 0 41 -13q9 29 18 61.5t17 63.5t15.5 56.5t12.5 39.5q23 63 51 131.5t66 125.5l21 31.5t24.5 30t30.5 22.5t39 9q24 0 33.5 -17t9.5 -44q0 -24 -6 -54.5t-15.5 -61t-20.5 -58.5t-20 -48q-21 -48 -48 -98.5t-59 -100t-68 -95.5t-75 -85
q-1 -9 -1 -20v-22q0 -34 6.5 -57.5t17 -37.5t24.5 -20.5t28 -6.5q22 0 47.5 11t50 27.5t46 35.5t37.5 34zM361 443q-6 -20 -13 -46.5t-14 -55.5t-13 -57.5t-12 -52.5q29 34 56 74.5t52 84t47 86.5t40 81t37.5 89.5t31.5 99.5q3 12 3 23q0 17 -6 27.5t-17 10.5q-7 0 -16 -6
t-18 -16t-17 -21.5t-14 -21.5q-40 -71 -70.5 -146.5t-56.5 -152.5zM151 83q25 18 48.5 38t46.5 42q2 13 4 25t4 25q-7 18 -17 25.5t-23 7.5q-23 0 -50.5 -21.5t-51 -51.5t-39.5 -61t-16 -49q0 -19 16 -19q11 0 30 9t48 30zM679 794q0 6 5.5 9.5t12.5 3.5q8 0 9 -5.5t1 -12.5
q0 -14 -6.5 -34.5t-17 -40t-23.5 -33.5t-27 -14q-4 0 -4 2t3 5q20 24 33.5 51.5t13.5 57.5v11z" />
    <glyph glyph-name="dcroat" unicode="&#x111;" horiz-adv-x="539"
d="M319 503q-35 0 -35 9q0 11 19 12.5t50 4.5q20 55 44.5 111t56.5 104l21 31.5t24.5 30t30.5 22.5t39 9q24 0 33.5 -17t9.5 -44q0 -24 -6.5 -54.5t-15.5 -61t-20 -58.5t-20 -48l-7 -16q9 0 19.5 1t20.5 1q26 0 26 -9q0 -13 -40 -16l-38 -3q-43 -88 -102 -177.5t-129 -159.5
q-1 -9 -1 -20v-22q0 -34 6.5 -57.5t17 -37.5t24.5 -20.5t28 -6.5q22 0 47.5 11t50 27.5t46 35.5t37.5 34q11 9 27 9q11 0 11 -6q0 -4 -6 -10q-20 -19 -47 -42.5t-58 -44.5t-64.5 -35t-65.5 -14q-28 0 -49 10.5t-34.5 28.5t-20.5 42.5t-7 52.5l-19 -15q-9 -7 -29.5 -22.5
t-46 -31t-52.5 -27.5t-48 -12q-20 0 -33 14.5t-13 40.5q0 23 11 48.5t29.5 50t42.5 47t50 39.5t51.5 27t47.5 10q25 0 41 -13q9 29 18 61.5t17 63.5t15.5 56.5t12.5 39.5l6 16h-24zM488 742q-29 -51 -53 -104t-44 -108l102 5l11 22q19 38 37.5 90t31.5 99q3 12 3 23
q0 17 -6 27.5t-17 10.5q-7 0 -16 -6t-18 -16t-17 -21.5t-14 -21.5zM151 83q25 18 48.5 38t46.5 42q2 13 4 25t4 25q-7 18 -17 25.5t-23 7.5q-23 0 -50.5 -21.5t-51 -51.5t-39.5 -61t-16 -49q0 -19 16 -19q11 0 30 9t48 30zM361 443q-6 -20 -13 -46.5t-14 -55.5t-13 -57.5
t-12 -52.5q25 28 48 62t45 70.5t41.5 74t37.5 72.5l-99 -5z" />
    <glyph glyph-name="eacute" unicode="&#xe9;" horiz-adv-x="348"
d="M371 150q2 2 5 2q4 0 8 -3.5t4 -6.5q0 -2 -1 -2q-21 -20 -52 -44t-67.5 -45.5t-76.5 -36t-79 -14.5q-35 0 -56.5 13.5t-33 31.5t-15.5 36t-5 27q-1 5 -1 16q0 39 13 72.5t32.5 59t42.5 40t43 14.5t31 -11t11 -28q0 -21 -18 -51q-7 -11 -24 -28.5t-34.5 -34.5t-31 -29.5
t-13.5 -14.5q0 -10 4.5 -23.5t13.5 -26t23 -21t34 -8.5q33 0 67.5 11.5t66.5 29t60.5 38t48.5 37.5zM141 274q-5 5 -14 5q-14 0 -25 -10t-19.5 -23.5t-14.5 -28t-9 -22.5q-5 -11 -6.5 -26t-2.5 -29q15 13 31 30.5t30 32.5q4 4 9.5 11.5t10.5 16.5t9 18t4 16q0 6 -3 9z
M195 438q2 1 5 1q5 0 8 -5t3 -11q0 -8 -14.5 -18t-34 -20.5t-40 -19.5t-33.5 -14q-5 -2 -9.5 -3.5t-8.5 -1.5q-6 0 -6 7q0 5 15 16.5t36 24.5t43 25t36 19z" />
    <glyph glyph-name="ebreve" unicode="&#x115;" horiz-adv-x="353"
d="M371 150q2 2 5 2q4 0 8 -3.5t4 -6.5q0 -2 -1 -2q-21 -20 -52 -44t-67.5 -45.5t-76.5 -36t-79 -14.5q-35 0 -56.5 13.5t-33 31.5t-15.5 36t-5 27q-1 5 -1 16q0 39 13 72.5t32.5 59t42.5 40t43 14.5t31 -11t11 -28q0 -21 -18 -51q-7 -11 -24 -28.5t-34.5 -34.5t-31 -29.5
t-13.5 -14.5q0 -10 4.5 -23.5t13.5 -26t23 -21t34 -8.5q33 0 67.5 11.5t66.5 29t60.5 38t48.5 37.5zM141 274q-5 5 -14 5q-14 0 -25 -10t-19.5 -23.5t-14.5 -28t-9 -22.5q-5 -11 -6.5 -26t-2.5 -29q15 13 31 30.5t30 32.5q4 4 9.5 11.5t10.5 16.5t9 18t4 16q0 6 -3 9z
M146 373q-1 -1 -2 -1q2 -1 5.5 0.5t5.5 3.5l6 2q2 1 4.5 2t5.5 2q1 0 3 2t4 2l8 5q1 1 2 1l6 5l10 8q1 0 1 1l9 9q4 5 9 6.5t10 2.5q2 0 5 -0.5t3 -2.5t-1 -3q-23 -26 -59.5 -44.5t-76.5 -18.5q-24 0 -44 11t-31 39q0 8 10.5 10t12.5 2t5.5 -5t8.5 -11.5t10 -12.5t10 -9
q5 -4 12 -5.5t9 -3.5h3q3 0 5.5 -0.5t4.5 -0.5h3q4 0 5 1l16 2q1 0 1 0.5t1 0.5z" />
    <glyph glyph-name="ecaron" unicode="&#x11b;" horiz-adv-x="343"
d="M371 150q2 2 5 2q4 0 8 -3.5t4 -6.5q0 -2 -1 -2q-21 -20 -52 -44t-67.5 -45.5t-76.5 -36t-79 -14.5q-35 0 -56.5 13.5t-33 31.5t-15.5 36t-5 27q-1 5 -1 16q0 39 13 72.5t32.5 59t42.5 40t43 14.5t31 -11t11 -28q0 -21 -18 -51q-7 -11 -24 -28.5t-34.5 -34.5t-31 -29.5
t-13.5 -14.5q0 -10 4.5 -23.5t13.5 -26t23 -21t34 -8.5q33 0 67.5 11.5t66.5 29t60.5 38t48.5 37.5zM141 274q-5 5 -14 5q-14 0 -25 -10t-19.5 -23.5t-14.5 -28t-9 -22.5q-5 -11 -6.5 -26t-2.5 -29q15 13 31 30.5t30 32.5q4 4 9.5 11.5t10.5 16.5t9 18t4 16q0 6 -3 9z
M237 430q0 -1 -6 -5q-15 -11 -31.5 -22.5t-31.5 -21.5t-28 -16.5t-22 -6.5q-8 0 -16 3.5t-15 8.5q-6 3 -17.5 10.5t-23.5 15.5t-20.5 15.5t-8.5 10.5q0 4 8 6t14 2q8 1 20 -9.5t22 -16.5l24 -15q5 -4 11 -7t8 -3q3 0 13 5t23.5 12.5t28 16t27.5 16.5q8 5 15 5q6 0 6 -4z" />
    <glyph glyph-name="ecircumflex" unicode="&#xea;" horiz-adv-x="343"
d="M371 150q2 2 5 2q4 0 8 -3.5t4 -6.5q0 -2 -1 -2q-21 -20 -52 -44t-67.5 -45.5t-76.5 -36t-79 -14.5q-35 0 -56.5 13.5t-33 31.5t-15.5 36t-5 27q-1 5 -1 16q0 39 13 72.5t32.5 59t42.5 40t43 14.5t31 -11t11 -28q0 -21 -18 -51q-7 -11 -24 -28.5t-34.5 -34.5t-31 -29.5
t-13.5 -14.5q0 -10 4.5 -23.5t13.5 -26t23 -21t34 -8.5q33 0 67.5 11.5t66.5 29t60.5 38t48.5 37.5zM141 274q-5 5 -14 5q-14 0 -25 -10t-19.5 -23.5t-14.5 -28t-9 -22.5q-5 -11 -6.5 -26t-2.5 -29q15 13 31 30.5t30 32.5q4 4 9.5 11.5t10.5 16.5t9 18t4 16q0 6 -3 9z
M28 345q0 2 0.5 3t4.5 3q14 12 29 25t28.5 24t25 18.5t19.5 7.5t15 -4t14 -9q6 -4 16.5 -12.5t21 -17.5t18.5 -17t8 -11q0 -5 -8 -7t-13 -2q-4 0 -5 1l-32 28l-23 17q-2 2 -4.5 3.5t-5.5 3.5l-6 3h-1q-3 0 -12 -5.5t-21 -13.5t-25.5 -18t-24.5 -19q-8 -6 -14 -6q-5 0 -5 5z
" />
    <glyph glyph-name="edieresis" unicode="&#xeb;" horiz-adv-x="343"
d="M371 150q2 2 5 2q4 0 8 -3.5t4 -6.5q0 -2 -1 -2q-21 -20 -52 -44t-67.5 -45.5t-76.5 -36t-79 -14.5q-35 0 -56.5 13.5t-33 31.5t-15.5 36t-5 27q-1 5 -1 16q0 39 13 72.5t32.5 59t42.5 40t43 14.5t31 -11t11 -28q0 -21 -18 -51q-7 -11 -24 -28.5t-34.5 -34.5t-31 -29.5
t-13.5 -14.5q0 -10 4.5 -23.5t13.5 -26t23 -21t34 -8.5q33 0 67.5 11.5t66.5 29t60.5 38t48.5 37.5zM141 274q-5 5 -14 5q-14 0 -25 -10t-19.5 -23.5t-14.5 -28t-9 -22.5q-5 -11 -6.5 -26t-2.5 -29q15 13 31 30.5t30 32.5q4 4 9.5 11.5t10.5 16.5t9 18t4 16q0 6 -3 9z
M84 423q7 -2 9.5 -10.5t2.5 -13.5q0 -14 -10 -23.5t-23 -9.5q-8 0 -10.5 12t-2.5 16q2 11 9 20.5t19 9.5q2 0 3 -0.5t3 -0.5zM196 426q6 -1 9 -9.5t3 -14.5q0 -13 -10 -22.5t-23 -9.5q-9 0 -11 11.5t-2 16.5q2 11 9 20t18 9q2 0 3.5 -0.5t3.5 -0.5z" />
    <glyph glyph-name="edotaccent" unicode="&#x117;" horiz-adv-x="351"
d="M371 150q2 2 5 2q4 0 8 -3.5t4 -6.5q0 -2 -1 -2q-21 -20 -52 -44t-67.5 -45.5t-76.5 -36t-79 -14.5q-35 0 -56.5 13.5t-33 31.5t-15.5 36t-5 27q-1 5 -1 16q0 39 13 72.5t32.5 59t42.5 40t43 14.5t31 -11t11 -28q0 -21 -18 -51q-7 -11 -24 -28.5t-34.5 -34.5t-31 -29.5
t-13.5 -14.5q0 -10 4.5 -23.5t13.5 -26t23 -21t34 -8.5q33 0 67.5 11.5t66.5 29t60.5 38t48.5 37.5zM141 274q-5 5 -14 5q-14 0 -25 -10t-19.5 -23.5t-14.5 -28t-9 -22.5q-5 -11 -6.5 -26t-2.5 -29q15 13 31 30.5t30 32.5q4 4 9.5 11.5t10.5 16.5t9 18t4 16q0 6 -3 9z
M141 418q8 -2 12.5 -11.5t4.5 -16.5q0 -17 -14 -31t-31 -14q-9 0 -12 12t-3 20q0 14 11 28t26 14q2 0 3 -0.5t3 -0.5z" />
    <glyph glyph-name="egrave" unicode="&#xe8;" horiz-adv-x="359"
d="M371 150q2 2 5 2q4 0 8 -3.5t4 -6.5q0 -2 -1 -2q-21 -20 -52 -44t-67.5 -45.5t-76.5 -36t-79 -14.5q-35 0 -56.5 13.5t-33 31.5t-15.5 36t-5 27q-1 5 -1 16q0 39 13 72.5t32.5 59t42.5 40t43 14.5t31 -11t11 -28q0 -21 -18 -51q-7 -11 -24 -28.5t-34.5 -34.5t-31 -29.5
t-13.5 -14.5q0 -10 4.5 -23.5t13.5 -26t23 -21t34 -8.5q33 0 67.5 11.5t66.5 29t60.5 38t48.5 37.5zM141 274q-5 5 -14 5q-14 0 -25 -10t-19.5 -23.5t-14.5 -28t-9 -22.5q-5 -11 -6.5 -26t-2.5 -29q15 13 31 30.5t30 32.5q4 4 9.5 11.5t10.5 16.5t9 18t4 16q0 6 -3 9z
M39 425q-5 3 -5 7q0 5 7.5 9t16.5 4q8 0 15 -5q39 -33 66.5 -52.5t27.5 -30.5q0 -3 -4 -4t-6 -1q-5 0 -39 16.5t-79 56.5z" />
    </font>
</defs>
</svg>
